%TF.GenerationSoftware,KiCad,Pcbnew,7.0.10-7.0.10~ubuntu22.04.1*%
%TF.CreationDate,2024-11-26T00:39:38-05:00*%
%TF.ProjectId,Chimera,4368696d-6572-4612-9e6b-696361645f70,rev?*%
%TF.SameCoordinates,Original*%
%TF.FileFunction,Soldermask,Bot*%
%TF.FilePolarity,Negative*%
%FSLAX46Y46*%
G04 Gerber Fmt 4.6, Leading zero omitted, Abs format (unit mm)*
G04 Created by KiCad (PCBNEW 7.0.10-7.0.10~ubuntu22.04.1) date 2024-11-26 00:39:38*
%MOMM*%
%LPD*%
G01*
G04 APERTURE LIST*
G04 Aperture macros list*
%AMRoundRect*
0 Rectangle with rounded corners*
0 $1 Rounding radius*
0 $2 $3 $4 $5 $6 $7 $8 $9 X,Y pos of 4 corners*
0 Add a 4 corners polygon primitive as box body*
4,1,4,$2,$3,$4,$5,$6,$7,$8,$9,$2,$3,0*
0 Add four circle primitives for the rounded corners*
1,1,$1+$1,$2,$3*
1,1,$1+$1,$4,$5*
1,1,$1+$1,$6,$7*
1,1,$1+$1,$8,$9*
0 Add four rect primitives between the rounded corners*
20,1,$1+$1,$2,$3,$4,$5,0*
20,1,$1+$1,$4,$5,$6,$7,0*
20,1,$1+$1,$6,$7,$8,$9,0*
20,1,$1+$1,$8,$9,$2,$3,0*%
G04 Aperture macros list end*
%ADD10R,1.700000X1.700000*%
%ADD11O,1.700000X1.700000*%
%ADD12O,0.890000X1.550000*%
%ADD13O,1.250000X0.950000*%
%ADD14C,2.700000*%
%ADD15C,3.200000*%
%ADD16C,1.800000*%
%ADD17R,1.800000X1.800000*%
%ADD18C,5.700000*%
%ADD19RoundRect,0.250000X0.262500X0.450000X-0.262500X0.450000X-0.262500X-0.450000X0.262500X-0.450000X0*%
G04 APERTURE END LIST*
D10*
%TO.C,J2*%
X136720000Y-88295000D03*
D11*
X139260000Y-88295000D03*
X141800000Y-88295000D03*
%TD*%
D12*
%TO.C,J9*%
X108640000Y-63120000D03*
D13*
X107640000Y-65820000D03*
X102640000Y-65820000D03*
D12*
X101640000Y-63120000D03*
%TD*%
D10*
%TO.C,T4*%
X120550000Y-117250000D03*
D11*
X123090000Y-117250000D03*
%TD*%
D14*
%TO.C,Motor1*%
X89385000Y-115170000D03*
X84385000Y-115170000D03*
%TD*%
D10*
%TO.C,J8*%
X98290000Y-63925000D03*
D11*
X95750000Y-63925000D03*
%TD*%
D15*
%TO.C,H6*%
X75750000Y-65525000D03*
%TD*%
D10*
%TO.C,T1*%
X95660000Y-116730000D03*
D11*
X98200000Y-116730000D03*
%TD*%
D16*
%TO.C,3.3V*%
X107675000Y-112280000D03*
X107675000Y-107200000D03*
D17*
X107675000Y-102120000D03*
%TD*%
D15*
%TO.C,H4*%
X139750000Y-65525000D03*
%TD*%
D10*
%TO.C,J1*%
X136730000Y-91895000D03*
D11*
X139270000Y-91895000D03*
X141810000Y-91895000D03*
%TD*%
D18*
%TO.C,Switch*%
X133125000Y-68775000D03*
%TD*%
D15*
%TO.C,H3*%
X75750000Y-115525000D03*
%TD*%
%TO.C,H2*%
X139750000Y-115525000D03*
%TD*%
D10*
%TO.C,T3*%
X113025000Y-117200000D03*
D11*
X115565000Y-117200000D03*
%TD*%
D10*
%TO.C,T2*%
X101805000Y-116720000D03*
D11*
X104345000Y-116720000D03*
%TD*%
D10*
%TO.C,J3*%
X136735000Y-84695000D03*
D11*
X139275000Y-84695000D03*
X141815000Y-84695000D03*
%TD*%
D14*
%TO.C,Motor2*%
X89810000Y-66570000D03*
X84810000Y-66570000D03*
%TD*%
D17*
%TO.C,7V*%
X114075000Y-112260000D03*
D16*
X114075000Y-107180000D03*
X114075000Y-102100000D03*
%TD*%
D14*
%TO.C,Battery*%
X140275000Y-74075000D03*
X140275000Y-79075000D03*
%TD*%
D19*
%TO.C,R3*%
X123700000Y-62950000D03*
X121875000Y-62950000D03*
%TD*%
M02*
