%TF.GenerationSoftware,KiCad,Pcbnew,7.0.10-7.0.10~ubuntu22.04.1*%
%TF.CreationDate,2024-11-26T00:39:38-05:00*%
%TF.ProjectId,Chimera,4368696d-6572-4612-9e6b-696361645f70,rev?*%
%TF.SameCoordinates,Original*%
%TF.FileFunction,Copper,L2,Inr*%
%TF.FilePolarity,Positive*%
%FSLAX46Y46*%
G04 Gerber Fmt 4.6, Leading zero omitted, Abs format (unit mm)*
G04 Created by KiCad (PCBNEW 7.0.10-7.0.10~ubuntu22.04.1) date 2024-11-26 00:39:38*
%MOMM*%
%LPD*%
G01*
G04 APERTURE LIST*
%TA.AperFunction,ComponentPad*%
%ADD10R,1.700000X1.700000*%
%TD*%
%TA.AperFunction,ComponentPad*%
%ADD11O,1.700000X1.700000*%
%TD*%
%TA.AperFunction,ComponentPad*%
%ADD12O,0.890000X1.550000*%
%TD*%
%TA.AperFunction,ComponentPad*%
%ADD13O,1.250000X0.950000*%
%TD*%
%TA.AperFunction,ComponentPad*%
%ADD14C,2.700000*%
%TD*%
%TA.AperFunction,ComponentPad*%
%ADD15C,1.800000*%
%TD*%
%TA.AperFunction,ComponentPad*%
%ADD16R,1.800000X1.800000*%
%TD*%
%TA.AperFunction,ComponentPad*%
%ADD17C,5.700000*%
%TD*%
%TA.AperFunction,ViaPad*%
%ADD18C,0.800000*%
%TD*%
%TA.AperFunction,Conductor*%
%ADD19C,0.250000*%
%TD*%
%TA.AperFunction,Conductor*%
%ADD20C,0.177800*%
%TD*%
G04 APERTURE END LIST*
D10*
%TO.N,+7.5V*%
%TO.C,J2*%
X136720000Y-88295000D03*
D11*
%TO.N,Fork2*%
X139260000Y-88295000D03*
%TO.N,Servo_Current_Sense*%
X141800000Y-88295000D03*
%TD*%
D12*
%TO.N,GND*%
%TO.C,J9*%
X108640000Y-63120000D03*
D13*
X107640000Y-65820000D03*
X102640000Y-65820000D03*
D12*
X101640000Y-63120000D03*
%TD*%
D10*
%TO.N,+3.3V*%
%TO.C,T4*%
X120550000Y-117250000D03*
D11*
%TO.N,/Therm4*%
X123090000Y-117250000D03*
%TD*%
D14*
%TO.N,/Motor 1*%
%TO.C,Motor1*%
X89385000Y-115170000D03*
%TO.N,GND*%
X84385000Y-115170000D03*
%TD*%
D10*
%TO.N,GND*%
%TO.C,J8*%
X98290000Y-63925000D03*
D11*
%TO.N,Net-(J8-Pin_2)*%
X95750000Y-63925000D03*
%TD*%
D10*
%TO.N,+3.3V*%
%TO.C,T1*%
X95660000Y-116730000D03*
D11*
%TO.N,/Therm1*%
X98200000Y-116730000D03*
%TD*%
D15*
%TO.N,+3.3V*%
%TO.C,3.3V*%
X107675000Y-112280000D03*
%TO.N,unconnected-(S2-Pad2)*%
X107675000Y-107200000D03*
D16*
%TO.N,Net-(U5-OUTPUT)*%
X107675000Y-102120000D03*
%TD*%
D10*
%TO.N,+7.5V*%
%TO.C,J1*%
X136730000Y-91895000D03*
D11*
%TO.N,Fork1*%
X139270000Y-91895000D03*
%TO.N,Servo_Current_Sense*%
X141810000Y-91895000D03*
%TD*%
D17*
%TO.N,+BATT*%
%TO.C,Switch*%
X133125000Y-68775000D03*
%TD*%
D10*
%TO.N,+3.3V*%
%TO.C,T3*%
X113025000Y-117200000D03*
D11*
%TO.N,/Therm3*%
X115565000Y-117200000D03*
%TD*%
D10*
%TO.N,+3.3V*%
%TO.C,T2*%
X101805000Y-116720000D03*
D11*
%TO.N,/Therm2*%
X104345000Y-116720000D03*
%TD*%
D10*
%TO.N,+7.5V*%
%TO.C,J3*%
X136735000Y-84695000D03*
D11*
%TO.N,Flame_Servo*%
X139275000Y-84695000D03*
%TO.N,GND*%
X141815000Y-84695000D03*
%TD*%
D14*
%TO.N,/Motor 2*%
%TO.C,Motor2*%
X89810000Y-66570000D03*
%TO.N,GND*%
X84810000Y-66570000D03*
%TD*%
D16*
%TO.N,+BATT*%
%TO.C,7V*%
X114075000Y-112260000D03*
D15*
%TO.N,unconnected-(S1-Pad2)*%
X114075000Y-107180000D03*
%TO.N,Net-(IC1-EN)*%
X114075000Y-102100000D03*
%TD*%
D14*
%TO.N,+BATT*%
%TO.C,Battery*%
X140275000Y-74075000D03*
%TO.N,GND*%
X140275000Y-79075000D03*
%TD*%
D18*
%TO.N,+BATT*%
X74550000Y-102550000D03*
X128650000Y-66050000D03*
X129025000Y-84350000D03*
X79100000Y-79600000D03*
X127375000Y-62275000D03*
X78525000Y-101075000D03*
X132185000Y-116845000D03*
X73375000Y-75850000D03*
X73150000Y-104125000D03*
X73050000Y-101050000D03*
X79875000Y-102450000D03*
X132175000Y-96025000D03*
X128275000Y-62475000D03*
X73250000Y-79575000D03*
X78850000Y-77050000D03*
%TO.N,GND*%
X125775000Y-65025000D03*
X92750000Y-106075000D03*
X77375000Y-82150000D03*
X135500000Y-94650000D03*
X79300000Y-111150000D03*
X108825000Y-91275000D03*
X117425000Y-78550000D03*
X132775000Y-98225000D03*
X104600000Y-81370000D03*
X88225000Y-84650000D03*
X110500000Y-69300000D03*
X126000000Y-64275000D03*
X74950000Y-109350000D03*
X104750000Y-89400000D03*
X103650000Y-81330000D03*
X84600000Y-69800000D03*
X97525000Y-111400000D03*
X105580000Y-81370000D03*
X117425000Y-76500000D03*
X77925000Y-73625000D03*
X117425000Y-77500000D03*
X123200000Y-114050000D03*
X105490000Y-79480000D03*
X86525000Y-82450000D03*
X81625000Y-63525000D03*
X103175000Y-91575000D03*
X73475000Y-73775000D03*
X95350000Y-103075000D03*
X103530000Y-79430000D03*
X103580000Y-80330000D03*
X127375000Y-111500000D03*
X87275000Y-101000000D03*
X117425000Y-73025000D03*
X92425000Y-98325000D03*
X117425000Y-74200000D03*
X142600000Y-97025000D03*
X88275000Y-76381100D03*
X110525000Y-89400000D03*
X101175000Y-91550000D03*
X77950000Y-70600000D03*
X81375000Y-112875000D03*
X119375000Y-76175000D03*
X101450000Y-113850000D03*
X118425000Y-80175000D03*
X74925000Y-106700000D03*
X126075000Y-63600000D03*
X133350000Y-63525000D03*
X112425000Y-83525000D03*
X108925000Y-115475000D03*
X117725000Y-79500000D03*
X119150000Y-80900000D03*
X108775000Y-117550000D03*
X131217303Y-104340393D03*
X114100000Y-76625000D03*
X122250000Y-68175000D03*
X73325000Y-70325000D03*
X96825000Y-85550000D03*
X141000000Y-95725000D03*
X73425000Y-107975000D03*
X127275000Y-85600000D03*
X117325000Y-86850000D03*
X117400000Y-72000000D03*
X93225000Y-91400000D03*
X81750000Y-117675000D03*
X74500000Y-71950000D03*
X136150000Y-101750000D03*
X105530000Y-80420000D03*
X87850000Y-63475000D03*
X108450000Y-89350000D03*
X104560000Y-80350000D03*
X86225000Y-117750000D03*
X91250000Y-93625000D03*
X104520000Y-79450000D03*
X79281272Y-108372023D03*
X85400000Y-112925000D03*
X130250000Y-96050000D03*
X138650000Y-100450000D03*
X81525000Y-109850000D03*
X117425000Y-75300000D03*
X101300000Y-64875000D03*
X122575000Y-64425000D03*
%TO.N,+3.3V*%
X84075000Y-96925000D03*
X100075000Y-77050000D03*
X107858419Y-77139897D03*
X97000000Y-78550000D03*
X105075000Y-78275000D03*
X91300000Y-91400000D03*
X100875000Y-99625000D03*
X96850000Y-83500000D03*
X120550000Y-110875000D03*
X82500000Y-99725000D03*
X102850000Y-106500000D03*
X111725000Y-88450000D03*
X93200000Y-80425000D03*
X117045729Y-87945729D03*
%TO.N,+7.5V*%
X126500000Y-78725000D03*
X123875000Y-78600000D03*
X134835000Y-116870000D03*
%TO.N,+5V*%
X132550000Y-105150000D03*
X130760000Y-100570000D03*
%TO.N,Net-(U4-MODE)*%
X125050000Y-63250000D03*
%TO.N,Fork1*%
X109675000Y-96700000D03*
X112250000Y-99150000D03*
%TO.N,Net-(U2-DIAG)*%
X79360000Y-82120000D03*
X82185000Y-79395000D03*
%TO.N,Fork2*%
X113300000Y-98375000D03*
X110100278Y-95786527D03*
%TO.N,Flame_Servo*%
X114075000Y-97450000D03*
X110375000Y-94825000D03*
%TO.N,PG*%
X120100000Y-74625000D03*
X110350000Y-82050000D03*
X113638561Y-80736439D03*
%TO.N,IPROPI2*%
X92660000Y-81495000D03*
X95185000Y-84295000D03*
%TO.N,DRVOFF1*%
X93825000Y-102725000D03*
X93825000Y-101225000D03*
%TO.N,EN_IN1*%
X92750000Y-101225000D03*
X92725000Y-102650000D03*
%TO.N,PH_IN1*%
X91600000Y-102650000D03*
X91625000Y-101250000D03*
%TO.N,Enable*%
X110318517Y-81050493D03*
X118700000Y-68275000D03*
%TO.N,/MCU/SD_MISO*%
X94200000Y-94900000D03*
X97550000Y-95050000D03*
%TO.N,/MCU/SD CSn*%
X97875000Y-88975000D03*
X94375000Y-89200000D03*
%TO.N,/MCU/SD CK*%
X94275000Y-92425000D03*
X97825000Y-92325000D03*
%TO.N,/MCU/QSPI_SD2*%
X99785000Y-74520000D03*
X93185000Y-75095000D03*
%TO.N,/MCU/Transmitter-MCU_RX*%
X121550000Y-94455500D03*
X116600000Y-90338900D03*
X119775000Y-94400000D03*
X121050000Y-96900000D03*
%TO.N,/MCU/LED*%
X112150000Y-93625000D03*
X115912500Y-98662500D03*
%TO.N,/MCU/NEO*%
X100325000Y-104475000D03*
X99775000Y-99675000D03*
%TO.N,/MCU/SD_MOSI*%
X98425000Y-90775000D03*
X94275000Y-90525000D03*
%TO.N,/MCU/Transmitter-MCU_TX*%
X115825000Y-90975000D03*
X122075000Y-96625000D03*
%TO.N,Current_Sense*%
X125750000Y-96600000D03*
X124400000Y-94400000D03*
%TO.N,Net-(IC1-EN)*%
X118850000Y-100625000D03*
X117425000Y-101325000D03*
X125500000Y-98800000D03*
X123125000Y-100075000D03*
%TO.N,Net-(U5-OUTPUT)*%
X116250000Y-81550000D03*
X117075000Y-98775000D03*
X121625000Y-98825000D03*
X115625000Y-99650000D03*
%TD*%
D19*
%TO.N,Net-(U2-DIAG)*%
X82185000Y-79395000D02*
X79435000Y-82145000D01*
D20*
%TO.N,IPROPI2*%
X95185000Y-84295000D02*
X94835000Y-83945000D01*
X94835000Y-83945000D02*
X94835000Y-83670000D01*
X94835000Y-83670000D02*
X92660000Y-81495000D01*
%TO.N,/MCU/QSPI_SD2*%
X99785000Y-74520000D02*
X99210000Y-75095000D01*
X93185000Y-75095000D02*
X93160000Y-75095000D01*
X99210000Y-75095000D02*
X93185000Y-75095000D01*
%TD*%
%TA.AperFunction,Conductor*%
%TO.N,GND*%
G36*
X101203023Y-61740185D02*
G01*
X101248778Y-61792989D01*
X101258722Y-61862147D01*
X101229697Y-61925703D01*
X101201575Y-61949732D01*
X101058580Y-62038860D01*
X101058575Y-62038864D01*
X100919279Y-62171274D01*
X100809481Y-62329025D01*
X100733689Y-62505642D01*
X100695000Y-62693902D01*
X100695000Y-62870000D01*
X101390000Y-62870000D01*
X101390000Y-63370000D01*
X100695000Y-63370000D01*
X100695000Y-63497921D01*
X100709570Y-63641209D01*
X100767103Y-63824579D01*
X100767108Y-63824589D01*
X100860380Y-63992633D01*
X100860380Y-63992634D01*
X100985567Y-64138460D01*
X100985568Y-64138461D01*
X101137548Y-64256102D01*
X101137552Y-64256104D01*
X101310107Y-64340746D01*
X101390000Y-64361430D01*
X101390000Y-63469624D01*
X101404505Y-63542545D01*
X101459760Y-63625240D01*
X101542455Y-63680495D01*
X101640000Y-63699898D01*
X101737545Y-63680495D01*
X101820240Y-63625240D01*
X101875495Y-63542545D01*
X101890000Y-63469624D01*
X101890000Y-64365137D01*
X102058314Y-64302801D01*
X102058323Y-64302797D01*
X102221419Y-64201140D01*
X102221424Y-64201135D01*
X102360720Y-64068725D01*
X102470518Y-63910974D01*
X102546310Y-63734357D01*
X102585000Y-63546097D01*
X102585000Y-63370000D01*
X101890000Y-63370000D01*
X101890000Y-62870000D01*
X102585000Y-62870000D01*
X102585000Y-62742078D01*
X102570429Y-62598790D01*
X102512896Y-62415420D01*
X102512891Y-62415410D01*
X102419619Y-62247366D01*
X102419619Y-62247365D01*
X102294432Y-62101539D01*
X102294431Y-62101538D01*
X102142451Y-61983897D01*
X102142447Y-61983895D01*
X102085227Y-61955828D01*
X102033708Y-61908631D01*
X102015883Y-61841074D01*
X102037413Y-61774604D01*
X102091461Y-61730325D01*
X102139836Y-61720500D01*
X108135984Y-61720500D01*
X108203023Y-61740185D01*
X108248778Y-61792989D01*
X108258722Y-61862147D01*
X108229697Y-61925703D01*
X108201575Y-61949732D01*
X108058580Y-62038860D01*
X108058575Y-62038864D01*
X107919279Y-62171274D01*
X107809481Y-62329025D01*
X107733689Y-62505642D01*
X107695000Y-62693902D01*
X107695000Y-62870000D01*
X108390000Y-62870000D01*
X108390000Y-63370000D01*
X107695000Y-63370000D01*
X107695000Y-63497921D01*
X107709570Y-63641209D01*
X107767103Y-63824579D01*
X107767108Y-63824589D01*
X107860380Y-63992633D01*
X107860380Y-63992634D01*
X107985567Y-64138460D01*
X107985568Y-64138461D01*
X108137548Y-64256102D01*
X108137552Y-64256104D01*
X108310107Y-64340746D01*
X108390000Y-64361430D01*
X108390000Y-63469624D01*
X108404505Y-63542545D01*
X108459760Y-63625240D01*
X108542455Y-63680495D01*
X108640000Y-63699898D01*
X108737545Y-63680495D01*
X108820240Y-63625240D01*
X108875495Y-63542545D01*
X108890000Y-63469624D01*
X108890000Y-64365137D01*
X109058314Y-64302801D01*
X109058323Y-64302797D01*
X109221419Y-64201140D01*
X109221424Y-64201135D01*
X109360720Y-64068725D01*
X109470518Y-63910974D01*
X109546310Y-63734357D01*
X109585000Y-63546097D01*
X109585000Y-63370000D01*
X108890000Y-63370000D01*
X108890000Y-63250000D01*
X124144540Y-63250000D01*
X124164326Y-63438256D01*
X124164327Y-63438259D01*
X124222818Y-63618277D01*
X124222821Y-63618284D01*
X124317467Y-63782216D01*
X124429784Y-63906956D01*
X124444129Y-63922888D01*
X124597265Y-64034148D01*
X124597270Y-64034151D01*
X124770192Y-64111142D01*
X124770197Y-64111144D01*
X124955354Y-64150500D01*
X124955355Y-64150500D01*
X125144644Y-64150500D01*
X125144646Y-64150500D01*
X125329803Y-64111144D01*
X125502730Y-64034151D01*
X125655871Y-63922888D01*
X125782533Y-63782216D01*
X125877179Y-63618284D01*
X125935674Y-63438256D01*
X125955460Y-63250000D01*
X125935674Y-63061744D01*
X125877179Y-62881716D01*
X125782533Y-62717784D01*
X125655871Y-62577112D01*
X125652964Y-62575000D01*
X125502734Y-62465851D01*
X125502729Y-62465848D01*
X125329807Y-62388857D01*
X125329802Y-62388855D01*
X125184001Y-62357865D01*
X125144646Y-62349500D01*
X124955354Y-62349500D01*
X124922897Y-62356398D01*
X124770197Y-62388855D01*
X124770192Y-62388857D01*
X124597270Y-62465848D01*
X124597265Y-62465851D01*
X124444129Y-62577111D01*
X124317466Y-62717785D01*
X124222821Y-62881715D01*
X124222818Y-62881722D01*
X124164327Y-63061740D01*
X124164326Y-63061744D01*
X124144540Y-63250000D01*
X108890000Y-63250000D01*
X108890000Y-62870000D01*
X109585000Y-62870000D01*
X109585000Y-62742078D01*
X109570429Y-62598790D01*
X109512896Y-62415420D01*
X109512891Y-62415410D01*
X109419619Y-62247366D01*
X109419619Y-62247365D01*
X109294432Y-62101539D01*
X109294431Y-62101538D01*
X109142451Y-61983897D01*
X109142447Y-61983895D01*
X109085227Y-61955828D01*
X109033708Y-61908631D01*
X109015883Y-61841074D01*
X109037413Y-61774604D01*
X109091461Y-61730325D01*
X109139836Y-61720500D01*
X126440559Y-61720500D01*
X126507598Y-61740185D01*
X126553353Y-61792989D01*
X126563297Y-61862147D01*
X126549995Y-61900578D01*
X126550462Y-61900786D01*
X126548045Y-61906213D01*
X126547946Y-61906500D01*
X126547821Y-61906715D01*
X126547818Y-61906722D01*
X126504883Y-62038864D01*
X126489326Y-62086744D01*
X126469540Y-62275000D01*
X126489326Y-62463256D01*
X126489327Y-62463259D01*
X126547818Y-62643277D01*
X126547821Y-62643284D01*
X126642467Y-62807216D01*
X126769129Y-62947888D01*
X126922265Y-63059148D01*
X126922270Y-63059151D01*
X127095192Y-63136142D01*
X127095197Y-63136144D01*
X127280354Y-63175500D01*
X127280355Y-63175500D01*
X127469644Y-63175500D01*
X127469646Y-63175500D01*
X127599381Y-63147924D01*
X127669046Y-63153240D01*
X127698038Y-63168892D01*
X127805778Y-63247169D01*
X127822270Y-63259151D01*
X127995192Y-63336142D01*
X127995197Y-63336144D01*
X128180354Y-63375500D01*
X128180355Y-63375500D01*
X128369644Y-63375500D01*
X128369646Y-63375500D01*
X128554803Y-63336144D01*
X128727730Y-63259151D01*
X128880871Y-63147888D01*
X129007533Y-63007216D01*
X129102179Y-62843284D01*
X129160674Y-62663256D01*
X129180460Y-62475000D01*
X129160674Y-62286744D01*
X129102179Y-62106716D01*
X129007533Y-61942784D01*
X128993746Y-61927472D01*
X128963516Y-61864480D01*
X128972141Y-61795145D01*
X129016883Y-61741480D01*
X129083535Y-61720522D01*
X129085896Y-61720500D01*
X143785500Y-61720500D01*
X143852539Y-61740185D01*
X143898294Y-61792989D01*
X143909500Y-61844500D01*
X143909500Y-119460500D01*
X143889815Y-119527539D01*
X143837011Y-119573294D01*
X143785500Y-119584500D01*
X113659500Y-119584500D01*
X72008903Y-119570043D01*
X71941870Y-119550335D01*
X71896134Y-119497515D01*
X71884946Y-119446097D01*
X71884574Y-118585063D01*
X71884363Y-118097870D01*
X111674500Y-118097870D01*
X111674501Y-118097876D01*
X111680908Y-118157483D01*
X111731202Y-118292328D01*
X111731206Y-118292335D01*
X111817452Y-118407544D01*
X111817455Y-118407547D01*
X111932664Y-118493793D01*
X111932671Y-118493797D01*
X112067517Y-118544091D01*
X112067516Y-118544091D01*
X112074444Y-118544835D01*
X112127127Y-118550500D01*
X113922872Y-118550499D01*
X113982483Y-118544091D01*
X114117331Y-118493796D01*
X114232546Y-118407546D01*
X114318796Y-118292331D01*
X114367810Y-118160916D01*
X114409681Y-118104984D01*
X114475145Y-118080566D01*
X114543418Y-118095417D01*
X114571673Y-118116569D01*
X114693599Y-118238495D01*
X114790384Y-118306265D01*
X114887165Y-118374032D01*
X114887167Y-118374033D01*
X114887170Y-118374035D01*
X115101337Y-118473903D01*
X115329592Y-118535063D01*
X115506034Y-118550500D01*
X115564999Y-118555659D01*
X115565000Y-118555659D01*
X115565001Y-118555659D01*
X115623966Y-118550500D01*
X115800408Y-118535063D01*
X116028663Y-118473903D01*
X116242830Y-118374035D01*
X116436401Y-118238495D01*
X116527026Y-118147870D01*
X119199500Y-118147870D01*
X119199501Y-118147876D01*
X119205908Y-118207483D01*
X119256202Y-118342328D01*
X119256206Y-118342335D01*
X119342452Y-118457544D01*
X119342455Y-118457547D01*
X119457664Y-118543793D01*
X119457671Y-118543797D01*
X119592517Y-118594091D01*
X119592516Y-118594091D01*
X119599444Y-118594835D01*
X119652127Y-118600500D01*
X121447872Y-118600499D01*
X121507483Y-118594091D01*
X121642331Y-118543796D01*
X121757546Y-118457546D01*
X121843796Y-118342331D01*
X121892810Y-118210916D01*
X121934681Y-118154984D01*
X122000145Y-118130566D01*
X122068418Y-118145417D01*
X122096673Y-118166569D01*
X122218599Y-118288495D01*
X122315384Y-118356265D01*
X122412165Y-118424032D01*
X122412167Y-118424033D01*
X122412170Y-118424035D01*
X122626337Y-118523903D01*
X122854592Y-118585063D01*
X123031034Y-118600500D01*
X123089999Y-118605659D01*
X123090000Y-118605659D01*
X123090001Y-118605659D01*
X123148966Y-118600500D01*
X123325408Y-118585063D01*
X123553663Y-118523903D01*
X123767830Y-118424035D01*
X123961401Y-118288495D01*
X124128495Y-118121401D01*
X124264035Y-117927830D01*
X124363903Y-117713663D01*
X124425063Y-117485408D01*
X124445659Y-117250000D01*
X124425063Y-117014592D01*
X124379622Y-116845000D01*
X131279540Y-116845000D01*
X131299326Y-117033256D01*
X131299327Y-117033259D01*
X131357818Y-117213277D01*
X131357821Y-117213284D01*
X131452467Y-117377216D01*
X131504868Y-117435413D01*
X131579129Y-117517888D01*
X131732265Y-117629148D01*
X131732270Y-117629151D01*
X131905192Y-117706142D01*
X131905197Y-117706144D01*
X132090354Y-117745500D01*
X132090355Y-117745500D01*
X132279644Y-117745500D01*
X132279646Y-117745500D01*
X132464803Y-117706144D01*
X132637730Y-117629151D01*
X132790871Y-117517888D01*
X132917533Y-117377216D01*
X133012179Y-117213284D01*
X133070674Y-117033256D01*
X133087832Y-116870000D01*
X133929540Y-116870000D01*
X133949326Y-117058256D01*
X133949327Y-117058259D01*
X134007818Y-117238277D01*
X134007821Y-117238284D01*
X134102467Y-117402216D01*
X134132358Y-117435413D01*
X134229129Y-117542888D01*
X134382265Y-117654148D01*
X134382270Y-117654151D01*
X134555192Y-117731142D01*
X134555197Y-117731144D01*
X134740354Y-117770500D01*
X134740355Y-117770500D01*
X134929644Y-117770500D01*
X134929646Y-117770500D01*
X135114803Y-117731144D01*
X135287730Y-117654151D01*
X135440871Y-117542888D01*
X135567533Y-117402216D01*
X135662179Y-117238284D01*
X135720674Y-117058256D01*
X135740460Y-116870000D01*
X135720674Y-116681744D01*
X135662179Y-116501716D01*
X135567533Y-116337784D01*
X135440871Y-116197112D01*
X135440870Y-116197111D01*
X135287734Y-116085851D01*
X135287729Y-116085848D01*
X135114807Y-116008857D01*
X135114802Y-116008855D01*
X134960687Y-115976098D01*
X134929646Y-115969500D01*
X134740354Y-115969500D01*
X134709331Y-115976094D01*
X134555197Y-116008855D01*
X134555192Y-116008857D01*
X134382270Y-116085848D01*
X134382265Y-116085851D01*
X134229129Y-116197111D01*
X134102466Y-116337785D01*
X134007821Y-116501715D01*
X134007818Y-116501722D01*
X133957450Y-116656740D01*
X133949326Y-116681744D01*
X133929540Y-116870000D01*
X133087832Y-116870000D01*
X133090460Y-116845000D01*
X133070674Y-116656744D01*
X133012179Y-116476716D01*
X132917533Y-116312784D01*
X132790871Y-116172112D01*
X132776269Y-116161503D01*
X132637734Y-116060851D01*
X132637729Y-116060848D01*
X132464807Y-115983857D01*
X132464802Y-115983855D01*
X132319001Y-115952865D01*
X132279646Y-115944500D01*
X132090354Y-115944500D01*
X132057897Y-115951398D01*
X131905197Y-115983855D01*
X131905192Y-115983857D01*
X131732270Y-116060848D01*
X131732265Y-116060851D01*
X131579129Y-116172111D01*
X131452466Y-116312785D01*
X131357821Y-116476715D01*
X131357818Y-116476722D01*
X131299327Y-116656740D01*
X131299326Y-116656744D01*
X131279540Y-116845000D01*
X124379622Y-116845000D01*
X124363903Y-116786337D01*
X124264035Y-116572171D01*
X124263981Y-116572093D01*
X124128494Y-116378597D01*
X123961402Y-116211506D01*
X123961395Y-116211501D01*
X123767834Y-116075967D01*
X123767830Y-116075965D01*
X123735414Y-116060849D01*
X123553663Y-115976097D01*
X123553659Y-115976096D01*
X123553655Y-115976094D01*
X123325413Y-115914938D01*
X123325403Y-115914936D01*
X123090001Y-115894341D01*
X123089999Y-115894341D01*
X122854596Y-115914936D01*
X122854586Y-115914938D01*
X122626344Y-115976094D01*
X122626335Y-115976098D01*
X122412171Y-116075964D01*
X122412169Y-116075965D01*
X122218600Y-116211503D01*
X122096673Y-116333430D01*
X122035350Y-116366914D01*
X121965658Y-116361930D01*
X121909725Y-116320058D01*
X121892810Y-116289081D01*
X121843797Y-116157671D01*
X121843793Y-116157664D01*
X121757547Y-116042455D01*
X121757544Y-116042452D01*
X121642335Y-115956206D01*
X121642328Y-115956202D01*
X121507482Y-115905908D01*
X121507483Y-115905908D01*
X121447883Y-115899501D01*
X121447881Y-115899500D01*
X121447873Y-115899500D01*
X121447864Y-115899500D01*
X119652129Y-115899500D01*
X119652123Y-115899501D01*
X119592516Y-115905908D01*
X119457671Y-115956202D01*
X119457664Y-115956206D01*
X119342455Y-116042452D01*
X119342452Y-116042455D01*
X119256206Y-116157664D01*
X119256202Y-116157671D01*
X119205908Y-116292517D01*
X119199501Y-116352116D01*
X119199500Y-116352135D01*
X119199500Y-118147870D01*
X116527026Y-118147870D01*
X116603495Y-118071401D01*
X116739035Y-117877830D01*
X116838903Y-117663663D01*
X116900063Y-117435408D01*
X116920659Y-117200000D01*
X116900063Y-116964592D01*
X116838903Y-116736337D01*
X116739035Y-116522171D01*
X116724713Y-116501716D01*
X116603494Y-116328597D01*
X116436402Y-116161506D01*
X116436395Y-116161501D01*
X116430922Y-116157669D01*
X116382964Y-116124088D01*
X116242834Y-116025967D01*
X116242830Y-116025965D01*
X116206140Y-116008856D01*
X116028663Y-115926097D01*
X116028659Y-115926096D01*
X116028655Y-115926094D01*
X115800413Y-115864938D01*
X115800403Y-115864936D01*
X115565001Y-115844341D01*
X115564999Y-115844341D01*
X115329596Y-115864936D01*
X115329586Y-115864938D01*
X115101344Y-115926094D01*
X115101335Y-115926098D01*
X114887171Y-116025964D01*
X114887169Y-116025965D01*
X114693600Y-116161503D01*
X114571673Y-116283430D01*
X114510350Y-116316914D01*
X114440658Y-116311930D01*
X114384725Y-116270058D01*
X114367810Y-116239081D01*
X114318797Y-116107671D01*
X114318793Y-116107664D01*
X114232547Y-115992455D01*
X114232544Y-115992452D01*
X114117335Y-115906206D01*
X114117328Y-115906202D01*
X113982482Y-115855908D01*
X113982483Y-115855908D01*
X113922883Y-115849501D01*
X113922881Y-115849500D01*
X113922873Y-115849500D01*
X113922864Y-115849500D01*
X112127129Y-115849500D01*
X112127123Y-115849501D01*
X112067516Y-115855908D01*
X111932671Y-115906202D01*
X111932664Y-115906206D01*
X111817455Y-115992452D01*
X111817452Y-115992455D01*
X111731206Y-116107664D01*
X111731202Y-116107671D01*
X111680908Y-116242517D01*
X111674501Y-116302116D01*
X111674500Y-116302135D01*
X111674500Y-118097870D01*
X71884363Y-118097870D01*
X71884160Y-117627870D01*
X94309500Y-117627870D01*
X94309501Y-117627876D01*
X94315908Y-117687483D01*
X94366202Y-117822328D01*
X94366206Y-117822335D01*
X94452452Y-117937544D01*
X94452455Y-117937547D01*
X94567664Y-118023793D01*
X94567671Y-118023797D01*
X94702517Y-118074091D01*
X94702516Y-118074091D01*
X94709444Y-118074835D01*
X94762127Y-118080500D01*
X96557872Y-118080499D01*
X96617483Y-118074091D01*
X96752331Y-118023796D01*
X96867546Y-117937546D01*
X96953796Y-117822331D01*
X97002810Y-117690916D01*
X97044681Y-117634984D01*
X97110145Y-117610566D01*
X97178418Y-117625417D01*
X97206673Y-117646569D01*
X97328599Y-117768495D01*
X97425384Y-117836265D01*
X97522165Y-117904032D01*
X97522167Y-117904033D01*
X97522170Y-117904035D01*
X97736337Y-118003903D01*
X97736343Y-118003904D01*
X97736344Y-118003905D01*
X97773262Y-118013797D01*
X97964592Y-118065063D01*
X98141034Y-118080500D01*
X98199999Y-118085659D01*
X98200000Y-118085659D01*
X98200001Y-118085659D01*
X98239234Y-118082226D01*
X98435408Y-118065063D01*
X98663663Y-118003903D01*
X98877830Y-117904035D01*
X99071401Y-117768495D01*
X99222026Y-117617870D01*
X100454500Y-117617870D01*
X100454501Y-117617876D01*
X100460908Y-117677483D01*
X100511202Y-117812328D01*
X100511206Y-117812335D01*
X100597452Y-117927544D01*
X100597455Y-117927547D01*
X100712664Y-118013793D01*
X100712671Y-118013797D01*
X100847517Y-118064091D01*
X100847516Y-118064091D01*
X100854444Y-118064835D01*
X100907127Y-118070500D01*
X102702872Y-118070499D01*
X102762483Y-118064091D01*
X102897331Y-118013796D01*
X103012546Y-117927546D01*
X103098796Y-117812331D01*
X103147810Y-117680916D01*
X103189681Y-117624984D01*
X103255145Y-117600566D01*
X103323418Y-117615417D01*
X103351673Y-117636569D01*
X103473599Y-117758495D01*
X103564762Y-117822328D01*
X103667165Y-117894032D01*
X103667167Y-117894033D01*
X103667170Y-117894035D01*
X103881337Y-117993903D01*
X104109592Y-118055063D01*
X104286034Y-118070500D01*
X104344999Y-118075659D01*
X104345000Y-118075659D01*
X104345001Y-118075659D01*
X104384234Y-118072226D01*
X104580408Y-118055063D01*
X104808663Y-117993903D01*
X105022830Y-117894035D01*
X105216401Y-117758495D01*
X105383495Y-117591401D01*
X105519035Y-117397830D01*
X105618903Y-117183663D01*
X105680063Y-116955408D01*
X105700659Y-116720000D01*
X105699949Y-116711890D01*
X105687725Y-116572169D01*
X105680063Y-116484592D01*
X105627677Y-116289081D01*
X105618905Y-116256344D01*
X105618904Y-116256343D01*
X105618903Y-116256337D01*
X105519035Y-116042171D01*
X105507688Y-116025965D01*
X105383494Y-115848597D01*
X105216402Y-115681506D01*
X105216395Y-115681501D01*
X105089665Y-115592763D01*
X137895787Y-115592763D01*
X137925413Y-115862013D01*
X137925415Y-115862024D01*
X137989636Y-116107671D01*
X137993928Y-116124088D01*
X138099870Y-116373390D01*
X138221185Y-116572171D01*
X138240979Y-116604605D01*
X138240986Y-116604615D01*
X138414253Y-116812819D01*
X138414259Y-116812824D01*
X138573388Y-116955403D01*
X138615998Y-116993582D01*
X138841910Y-117143044D01*
X139087176Y-117258020D01*
X139087183Y-117258022D01*
X139087185Y-117258023D01*
X139346557Y-117336057D01*
X139346564Y-117336058D01*
X139346569Y-117336060D01*
X139614561Y-117375500D01*
X139614566Y-117375500D01*
X139817629Y-117375500D01*
X139817631Y-117375500D01*
X139817636Y-117375499D01*
X139817648Y-117375499D01*
X139855191Y-117372750D01*
X140020156Y-117360677D01*
X140132758Y-117335593D01*
X140284546Y-117301782D01*
X140284548Y-117301781D01*
X140284553Y-117301780D01*
X140537558Y-117205014D01*
X140773777Y-117072441D01*
X140988177Y-116906888D01*
X141176186Y-116711881D01*
X141333799Y-116491579D01*
X141431199Y-116302135D01*
X141457649Y-116250690D01*
X141457651Y-116250684D01*
X141457656Y-116250675D01*
X141540154Y-116008855D01*
X141545115Y-115994314D01*
X141545115Y-115994313D01*
X141545118Y-115994305D01*
X141594319Y-115727933D01*
X141604212Y-115457235D01*
X141574586Y-115187982D01*
X141506072Y-114925912D01*
X141400130Y-114676610D01*
X141259018Y-114445390D01*
X141169747Y-114338119D01*
X141085746Y-114237180D01*
X141085740Y-114237175D01*
X140884002Y-114056418D01*
X140658092Y-113906957D01*
X140658090Y-113906956D01*
X140412824Y-113791980D01*
X140412819Y-113791978D01*
X140412814Y-113791976D01*
X140153442Y-113713942D01*
X140153428Y-113713939D01*
X140037791Y-113696921D01*
X139885439Y-113674500D01*
X139682369Y-113674500D01*
X139682351Y-113674500D01*
X139479844Y-113689323D01*
X139479831Y-113689325D01*
X139215453Y-113748217D01*
X139215446Y-113748220D01*
X138962439Y-113844987D01*
X138726226Y-113977557D01*
X138511822Y-114143112D01*
X138323822Y-114338109D01*
X138323816Y-114338116D01*
X138166202Y-114558419D01*
X138166199Y-114558424D01*
X138042350Y-114799309D01*
X138042343Y-114799327D01*
X137954884Y-115055685D01*
X137954881Y-115055699D01*
X137905681Y-115322068D01*
X137905680Y-115322075D01*
X137895787Y-115592763D01*
X105089665Y-115592763D01*
X105022834Y-115545967D01*
X105022830Y-115545965D01*
X104972413Y-115522455D01*
X104808663Y-115446097D01*
X104808659Y-115446096D01*
X104808655Y-115446094D01*
X104580413Y-115384938D01*
X104580403Y-115384936D01*
X104345001Y-115364341D01*
X104344999Y-115364341D01*
X104109596Y-115384936D01*
X104109586Y-115384938D01*
X103881344Y-115446094D01*
X103881335Y-115446098D01*
X103667171Y-115545964D01*
X103667169Y-115545965D01*
X103473600Y-115681503D01*
X103351673Y-115803430D01*
X103290350Y-115836914D01*
X103220658Y-115831930D01*
X103164725Y-115790058D01*
X103147810Y-115759081D01*
X103098797Y-115627671D01*
X103098793Y-115627664D01*
X103012547Y-115512455D01*
X103012544Y-115512452D01*
X102897335Y-115426206D01*
X102897328Y-115426202D01*
X102762482Y-115375908D01*
X102762483Y-115375908D01*
X102702883Y-115369501D01*
X102702881Y-115369500D01*
X102702873Y-115369500D01*
X102702864Y-115369500D01*
X100907129Y-115369500D01*
X100907123Y-115369501D01*
X100847516Y-115375908D01*
X100712671Y-115426202D01*
X100712664Y-115426206D01*
X100597455Y-115512452D01*
X100597452Y-115512455D01*
X100511206Y-115627664D01*
X100511202Y-115627671D01*
X100460908Y-115762517D01*
X100454501Y-115822116D01*
X100454500Y-115822135D01*
X100454500Y-117617870D01*
X99222026Y-117617870D01*
X99238495Y-117601401D01*
X99374035Y-117407830D01*
X99473903Y-117193663D01*
X99535063Y-116965408D01*
X99555659Y-116730000D01*
X99535063Y-116494592D01*
X99473903Y-116266337D01*
X99374035Y-116052171D01*
X99367232Y-116042454D01*
X99238494Y-115858597D01*
X99071402Y-115691506D01*
X99071395Y-115691501D01*
X99057119Y-115681505D01*
X98994518Y-115637671D01*
X98877834Y-115555967D01*
X98877830Y-115555965D01*
X98808322Y-115523553D01*
X98663663Y-115456097D01*
X98663659Y-115456096D01*
X98663655Y-115456094D01*
X98435413Y-115394938D01*
X98435403Y-115394936D01*
X98200001Y-115374341D01*
X98199999Y-115374341D01*
X97964596Y-115394936D01*
X97964586Y-115394938D01*
X97736344Y-115456094D01*
X97736335Y-115456098D01*
X97522171Y-115555964D01*
X97522169Y-115555965D01*
X97328600Y-115691503D01*
X97206673Y-115813430D01*
X97145350Y-115846914D01*
X97075658Y-115841930D01*
X97019725Y-115800058D01*
X97002810Y-115769081D01*
X96953797Y-115637671D01*
X96953793Y-115637664D01*
X96867547Y-115522455D01*
X96867544Y-115522452D01*
X96752335Y-115436206D01*
X96752328Y-115436202D01*
X96617482Y-115385908D01*
X96617483Y-115385908D01*
X96557883Y-115379501D01*
X96557881Y-115379500D01*
X96557873Y-115379500D01*
X96557864Y-115379500D01*
X94762129Y-115379500D01*
X94762123Y-115379501D01*
X94702516Y-115385908D01*
X94567671Y-115436202D01*
X94567664Y-115436206D01*
X94452455Y-115522452D01*
X94452452Y-115522455D01*
X94366206Y-115637664D01*
X94366202Y-115637671D01*
X94315908Y-115772517D01*
X94309501Y-115832116D01*
X94309500Y-115832135D01*
X94309500Y-117627870D01*
X71884160Y-117627870D01*
X71883281Y-115592763D01*
X73895787Y-115592763D01*
X73925413Y-115862013D01*
X73925415Y-115862024D01*
X73989636Y-116107671D01*
X73993928Y-116124088D01*
X74099870Y-116373390D01*
X74221185Y-116572171D01*
X74240979Y-116604605D01*
X74240986Y-116604615D01*
X74414253Y-116812819D01*
X74414259Y-116812824D01*
X74573388Y-116955403D01*
X74615998Y-116993582D01*
X74841910Y-117143044D01*
X75087176Y-117258020D01*
X75087183Y-117258022D01*
X75087185Y-117258023D01*
X75346557Y-117336057D01*
X75346564Y-117336058D01*
X75346569Y-117336060D01*
X75614561Y-117375500D01*
X75614566Y-117375500D01*
X75817629Y-117375500D01*
X75817631Y-117375500D01*
X75817636Y-117375499D01*
X75817648Y-117375499D01*
X75855191Y-117372750D01*
X76020156Y-117360677D01*
X76132758Y-117335593D01*
X76284546Y-117301782D01*
X76284548Y-117301781D01*
X76284553Y-117301780D01*
X76537558Y-117205014D01*
X76773777Y-117072441D01*
X76988177Y-116906888D01*
X77176186Y-116711881D01*
X77333799Y-116491579D01*
X77431199Y-116302135D01*
X77457649Y-116250690D01*
X77457651Y-116250684D01*
X77457656Y-116250675D01*
X77540154Y-116008855D01*
X77545115Y-115994314D01*
X77545115Y-115994313D01*
X77545118Y-115994305D01*
X77594319Y-115727933D01*
X77604212Y-115457235D01*
X77574586Y-115187982D01*
X77569885Y-115170001D01*
X82530274Y-115170001D01*
X82549152Y-115433960D01*
X82605400Y-115692528D01*
X82697884Y-115940487D01*
X82824701Y-116172735D01*
X82824706Y-116172743D01*
X82912038Y-116289406D01*
X82912039Y-116289406D01*
X83594409Y-115607036D01*
X83601284Y-115622478D01*
X83712486Y-115775534D01*
X83853080Y-115902126D01*
X83950297Y-115958254D01*
X83265592Y-116642959D01*
X83265593Y-116642960D01*
X83382256Y-116730293D01*
X83382264Y-116730298D01*
X83614513Y-116857115D01*
X83614512Y-116857115D01*
X83862471Y-116949599D01*
X84121039Y-117005847D01*
X84384999Y-117024726D01*
X84385001Y-117024726D01*
X84648960Y-117005847D01*
X84907528Y-116949599D01*
X85155487Y-116857115D01*
X85387735Y-116730298D01*
X85387736Y-116730297D01*
X85504406Y-116642959D01*
X84819702Y-115958254D01*
X84916920Y-115902126D01*
X85057514Y-115775534D01*
X85168716Y-115622479D01*
X85175590Y-115607037D01*
X85857959Y-116289406D01*
X85945297Y-116172736D01*
X85945298Y-116172735D01*
X86072115Y-115940487D01*
X86164599Y-115692528D01*
X86220847Y-115433960D01*
X86239726Y-115170001D01*
X87529773Y-115170001D01*
X87548657Y-115434027D01*
X87548658Y-115434034D01*
X87604921Y-115692673D01*
X87697426Y-115940690D01*
X87697428Y-115940694D01*
X87824280Y-116173005D01*
X87824285Y-116173013D01*
X87982906Y-116384907D01*
X87982922Y-116384925D01*
X88170074Y-116572077D01*
X88170092Y-116572093D01*
X88381986Y-116730714D01*
X88381994Y-116730719D01*
X88614305Y-116857571D01*
X88614309Y-116857573D01*
X88614311Y-116857574D01*
X88862322Y-116950077D01*
X88862325Y-116950077D01*
X88862326Y-116950078D01*
X89057552Y-116992546D01*
X89120974Y-117006343D01*
X89364660Y-117023772D01*
X89384999Y-117025227D01*
X89385000Y-117025227D01*
X89385001Y-117025227D01*
X89403885Y-117023876D01*
X89649026Y-117006343D01*
X89907678Y-116950077D01*
X90155689Y-116857574D01*
X90388011Y-116730716D01*
X90599915Y-116572087D01*
X90787087Y-116384915D01*
X90945716Y-116173011D01*
X91072574Y-115940689D01*
X91165077Y-115692678D01*
X91221343Y-115434026D01*
X91240227Y-115170000D01*
X91221343Y-114905974D01*
X91201867Y-114816446D01*
X91165078Y-114647326D01*
X91131919Y-114558424D01*
X91072574Y-114399311D01*
X91039160Y-114338119D01*
X90945719Y-114166994D01*
X90945714Y-114166986D01*
X90787093Y-113955092D01*
X90787077Y-113955074D01*
X90599925Y-113767922D01*
X90599907Y-113767906D01*
X90388013Y-113609285D01*
X90388005Y-113609280D01*
X90155694Y-113482428D01*
X90155690Y-113482426D01*
X89907673Y-113389921D01*
X89649034Y-113333658D01*
X89649027Y-113333657D01*
X89385001Y-113314773D01*
X89384999Y-113314773D01*
X89120972Y-113333657D01*
X89120965Y-113333658D01*
X88862326Y-113389921D01*
X88614309Y-113482426D01*
X88614305Y-113482428D01*
X88381994Y-113609280D01*
X88381986Y-113609285D01*
X88170092Y-113767906D01*
X88170074Y-113767922D01*
X87982922Y-113955074D01*
X87982906Y-113955092D01*
X87824285Y-114166986D01*
X87824280Y-114166994D01*
X87697428Y-114399305D01*
X87697426Y-114399309D01*
X87604921Y-114647326D01*
X87548658Y-114905965D01*
X87548657Y-114905972D01*
X87529773Y-115169998D01*
X87529773Y-115170001D01*
X86239726Y-115170001D01*
X86239726Y-115169998D01*
X86220847Y-114906039D01*
X86164599Y-114647471D01*
X86072115Y-114399512D01*
X85945298Y-114167264D01*
X85945293Y-114167256D01*
X85857960Y-114050593D01*
X85857959Y-114050592D01*
X85175590Y-114732961D01*
X85168716Y-114717522D01*
X85057514Y-114564466D01*
X84916920Y-114437874D01*
X84819701Y-114381745D01*
X85504406Y-113697039D01*
X85504406Y-113697038D01*
X85387743Y-113609706D01*
X85387735Y-113609701D01*
X85155486Y-113482884D01*
X85155487Y-113482884D01*
X84907528Y-113390400D01*
X84648960Y-113334152D01*
X84385001Y-113315274D01*
X84384999Y-113315274D01*
X84121039Y-113334152D01*
X83862471Y-113390400D01*
X83614512Y-113482884D01*
X83382264Y-113609701D01*
X83265593Y-113697039D01*
X83950298Y-114381744D01*
X83853080Y-114437874D01*
X83712486Y-114564466D01*
X83601284Y-114717521D01*
X83594408Y-114732962D01*
X82912039Y-114050593D01*
X82824701Y-114167264D01*
X82697884Y-114399512D01*
X82605400Y-114647471D01*
X82549152Y-114906039D01*
X82530274Y-115169998D01*
X82530274Y-115170001D01*
X77569885Y-115170001D01*
X77506072Y-114925912D01*
X77400130Y-114676610D01*
X77259018Y-114445390D01*
X77169747Y-114338119D01*
X77085746Y-114237180D01*
X77085740Y-114237175D01*
X76884002Y-114056418D01*
X76658092Y-113906957D01*
X76658090Y-113906956D01*
X76412824Y-113791980D01*
X76412819Y-113791978D01*
X76412814Y-113791976D01*
X76153442Y-113713942D01*
X76153428Y-113713939D01*
X76037791Y-113696921D01*
X75885439Y-113674500D01*
X75682369Y-113674500D01*
X75682351Y-113674500D01*
X75479844Y-113689323D01*
X75479831Y-113689325D01*
X75215453Y-113748217D01*
X75215446Y-113748220D01*
X74962439Y-113844987D01*
X74726226Y-113977557D01*
X74511822Y-114143112D01*
X74323822Y-114338109D01*
X74323816Y-114338116D01*
X74166202Y-114558419D01*
X74166199Y-114558424D01*
X74042350Y-114799309D01*
X74042343Y-114799327D01*
X73954884Y-115055685D01*
X73954881Y-115055699D01*
X73905681Y-115322068D01*
X73905680Y-115322075D01*
X73895787Y-115592763D01*
X71883281Y-115592763D01*
X71881850Y-112280006D01*
X106269700Y-112280006D01*
X106288864Y-112511297D01*
X106288866Y-112511308D01*
X106345842Y-112736300D01*
X106439075Y-112948848D01*
X106566016Y-113143147D01*
X106566019Y-113143151D01*
X106566021Y-113143153D01*
X106723216Y-113313913D01*
X106723219Y-113313915D01*
X106723222Y-113313918D01*
X106906365Y-113456464D01*
X106906371Y-113456468D01*
X106906374Y-113456470D01*
X107110497Y-113566936D01*
X107217858Y-113603793D01*
X107330015Y-113642297D01*
X107330017Y-113642297D01*
X107330019Y-113642298D01*
X107558951Y-113680500D01*
X107558952Y-113680500D01*
X107791048Y-113680500D01*
X107791049Y-113680500D01*
X108019981Y-113642298D01*
X108239503Y-113566936D01*
X108443626Y-113456470D01*
X108626784Y-113313913D01*
X108724403Y-113207870D01*
X112674500Y-113207870D01*
X112674501Y-113207876D01*
X112680908Y-113267483D01*
X112731202Y-113402328D01*
X112731206Y-113402335D01*
X112817452Y-113517544D01*
X112817455Y-113517547D01*
X112932664Y-113603793D01*
X112932671Y-113603797D01*
X113067517Y-113654091D01*
X113067516Y-113654091D01*
X113074444Y-113654835D01*
X113127127Y-113660500D01*
X115022872Y-113660499D01*
X115082483Y-113654091D01*
X115217331Y-113603796D01*
X115332546Y-113517546D01*
X115418796Y-113402331D01*
X115469091Y-113267483D01*
X115475500Y-113207873D01*
X115475499Y-111312128D01*
X115469091Y-111252517D01*
X115465647Y-111243284D01*
X115418797Y-111117671D01*
X115418793Y-111117664D01*
X115332547Y-111002455D01*
X115332544Y-111002452D01*
X115217335Y-110916206D01*
X115217328Y-110916202D01*
X115106859Y-110875000D01*
X119644540Y-110875000D01*
X119664326Y-111063256D01*
X119664327Y-111063259D01*
X119722818Y-111243277D01*
X119722821Y-111243284D01*
X119817467Y-111407216D01*
X119944129Y-111547888D01*
X120097265Y-111659148D01*
X120097270Y-111659151D01*
X120270192Y-111736142D01*
X120270197Y-111736144D01*
X120455354Y-111775500D01*
X120455355Y-111775500D01*
X120644644Y-111775500D01*
X120644646Y-111775500D01*
X120829803Y-111736144D01*
X121002730Y-111659151D01*
X121155871Y-111547888D01*
X121282533Y-111407216D01*
X121377179Y-111243284D01*
X121435674Y-111063256D01*
X121455460Y-110875000D01*
X121435674Y-110686744D01*
X121377179Y-110506716D01*
X121282533Y-110342784D01*
X121155871Y-110202112D01*
X121155870Y-110202111D01*
X121002734Y-110090851D01*
X121002729Y-110090848D01*
X120829807Y-110013857D01*
X120829802Y-110013855D01*
X120684001Y-109982865D01*
X120644646Y-109974500D01*
X120455354Y-109974500D01*
X120422897Y-109981398D01*
X120270197Y-110013855D01*
X120270192Y-110013857D01*
X120097270Y-110090848D01*
X120097265Y-110090851D01*
X119944129Y-110202111D01*
X119817466Y-110342785D01*
X119722821Y-110506715D01*
X119722818Y-110506722D01*
X119664327Y-110686740D01*
X119664326Y-110686744D01*
X119644540Y-110875000D01*
X115106859Y-110875000D01*
X115082482Y-110865908D01*
X115082483Y-110865908D01*
X115022883Y-110859501D01*
X115022881Y-110859500D01*
X115022873Y-110859500D01*
X115022864Y-110859500D01*
X113127129Y-110859500D01*
X113127123Y-110859501D01*
X113067516Y-110865908D01*
X112932671Y-110916202D01*
X112932664Y-110916206D01*
X112817455Y-111002452D01*
X112817452Y-111002455D01*
X112731206Y-111117664D01*
X112731202Y-111117671D01*
X112680908Y-111252517D01*
X112674501Y-111312116D01*
X112674501Y-111312123D01*
X112674500Y-111312135D01*
X112674500Y-113207870D01*
X108724403Y-113207870D01*
X108783979Y-113143153D01*
X108910924Y-112948849D01*
X109004157Y-112736300D01*
X109061134Y-112511305D01*
X109080300Y-112280000D01*
X109080300Y-112279993D01*
X109061135Y-112048702D01*
X109061133Y-112048691D01*
X109004157Y-111823699D01*
X108910924Y-111611151D01*
X108783983Y-111416852D01*
X108783980Y-111416849D01*
X108783979Y-111416847D01*
X108626784Y-111246087D01*
X108626779Y-111246083D01*
X108626777Y-111246081D01*
X108443634Y-111103535D01*
X108443628Y-111103531D01*
X108239504Y-110993064D01*
X108239495Y-110993061D01*
X108019984Y-110917702D01*
X107848282Y-110889050D01*
X107791049Y-110879500D01*
X107558951Y-110879500D01*
X107513164Y-110887140D01*
X107330015Y-110917702D01*
X107110504Y-110993061D01*
X107110495Y-110993064D01*
X106906371Y-111103531D01*
X106906365Y-111103535D01*
X106723222Y-111246081D01*
X106723219Y-111246084D01*
X106566016Y-111416852D01*
X106439075Y-111611151D01*
X106345842Y-111823699D01*
X106288866Y-112048691D01*
X106288864Y-112048702D01*
X106269700Y-112279993D01*
X106269700Y-112280006D01*
X71881850Y-112280006D01*
X71879354Y-106500000D01*
X101944540Y-106500000D01*
X101964326Y-106688256D01*
X101964327Y-106688259D01*
X102022818Y-106868277D01*
X102022821Y-106868284D01*
X102117467Y-107032216D01*
X102244129Y-107172888D01*
X102397265Y-107284148D01*
X102397270Y-107284151D01*
X102570192Y-107361142D01*
X102570197Y-107361144D01*
X102755354Y-107400500D01*
X102755355Y-107400500D01*
X102944644Y-107400500D01*
X102944646Y-107400500D01*
X103129803Y-107361144D01*
X103302730Y-107284151D01*
X103418546Y-107200006D01*
X106269700Y-107200006D01*
X106288864Y-107431297D01*
X106288866Y-107431308D01*
X106345842Y-107656300D01*
X106439075Y-107868848D01*
X106566016Y-108063147D01*
X106566019Y-108063151D01*
X106566021Y-108063153D01*
X106723216Y-108233913D01*
X106723219Y-108233915D01*
X106723222Y-108233918D01*
X106906365Y-108376464D01*
X106906371Y-108376468D01*
X106906374Y-108376470D01*
X107110497Y-108486936D01*
X107224487Y-108526068D01*
X107330015Y-108562297D01*
X107330017Y-108562297D01*
X107330019Y-108562298D01*
X107558951Y-108600500D01*
X107558952Y-108600500D01*
X107791048Y-108600500D01*
X107791049Y-108600500D01*
X108019981Y-108562298D01*
X108239503Y-108486936D01*
X108443626Y-108376470D01*
X108626784Y-108233913D01*
X108783979Y-108063153D01*
X108910924Y-107868849D01*
X109004157Y-107656300D01*
X109061134Y-107431305D01*
X109062791Y-107411308D01*
X109080300Y-107200006D01*
X109080300Y-107199993D01*
X109078644Y-107180006D01*
X112669700Y-107180006D01*
X112688864Y-107411297D01*
X112688866Y-107411308D01*
X112745842Y-107636300D01*
X112839075Y-107848848D01*
X112966016Y-108043147D01*
X112966019Y-108043151D01*
X112966021Y-108043153D01*
X113123216Y-108213913D01*
X113123219Y-108213915D01*
X113123222Y-108213918D01*
X113306365Y-108356464D01*
X113306371Y-108356468D01*
X113306374Y-108356470D01*
X113510497Y-108466936D01*
X113568761Y-108486938D01*
X113730015Y-108542297D01*
X113730017Y-108542297D01*
X113730019Y-108542298D01*
X113958951Y-108580500D01*
X113958952Y-108580500D01*
X114191048Y-108580500D01*
X114191049Y-108580500D01*
X114419981Y-108542298D01*
X114639503Y-108466936D01*
X114843626Y-108356470D01*
X115026784Y-108213913D01*
X115183979Y-108043153D01*
X115310924Y-107848849D01*
X115404157Y-107636300D01*
X115461134Y-107411305D01*
X115461135Y-107411297D01*
X115480300Y-107180006D01*
X115480300Y-107179993D01*
X115461135Y-106948702D01*
X115461133Y-106948691D01*
X115404157Y-106723699D01*
X115310924Y-106511151D01*
X115183983Y-106316852D01*
X115183980Y-106316849D01*
X115183979Y-106316847D01*
X115026784Y-106146087D01*
X115026779Y-106146083D01*
X115026777Y-106146081D01*
X114843634Y-106003535D01*
X114843628Y-106003531D01*
X114639504Y-105893064D01*
X114639495Y-105893061D01*
X114419984Y-105817702D01*
X114248282Y-105789050D01*
X114191049Y-105779500D01*
X113958951Y-105779500D01*
X113913164Y-105787140D01*
X113730015Y-105817702D01*
X113510504Y-105893061D01*
X113510495Y-105893064D01*
X113306371Y-106003531D01*
X113306365Y-106003535D01*
X113123222Y-106146081D01*
X113123219Y-106146084D01*
X112966016Y-106316852D01*
X112839075Y-106511151D01*
X112745842Y-106723699D01*
X112688866Y-106948691D01*
X112688864Y-106948702D01*
X112669700Y-107179993D01*
X112669700Y-107180006D01*
X109078644Y-107180006D01*
X109061135Y-106968702D01*
X109061133Y-106968691D01*
X109004157Y-106743699D01*
X108910924Y-106531151D01*
X108783983Y-106336852D01*
X108783980Y-106336849D01*
X108783979Y-106336847D01*
X108626784Y-106166087D01*
X108626779Y-106166083D01*
X108626777Y-106166081D01*
X108443634Y-106023535D01*
X108443628Y-106023531D01*
X108239504Y-105913064D01*
X108239495Y-105913061D01*
X108019984Y-105837702D01*
X107848282Y-105809050D01*
X107791049Y-105799500D01*
X107558951Y-105799500D01*
X107513164Y-105807140D01*
X107330015Y-105837702D01*
X107110504Y-105913061D01*
X107110495Y-105913064D01*
X106906371Y-106023531D01*
X106906365Y-106023535D01*
X106723222Y-106166081D01*
X106723219Y-106166084D01*
X106566016Y-106336852D01*
X106439075Y-106531151D01*
X106345842Y-106743699D01*
X106288866Y-106968691D01*
X106288864Y-106968702D01*
X106269700Y-107199993D01*
X106269700Y-107200006D01*
X103418546Y-107200006D01*
X103455871Y-107172888D01*
X103582533Y-107032216D01*
X103677179Y-106868284D01*
X103735674Y-106688256D01*
X103755460Y-106500000D01*
X103735674Y-106311744D01*
X103677179Y-106131716D01*
X103582533Y-105967784D01*
X103455871Y-105827112D01*
X103455870Y-105827111D01*
X103302734Y-105715851D01*
X103302729Y-105715848D01*
X103129807Y-105638857D01*
X103129802Y-105638855D01*
X102984001Y-105607865D01*
X102944646Y-105599500D01*
X102755354Y-105599500D01*
X102722897Y-105606398D01*
X102570197Y-105638855D01*
X102570192Y-105638857D01*
X102397270Y-105715848D01*
X102397265Y-105715851D01*
X102244129Y-105827111D01*
X102117466Y-105967785D01*
X102022821Y-106131715D01*
X102022818Y-106131722D01*
X101964327Y-106311740D01*
X101964326Y-106311744D01*
X101944540Y-106500000D01*
X71879354Y-106500000D01*
X71878328Y-104125000D01*
X72244540Y-104125000D01*
X72264326Y-104313256D01*
X72264327Y-104313259D01*
X72322818Y-104493277D01*
X72322821Y-104493284D01*
X72417467Y-104657216D01*
X72529567Y-104781715D01*
X72544129Y-104797888D01*
X72697265Y-104909148D01*
X72697270Y-104909151D01*
X72870192Y-104986142D01*
X72870197Y-104986144D01*
X73055354Y-105025500D01*
X73055355Y-105025500D01*
X73244644Y-105025500D01*
X73244646Y-105025500D01*
X73429803Y-104986144D01*
X73602730Y-104909151D01*
X73755871Y-104797888D01*
X73882533Y-104657216D01*
X73977179Y-104493284D01*
X73983120Y-104475000D01*
X99419540Y-104475000D01*
X99439326Y-104663256D01*
X99439327Y-104663259D01*
X99497818Y-104843277D01*
X99497821Y-104843284D01*
X99592467Y-105007216D01*
X99719129Y-105147888D01*
X99872265Y-105259148D01*
X99872270Y-105259151D01*
X100045192Y-105336142D01*
X100045197Y-105336144D01*
X100230354Y-105375500D01*
X100230355Y-105375500D01*
X100419644Y-105375500D01*
X100419646Y-105375500D01*
X100604803Y-105336144D01*
X100777730Y-105259151D01*
X100927964Y-105150000D01*
X131644540Y-105150000D01*
X131664326Y-105338256D01*
X131664327Y-105338259D01*
X131722818Y-105518277D01*
X131722821Y-105518284D01*
X131817467Y-105682216D01*
X131944129Y-105822888D01*
X132097265Y-105934148D01*
X132097270Y-105934151D01*
X132270192Y-106011142D01*
X132270197Y-106011144D01*
X132455354Y-106050500D01*
X132455355Y-106050500D01*
X132644644Y-106050500D01*
X132644646Y-106050500D01*
X132829803Y-106011144D01*
X133002730Y-105934151D01*
X133155871Y-105822888D01*
X133282533Y-105682216D01*
X133377179Y-105518284D01*
X133435674Y-105338256D01*
X133455460Y-105150000D01*
X133435674Y-104961744D01*
X133377179Y-104781716D01*
X133282533Y-104617784D01*
X133155871Y-104477112D01*
X133152964Y-104475000D01*
X133002734Y-104365851D01*
X133002729Y-104365848D01*
X132829807Y-104288857D01*
X132829802Y-104288855D01*
X132684001Y-104257865D01*
X132644646Y-104249500D01*
X132455354Y-104249500D01*
X132422897Y-104256398D01*
X132270197Y-104288855D01*
X132270192Y-104288857D01*
X132097270Y-104365848D01*
X132097265Y-104365851D01*
X131944129Y-104477111D01*
X131817466Y-104617785D01*
X131722821Y-104781715D01*
X131722818Y-104781722D01*
X131664327Y-104961740D01*
X131664326Y-104961744D01*
X131644540Y-105150000D01*
X100927964Y-105150000D01*
X100930871Y-105147888D01*
X101057533Y-105007216D01*
X101152179Y-104843284D01*
X101210674Y-104663256D01*
X101230460Y-104475000D01*
X101210674Y-104286744D01*
X101152179Y-104106716D01*
X101057533Y-103942784D01*
X100930871Y-103802112D01*
X100930870Y-103802111D01*
X100777734Y-103690851D01*
X100777729Y-103690848D01*
X100604807Y-103613857D01*
X100604802Y-103613855D01*
X100459001Y-103582865D01*
X100419646Y-103574500D01*
X100230354Y-103574500D01*
X100197897Y-103581398D01*
X100045197Y-103613855D01*
X100045192Y-103613857D01*
X99872270Y-103690848D01*
X99872265Y-103690851D01*
X99719129Y-103802111D01*
X99592466Y-103942785D01*
X99497821Y-104106715D01*
X99497818Y-104106722D01*
X99451427Y-104249500D01*
X99439326Y-104286744D01*
X99419540Y-104475000D01*
X73983120Y-104475000D01*
X74035674Y-104313256D01*
X74055460Y-104125000D01*
X74035674Y-103936744D01*
X73977179Y-103756716D01*
X73882533Y-103592784D01*
X73755871Y-103452112D01*
X73755870Y-103452111D01*
X73602734Y-103340851D01*
X73602729Y-103340848D01*
X73429807Y-103263857D01*
X73429802Y-103263855D01*
X73284001Y-103232865D01*
X73244646Y-103224500D01*
X73055354Y-103224500D01*
X73022897Y-103231398D01*
X72870197Y-103263855D01*
X72870192Y-103263857D01*
X72697270Y-103340848D01*
X72697265Y-103340851D01*
X72544129Y-103452111D01*
X72417466Y-103592785D01*
X72322821Y-103756715D01*
X72322818Y-103756722D01*
X72264327Y-103936740D01*
X72264326Y-103936744D01*
X72244540Y-104125000D01*
X71878328Y-104125000D01*
X71877648Y-102550000D01*
X73644540Y-102550000D01*
X73664326Y-102738256D01*
X73664327Y-102738259D01*
X73722818Y-102918277D01*
X73722821Y-102918284D01*
X73817467Y-103082216D01*
X73864020Y-103133918D01*
X73944129Y-103222888D01*
X74097265Y-103334148D01*
X74097270Y-103334151D01*
X74270192Y-103411142D01*
X74270197Y-103411144D01*
X74455354Y-103450500D01*
X74455355Y-103450500D01*
X74644644Y-103450500D01*
X74644646Y-103450500D01*
X74829803Y-103411144D01*
X75002730Y-103334151D01*
X75155871Y-103222888D01*
X75282533Y-103082216D01*
X75377179Y-102918284D01*
X75435674Y-102738256D01*
X75455460Y-102550000D01*
X75435674Y-102361744D01*
X75377179Y-102181716D01*
X75282533Y-102017784D01*
X75155871Y-101877112D01*
X75144286Y-101868695D01*
X75002734Y-101765851D01*
X75002729Y-101765848D01*
X74829807Y-101688857D01*
X74829802Y-101688855D01*
X74684001Y-101657865D01*
X74644646Y-101649500D01*
X74455354Y-101649500D01*
X74422897Y-101656398D01*
X74270197Y-101688855D01*
X74270192Y-101688857D01*
X74097270Y-101765848D01*
X74097265Y-101765851D01*
X73944129Y-101877111D01*
X73817466Y-102017785D01*
X73722821Y-102181715D01*
X73722818Y-102181722D01*
X73664327Y-102361740D01*
X73664326Y-102361744D01*
X73644540Y-102550000D01*
X71877648Y-102550000D01*
X71877000Y-101050000D01*
X72144540Y-101050000D01*
X72164326Y-101238256D01*
X72164327Y-101238259D01*
X72222818Y-101418277D01*
X72222821Y-101418284D01*
X72317467Y-101582216D01*
X72444129Y-101722888D01*
X72597265Y-101834148D01*
X72597270Y-101834151D01*
X72770192Y-101911142D01*
X72770197Y-101911144D01*
X72955354Y-101950500D01*
X72955355Y-101950500D01*
X73144644Y-101950500D01*
X73144646Y-101950500D01*
X73329803Y-101911144D01*
X73502730Y-101834151D01*
X73655871Y-101722888D01*
X73782533Y-101582216D01*
X73877179Y-101418284D01*
X73935674Y-101238256D01*
X73952832Y-101075000D01*
X77619540Y-101075000D01*
X77639326Y-101263256D01*
X77639327Y-101263259D01*
X77697818Y-101443277D01*
X77697820Y-101443282D01*
X77697821Y-101443284D01*
X77792467Y-101607216D01*
X77896619Y-101722888D01*
X77919129Y-101747888D01*
X78072265Y-101859148D01*
X78072270Y-101859151D01*
X78245192Y-101936142D01*
X78245197Y-101936144D01*
X78430354Y-101975500D01*
X78430355Y-101975500D01*
X78619644Y-101975500D01*
X78619646Y-101975500D01*
X78804803Y-101936144D01*
X78896391Y-101895365D01*
X78965638Y-101886080D01*
X79028915Y-101915708D01*
X79066129Y-101974842D01*
X79065465Y-102044709D01*
X79054215Y-102070639D01*
X79047824Y-102081708D01*
X79047818Y-102081722D01*
X79011732Y-102192785D01*
X78989326Y-102261744D01*
X78969540Y-102450000D01*
X78989326Y-102638256D01*
X78989327Y-102638259D01*
X79047818Y-102818277D01*
X79047821Y-102818284D01*
X79142467Y-102982216D01*
X79269129Y-103122888D01*
X79422265Y-103234148D01*
X79422270Y-103234151D01*
X79595192Y-103311142D01*
X79595197Y-103311144D01*
X79780354Y-103350500D01*
X79780355Y-103350500D01*
X79969644Y-103350500D01*
X79969646Y-103350500D01*
X80154803Y-103311144D01*
X80327730Y-103234151D01*
X80480871Y-103122888D01*
X80607533Y-102982216D01*
X80702179Y-102818284D01*
X80756858Y-102650000D01*
X90694540Y-102650000D01*
X90714326Y-102838256D01*
X90714327Y-102838259D01*
X90772818Y-103018277D01*
X90772821Y-103018284D01*
X90867467Y-103182216D01*
X90940977Y-103263857D01*
X90994129Y-103322888D01*
X91147265Y-103434148D01*
X91147270Y-103434151D01*
X91320192Y-103511142D01*
X91320197Y-103511144D01*
X91505354Y-103550500D01*
X91505355Y-103550500D01*
X91694644Y-103550500D01*
X91694646Y-103550500D01*
X91879803Y-103511144D01*
X92052730Y-103434151D01*
X92089615Y-103407352D01*
X92155419Y-103383872D01*
X92223473Y-103399696D01*
X92235377Y-103407346D01*
X92272270Y-103434151D01*
X92386941Y-103485206D01*
X92445192Y-103511142D01*
X92445197Y-103511144D01*
X92630354Y-103550500D01*
X92630355Y-103550500D01*
X92819644Y-103550500D01*
X92819646Y-103550500D01*
X93004803Y-103511144D01*
X93168943Y-103438062D01*
X93238193Y-103428778D01*
X93292264Y-103451024D01*
X93372265Y-103509148D01*
X93372270Y-103509151D01*
X93545192Y-103586142D01*
X93545197Y-103586144D01*
X93730354Y-103625500D01*
X93730355Y-103625500D01*
X93919644Y-103625500D01*
X93919646Y-103625500D01*
X94104803Y-103586144D01*
X94277730Y-103509151D01*
X94430871Y-103397888D01*
X94557533Y-103257216D01*
X94652179Y-103093284D01*
X94660437Y-103067870D01*
X106274500Y-103067870D01*
X106274501Y-103067876D01*
X106280908Y-103127483D01*
X106331202Y-103262328D01*
X106331206Y-103262335D01*
X106417452Y-103377544D01*
X106417455Y-103377547D01*
X106532664Y-103463793D01*
X106532671Y-103463797D01*
X106667517Y-103514091D01*
X106667516Y-103514091D01*
X106674444Y-103514835D01*
X106727127Y-103520500D01*
X108622872Y-103520499D01*
X108682483Y-103514091D01*
X108817331Y-103463796D01*
X108932546Y-103377546D01*
X109018796Y-103262331D01*
X109069091Y-103127483D01*
X109075500Y-103067873D01*
X109075499Y-102100006D01*
X112669700Y-102100006D01*
X112688864Y-102331297D01*
X112688866Y-102331308D01*
X112745842Y-102556300D01*
X112839075Y-102768848D01*
X112966016Y-102963147D01*
X112966019Y-102963151D01*
X112966021Y-102963153D01*
X113123216Y-103133913D01*
X113123219Y-103133915D01*
X113123222Y-103133918D01*
X113306365Y-103276464D01*
X113306371Y-103276468D01*
X113306374Y-103276470D01*
X113510497Y-103386936D01*
X113624487Y-103426068D01*
X113730015Y-103462297D01*
X113730017Y-103462297D01*
X113730019Y-103462298D01*
X113958951Y-103500500D01*
X113958952Y-103500500D01*
X114191048Y-103500500D01*
X114191049Y-103500500D01*
X114419981Y-103462298D01*
X114639503Y-103386936D01*
X114843626Y-103276470D01*
X115026784Y-103133913D01*
X115183979Y-102963153D01*
X115310924Y-102768849D01*
X115404157Y-102556300D01*
X115461134Y-102331305D01*
X115461135Y-102331297D01*
X115480300Y-102100006D01*
X115480300Y-102099993D01*
X115461135Y-101868702D01*
X115461133Y-101868691D01*
X115404157Y-101643699D01*
X115310924Y-101431151D01*
X115241573Y-101325000D01*
X116519540Y-101325000D01*
X116539326Y-101513256D01*
X116539327Y-101513259D01*
X116597818Y-101693277D01*
X116597821Y-101693284D01*
X116692467Y-101857216D01*
X116798971Y-101975500D01*
X116819129Y-101997888D01*
X116972265Y-102109148D01*
X116972270Y-102109151D01*
X117145192Y-102186142D01*
X117145197Y-102186144D01*
X117330354Y-102225500D01*
X117330355Y-102225500D01*
X117519644Y-102225500D01*
X117519646Y-102225500D01*
X117704803Y-102186144D01*
X117877730Y-102109151D01*
X118030871Y-101997888D01*
X118157533Y-101857216D01*
X118252179Y-101693284D01*
X118308612Y-101519599D01*
X118348049Y-101461926D01*
X118412408Y-101434727D01*
X118476977Y-101444639D01*
X118570197Y-101486144D01*
X118755354Y-101525500D01*
X118755355Y-101525500D01*
X118944644Y-101525500D01*
X118944646Y-101525500D01*
X119129803Y-101486144D01*
X119302730Y-101409151D01*
X119455871Y-101297888D01*
X119582533Y-101157216D01*
X119677179Y-100993284D01*
X119735674Y-100813256D01*
X119755460Y-100625000D01*
X119735674Y-100436744D01*
X119679304Y-100263256D01*
X119677181Y-100256722D01*
X119677180Y-100256719D01*
X119677179Y-100256716D01*
X119582533Y-100092784D01*
X119455871Y-99952112D01*
X119431146Y-99934148D01*
X119302734Y-99840851D01*
X119302729Y-99840848D01*
X119129807Y-99763857D01*
X119129802Y-99763855D01*
X118982928Y-99732637D01*
X118944646Y-99724500D01*
X118755354Y-99724500D01*
X118722897Y-99731398D01*
X118570197Y-99763855D01*
X118570192Y-99763857D01*
X118397270Y-99840848D01*
X118397265Y-99840851D01*
X118244129Y-99952111D01*
X118117466Y-100092785D01*
X118022821Y-100256715D01*
X118022819Y-100256719D01*
X117966387Y-100430399D01*
X117926949Y-100488074D01*
X117862590Y-100515272D01*
X117798020Y-100505359D01*
X117704807Y-100463857D01*
X117704802Y-100463855D01*
X117547399Y-100430399D01*
X117519646Y-100424500D01*
X117330354Y-100424500D01*
X117302601Y-100430399D01*
X117145197Y-100463855D01*
X117145192Y-100463857D01*
X116972270Y-100540848D01*
X116972265Y-100540851D01*
X116819129Y-100652111D01*
X116692466Y-100792785D01*
X116597821Y-100956715D01*
X116597818Y-100956722D01*
X116539327Y-101136740D01*
X116539326Y-101136744D01*
X116519540Y-101325000D01*
X115241573Y-101325000D01*
X115183983Y-101236852D01*
X115183980Y-101236849D01*
X115183979Y-101236847D01*
X115026784Y-101066087D01*
X115026779Y-101066083D01*
X115026777Y-101066081D01*
X114843634Y-100923535D01*
X114843628Y-100923531D01*
X114639504Y-100813064D01*
X114639495Y-100813061D01*
X114419984Y-100737702D01*
X114234286Y-100706715D01*
X114191049Y-100699500D01*
X113958951Y-100699500D01*
X113915714Y-100706715D01*
X113730015Y-100737702D01*
X113510504Y-100813061D01*
X113510495Y-100813064D01*
X113306371Y-100923531D01*
X113306365Y-100923535D01*
X113123222Y-101066081D01*
X113123219Y-101066084D01*
X112966016Y-101236852D01*
X112839075Y-101431151D01*
X112745842Y-101643699D01*
X112688866Y-101868691D01*
X112688864Y-101868702D01*
X112669700Y-102099993D01*
X112669700Y-102100006D01*
X109075499Y-102100006D01*
X109075499Y-101172128D01*
X109069091Y-101112517D01*
X109065248Y-101102214D01*
X109018797Y-100977671D01*
X109018793Y-100977664D01*
X108932547Y-100862455D01*
X108932544Y-100862452D01*
X108817335Y-100776206D01*
X108817328Y-100776202D01*
X108682482Y-100725908D01*
X108682483Y-100725908D01*
X108622883Y-100719501D01*
X108622881Y-100719500D01*
X108622873Y-100719500D01*
X108622864Y-100719500D01*
X106727129Y-100719500D01*
X106727123Y-100719501D01*
X106667516Y-100725908D01*
X106532671Y-100776202D01*
X106532664Y-100776206D01*
X106417455Y-100862452D01*
X106417452Y-100862455D01*
X106331206Y-100977664D01*
X106331202Y-100977671D01*
X106280908Y-101112517D01*
X106278304Y-101136744D01*
X106274501Y-101172123D01*
X106274500Y-101172135D01*
X106274500Y-103067870D01*
X94660437Y-103067870D01*
X94710674Y-102913256D01*
X94730460Y-102725000D01*
X94710674Y-102536744D01*
X94652179Y-102356716D01*
X94557533Y-102192784D01*
X94436146Y-102057971D01*
X94405917Y-101994981D01*
X94414542Y-101925646D01*
X94436147Y-101892028D01*
X94441503Y-101886080D01*
X94557533Y-101757216D01*
X94652179Y-101593284D01*
X94710674Y-101413256D01*
X94730460Y-101225000D01*
X94710674Y-101036744D01*
X94652179Y-100856716D01*
X94557533Y-100692784D01*
X94430871Y-100552112D01*
X94430870Y-100552111D01*
X94277734Y-100440851D01*
X94277729Y-100440848D01*
X94104807Y-100363857D01*
X94104802Y-100363855D01*
X93959001Y-100332865D01*
X93919646Y-100324500D01*
X93730354Y-100324500D01*
X93697897Y-100331398D01*
X93545197Y-100363855D01*
X93545192Y-100363857D01*
X93372269Y-100440849D01*
X93360381Y-100449486D01*
X93294574Y-100472963D01*
X93226521Y-100457135D01*
X93214619Y-100449486D01*
X93202730Y-100440849D01*
X93029807Y-100363857D01*
X93029802Y-100363855D01*
X92884001Y-100332865D01*
X92844646Y-100324500D01*
X92655354Y-100324500D01*
X92622897Y-100331398D01*
X92470197Y-100363855D01*
X92470192Y-100363857D01*
X92297270Y-100440848D01*
X92297266Y-100440851D01*
X92243179Y-100480147D01*
X92177372Y-100503626D01*
X92109319Y-100487800D01*
X92097412Y-100480148D01*
X92077732Y-100465850D01*
X92077729Y-100465848D01*
X91904807Y-100388857D01*
X91904802Y-100388855D01*
X91759001Y-100357865D01*
X91719646Y-100349500D01*
X91530354Y-100349500D01*
X91497897Y-100356398D01*
X91345197Y-100388855D01*
X91345192Y-100388857D01*
X91172270Y-100465848D01*
X91172265Y-100465851D01*
X91019129Y-100577111D01*
X90892466Y-100717785D01*
X90797821Y-100881715D01*
X90797818Y-100881722D01*
X90761572Y-100993277D01*
X90739326Y-101061744D01*
X90719540Y-101250000D01*
X90739326Y-101438256D01*
X90739327Y-101438259D01*
X90797818Y-101618277D01*
X90797821Y-101618284D01*
X90892467Y-101782216D01*
X90939227Y-101834148D01*
X90956332Y-101853145D01*
X90986562Y-101916136D01*
X90977937Y-101985471D01*
X90956332Y-102019089D01*
X90867466Y-102117785D01*
X90772821Y-102281715D01*
X90772818Y-102281722D01*
X90718142Y-102450000D01*
X90714326Y-102461744D01*
X90694540Y-102650000D01*
X80756858Y-102650000D01*
X80760674Y-102638256D01*
X80780460Y-102450000D01*
X80760674Y-102261744D01*
X80702179Y-102081716D01*
X80607533Y-101917784D01*
X80480871Y-101777112D01*
X80465369Y-101765849D01*
X80327734Y-101665851D01*
X80327729Y-101665848D01*
X80154807Y-101588857D01*
X80154802Y-101588855D01*
X80009001Y-101557865D01*
X79969646Y-101549500D01*
X79780354Y-101549500D01*
X79747897Y-101556398D01*
X79595197Y-101588855D01*
X79595192Y-101588857D01*
X79503610Y-101629633D01*
X79434360Y-101638918D01*
X79371083Y-101609290D01*
X79333870Y-101550155D01*
X79334535Y-101480289D01*
X79345785Y-101454358D01*
X79352179Y-101443284D01*
X79410674Y-101263256D01*
X79430460Y-101075000D01*
X79410674Y-100886744D01*
X79352179Y-100706716D01*
X79257533Y-100542784D01*
X79130871Y-100402112D01*
X79130870Y-100402111D01*
X78977734Y-100290851D01*
X78977729Y-100290848D01*
X78804807Y-100213857D01*
X78804802Y-100213855D01*
X78655938Y-100182214D01*
X78619646Y-100174500D01*
X78430354Y-100174500D01*
X78397897Y-100181398D01*
X78245197Y-100213855D01*
X78245192Y-100213857D01*
X78072270Y-100290848D01*
X78072265Y-100290851D01*
X77919129Y-100402111D01*
X77792466Y-100542785D01*
X77697821Y-100706715D01*
X77697818Y-100706722D01*
X77639327Y-100886740D01*
X77639326Y-100886744D01*
X77619540Y-101075000D01*
X73952832Y-101075000D01*
X73955460Y-101050000D01*
X73935674Y-100861744D01*
X73877179Y-100681716D01*
X73782533Y-100517784D01*
X73655871Y-100377112D01*
X73637626Y-100363856D01*
X73502734Y-100265851D01*
X73502729Y-100265848D01*
X73329807Y-100188857D01*
X73329802Y-100188855D01*
X73180938Y-100157214D01*
X73144646Y-100149500D01*
X72955354Y-100149500D01*
X72922897Y-100156398D01*
X72770197Y-100188855D01*
X72770192Y-100188857D01*
X72597270Y-100265848D01*
X72597265Y-100265851D01*
X72444129Y-100377111D01*
X72317466Y-100517785D01*
X72222821Y-100681715D01*
X72222818Y-100681722D01*
X72164327Y-100861740D01*
X72164326Y-100861744D01*
X72144540Y-101050000D01*
X71877000Y-101050000D01*
X71876428Y-99725000D01*
X81594540Y-99725000D01*
X81614326Y-99913256D01*
X81614327Y-99913259D01*
X81672818Y-100093277D01*
X81672821Y-100093284D01*
X81767467Y-100257216D01*
X81863487Y-100363857D01*
X81894129Y-100397888D01*
X82047265Y-100509148D01*
X82047270Y-100509151D01*
X82220192Y-100586142D01*
X82220197Y-100586144D01*
X82405354Y-100625500D01*
X82405355Y-100625500D01*
X82594644Y-100625500D01*
X82594646Y-100625500D01*
X82779803Y-100586144D01*
X82952730Y-100509151D01*
X83105871Y-100397888D01*
X83232533Y-100257216D01*
X83327179Y-100093284D01*
X83385674Y-99913256D01*
X83405460Y-99725000D01*
X83400205Y-99675000D01*
X98869540Y-99675000D01*
X98889326Y-99863256D01*
X98889327Y-99863259D01*
X98947818Y-100043277D01*
X98947821Y-100043284D01*
X99042467Y-100207216D01*
X99117770Y-100290848D01*
X99169129Y-100347888D01*
X99322265Y-100459148D01*
X99322270Y-100459151D01*
X99495192Y-100536142D01*
X99495197Y-100536144D01*
X99680354Y-100575500D01*
X99680355Y-100575500D01*
X99869644Y-100575500D01*
X99869646Y-100575500D01*
X100054803Y-100536144D01*
X100227730Y-100459151D01*
X100287070Y-100416037D01*
X100352875Y-100392558D01*
X100416008Y-100407238D01*
X100416334Y-100406508D01*
X100420125Y-100408196D01*
X100420929Y-100408383D01*
X100421952Y-100408967D01*
X100422272Y-100409152D01*
X100595192Y-100486142D01*
X100595197Y-100486144D01*
X100780354Y-100525500D01*
X100780355Y-100525500D01*
X100969644Y-100525500D01*
X100969646Y-100525500D01*
X101154803Y-100486144D01*
X101327730Y-100409151D01*
X101480871Y-100297888D01*
X101607533Y-100157216D01*
X101702179Y-99993284D01*
X101760674Y-99813256D01*
X101780460Y-99625000D01*
X101760674Y-99436744D01*
X101702179Y-99256716D01*
X101640567Y-99150000D01*
X111344540Y-99150000D01*
X111364326Y-99338256D01*
X111364327Y-99338259D01*
X111422818Y-99518277D01*
X111422821Y-99518284D01*
X111517467Y-99682216D01*
X111590977Y-99763857D01*
X111644129Y-99822888D01*
X111797265Y-99934148D01*
X111797270Y-99934151D01*
X111970192Y-100011142D01*
X111970197Y-100011144D01*
X112155354Y-100050500D01*
X112155355Y-100050500D01*
X112344644Y-100050500D01*
X112344646Y-100050500D01*
X112529803Y-100011144D01*
X112702730Y-99934151D01*
X112855871Y-99822888D01*
X112982533Y-99682216D01*
X113001133Y-99650000D01*
X114719540Y-99650000D01*
X114739326Y-99838256D01*
X114739327Y-99838259D01*
X114797818Y-100018277D01*
X114797821Y-100018284D01*
X114892467Y-100182216D01*
X114965436Y-100263256D01*
X115019129Y-100322888D01*
X115172265Y-100434148D01*
X115172270Y-100434151D01*
X115345192Y-100511142D01*
X115345197Y-100511144D01*
X115530354Y-100550500D01*
X115530355Y-100550500D01*
X115719644Y-100550500D01*
X115719646Y-100550500D01*
X115904803Y-100511144D01*
X116077730Y-100434151D01*
X116230871Y-100322888D01*
X116357533Y-100182216D01*
X116452179Y-100018284D01*
X116510674Y-99838256D01*
X116525846Y-99693896D01*
X116552429Y-99629285D01*
X116609726Y-99589300D01*
X116679545Y-99586640D01*
X116699602Y-99593582D01*
X116734564Y-99609148D01*
X116795197Y-99636144D01*
X116980354Y-99675500D01*
X116980355Y-99675500D01*
X117169644Y-99675500D01*
X117169646Y-99675500D01*
X117354803Y-99636144D01*
X117527730Y-99559151D01*
X117680871Y-99447888D01*
X117807533Y-99307216D01*
X117902179Y-99143284D01*
X117960674Y-98963256D01*
X117980460Y-98775000D01*
X117960674Y-98586744D01*
X117902179Y-98406716D01*
X117807533Y-98242784D01*
X117680871Y-98102112D01*
X117680870Y-98102111D01*
X117527734Y-97990851D01*
X117527729Y-97990848D01*
X117354807Y-97913857D01*
X117354802Y-97913855D01*
X117209001Y-97882865D01*
X117169646Y-97874500D01*
X116980354Y-97874500D01*
X116930375Y-97885123D01*
X116795199Y-97913855D01*
X116624307Y-97989942D01*
X116555057Y-97999226D01*
X116500986Y-97976980D01*
X116365234Y-97878351D01*
X116365229Y-97878348D01*
X116192307Y-97801357D01*
X116192302Y-97801355D01*
X116046501Y-97770365D01*
X116007146Y-97762000D01*
X115817854Y-97762000D01*
X115785397Y-97768898D01*
X115632697Y-97801355D01*
X115632692Y-97801357D01*
X115459770Y-97878348D01*
X115459765Y-97878351D01*
X115306629Y-97989611D01*
X115179966Y-98130285D01*
X115085321Y-98294215D01*
X115085318Y-98294222D01*
X115032521Y-98456716D01*
X115026826Y-98474244D01*
X115007040Y-98662500D01*
X115026826Y-98850756D01*
X115032831Y-98869237D01*
X115034826Y-98939076D01*
X115007050Y-98990526D01*
X114892466Y-99117785D01*
X114797821Y-99281715D01*
X114797818Y-99281722D01*
X114747450Y-99436740D01*
X114739326Y-99461744D01*
X114719540Y-99650000D01*
X113001133Y-99650000D01*
X113077179Y-99518284D01*
X113128225Y-99361182D01*
X113167663Y-99303506D01*
X113232021Y-99276308D01*
X113246156Y-99275500D01*
X113394644Y-99275500D01*
X113394646Y-99275500D01*
X113579803Y-99236144D01*
X113752730Y-99159151D01*
X113905871Y-99047888D01*
X114032533Y-98907216D01*
X114127179Y-98743284D01*
X114185674Y-98563256D01*
X114199495Y-98431746D01*
X114226078Y-98367137D01*
X114283375Y-98327151D01*
X114297011Y-98323427D01*
X114354803Y-98311144D01*
X114354807Y-98311142D01*
X114354808Y-98311142D01*
X114413058Y-98285206D01*
X114527730Y-98234151D01*
X114680871Y-98122888D01*
X114807533Y-97982216D01*
X114902179Y-97818284D01*
X114960674Y-97638256D01*
X114980460Y-97450000D01*
X114960674Y-97261744D01*
X114902179Y-97081716D01*
X114807533Y-96917784D01*
X114791520Y-96900000D01*
X120144540Y-96900000D01*
X120164326Y-97088256D01*
X120164327Y-97088259D01*
X120222818Y-97268277D01*
X120222821Y-97268284D01*
X120317467Y-97432216D01*
X120433553Y-97561142D01*
X120444129Y-97572888D01*
X120597265Y-97684148D01*
X120597270Y-97684151D01*
X120770192Y-97761142D01*
X120770197Y-97761144D01*
X120955354Y-97800500D01*
X120955355Y-97800500D01*
X121128729Y-97800500D01*
X121195768Y-97820185D01*
X121241523Y-97872989D01*
X121251467Y-97942147D01*
X121222442Y-98005703D01*
X121179167Y-98037778D01*
X121175722Y-98039311D01*
X121172267Y-98040850D01*
X121172265Y-98040851D01*
X121019129Y-98152111D01*
X120892466Y-98292785D01*
X120797821Y-98456715D01*
X120797818Y-98456722D01*
X120745486Y-98617785D01*
X120739326Y-98636744D01*
X120719540Y-98825000D01*
X120739326Y-99013256D01*
X120739327Y-99013259D01*
X120797818Y-99193277D01*
X120797821Y-99193284D01*
X120892467Y-99357216D01*
X120932891Y-99402111D01*
X121019129Y-99497888D01*
X121172265Y-99609148D01*
X121172270Y-99609151D01*
X121345192Y-99686142D01*
X121345197Y-99686144D01*
X121530354Y-99725500D01*
X121530355Y-99725500D01*
X121719644Y-99725500D01*
X121719646Y-99725500D01*
X121904803Y-99686144D01*
X122077730Y-99609151D01*
X122098581Y-99594001D01*
X122164386Y-99570521D01*
X122232440Y-99586345D01*
X122281136Y-99636450D01*
X122295012Y-99704928D01*
X122289398Y-99732637D01*
X122239327Y-99886740D01*
X122239326Y-99886744D01*
X122219540Y-100075000D01*
X122239326Y-100263256D01*
X122239327Y-100263259D01*
X122297818Y-100443277D01*
X122297821Y-100443284D01*
X122392467Y-100607216D01*
X122519129Y-100747888D01*
X122672265Y-100859148D01*
X122672270Y-100859151D01*
X122845192Y-100936142D01*
X122845197Y-100936144D01*
X123030354Y-100975500D01*
X123030355Y-100975500D01*
X123219644Y-100975500D01*
X123219646Y-100975500D01*
X123404803Y-100936144D01*
X123577730Y-100859151D01*
X123730871Y-100747888D01*
X123857533Y-100607216D01*
X123879020Y-100570000D01*
X129854540Y-100570000D01*
X129874326Y-100758256D01*
X129874327Y-100758259D01*
X129932818Y-100938277D01*
X129932821Y-100938284D01*
X130027467Y-101102216D01*
X130090423Y-101172135D01*
X130154129Y-101242888D01*
X130307265Y-101354148D01*
X130307270Y-101354151D01*
X130480192Y-101431142D01*
X130480197Y-101431144D01*
X130665354Y-101470500D01*
X130665355Y-101470500D01*
X130854644Y-101470500D01*
X130854646Y-101470500D01*
X131039803Y-101431144D01*
X131212730Y-101354151D01*
X131365871Y-101242888D01*
X131492533Y-101102216D01*
X131587179Y-100938284D01*
X131645674Y-100758256D01*
X131665460Y-100570000D01*
X131645674Y-100381744D01*
X131587179Y-100201716D01*
X131492533Y-100037784D01*
X131365871Y-99897112D01*
X131351601Y-99886744D01*
X131212734Y-99785851D01*
X131212729Y-99785848D01*
X131039807Y-99708857D01*
X131039802Y-99708855D01*
X130882874Y-99675500D01*
X130854646Y-99669500D01*
X130665354Y-99669500D01*
X130637126Y-99675500D01*
X130480197Y-99708855D01*
X130480192Y-99708857D01*
X130307270Y-99785848D01*
X130307265Y-99785851D01*
X130154129Y-99897111D01*
X130027468Y-100037783D01*
X130027466Y-100037784D01*
X129932821Y-100201715D01*
X129932818Y-100201722D01*
X129875831Y-100377111D01*
X129874326Y-100381744D01*
X129854540Y-100570000D01*
X123879020Y-100570000D01*
X123952179Y-100443284D01*
X124010674Y-100263256D01*
X124030460Y-100075000D01*
X124010674Y-99886744D01*
X123952179Y-99706716D01*
X123857533Y-99542784D01*
X123730871Y-99402112D01*
X123730870Y-99402111D01*
X123577734Y-99290851D01*
X123577729Y-99290848D01*
X123404807Y-99213857D01*
X123404802Y-99213855D01*
X123259001Y-99182865D01*
X123219646Y-99174500D01*
X123030354Y-99174500D01*
X122997897Y-99181398D01*
X122845197Y-99213855D01*
X122845192Y-99213857D01*
X122672270Y-99290848D01*
X122672267Y-99290850D01*
X122651415Y-99306000D01*
X122585608Y-99329478D01*
X122517554Y-99313651D01*
X122468861Y-99263544D01*
X122454987Y-99195066D01*
X122460599Y-99167368D01*
X122510674Y-99013256D01*
X122530460Y-98825000D01*
X122527832Y-98800000D01*
X124594540Y-98800000D01*
X124614326Y-98988256D01*
X124614327Y-98988259D01*
X124672818Y-99168277D01*
X124672821Y-99168284D01*
X124767467Y-99332216D01*
X124830401Y-99402111D01*
X124894129Y-99472888D01*
X125047265Y-99584148D01*
X125047270Y-99584151D01*
X125220192Y-99661142D01*
X125220197Y-99661144D01*
X125405354Y-99700500D01*
X125405355Y-99700500D01*
X125594644Y-99700500D01*
X125594646Y-99700500D01*
X125779803Y-99661144D01*
X125952730Y-99584151D01*
X126105871Y-99472888D01*
X126232533Y-99332216D01*
X126327179Y-99168284D01*
X126385674Y-98988256D01*
X126405460Y-98800000D01*
X126385674Y-98611744D01*
X126327179Y-98431716D01*
X126232533Y-98267784D01*
X126105871Y-98127112D01*
X126105870Y-98127111D01*
X125952734Y-98015851D01*
X125952729Y-98015848D01*
X125779807Y-97938857D01*
X125779802Y-97938855D01*
X125619651Y-97904815D01*
X125594646Y-97899500D01*
X125405354Y-97899500D01*
X125380349Y-97904815D01*
X125220197Y-97938855D01*
X125220192Y-97938857D01*
X125047270Y-98015848D01*
X125047265Y-98015851D01*
X124894129Y-98127111D01*
X124767466Y-98267785D01*
X124672821Y-98431715D01*
X124672818Y-98431722D01*
X124622450Y-98586740D01*
X124614326Y-98611744D01*
X124594540Y-98800000D01*
X122527832Y-98800000D01*
X122510674Y-98636744D01*
X122452179Y-98456716D01*
X122357533Y-98292784D01*
X122230871Y-98152112D01*
X122200829Y-98130285D01*
X122077734Y-98040851D01*
X122077729Y-98040848D01*
X121904807Y-97963857D01*
X121904802Y-97963855D01*
X121759001Y-97932865D01*
X121719646Y-97924500D01*
X121546271Y-97924500D01*
X121479232Y-97904815D01*
X121433477Y-97852011D01*
X121423533Y-97782853D01*
X121452558Y-97719297D01*
X121495832Y-97687221D01*
X121502730Y-97684151D01*
X121655871Y-97572888D01*
X121695907Y-97528422D01*
X121755392Y-97491776D01*
X121813837Y-97490106D01*
X121980354Y-97525500D01*
X121980355Y-97525500D01*
X122169644Y-97525500D01*
X122169646Y-97525500D01*
X122354803Y-97486144D01*
X122527730Y-97409151D01*
X122680871Y-97297888D01*
X122807533Y-97157216D01*
X122902179Y-96993284D01*
X122960674Y-96813256D01*
X122980460Y-96625000D01*
X122977832Y-96600000D01*
X124844540Y-96600000D01*
X124864326Y-96788256D01*
X124864327Y-96788259D01*
X124922818Y-96968277D01*
X124922821Y-96968284D01*
X125017467Y-97132216D01*
X125107506Y-97232214D01*
X125144129Y-97272888D01*
X125297265Y-97384148D01*
X125297270Y-97384151D01*
X125470192Y-97461142D01*
X125470197Y-97461144D01*
X125655354Y-97500500D01*
X125655355Y-97500500D01*
X125844644Y-97500500D01*
X125844646Y-97500500D01*
X126029803Y-97461144D01*
X126202730Y-97384151D01*
X126355871Y-97272888D01*
X126482533Y-97132216D01*
X126577179Y-96968284D01*
X126635674Y-96788256D01*
X126655460Y-96600000D01*
X126635674Y-96411744D01*
X126577179Y-96231716D01*
X126482533Y-96067784D01*
X126444010Y-96025000D01*
X131269540Y-96025000D01*
X131289326Y-96213256D01*
X131289327Y-96213259D01*
X131347818Y-96393277D01*
X131347821Y-96393284D01*
X131442467Y-96557216D01*
X131510273Y-96632522D01*
X131569129Y-96697888D01*
X131722265Y-96809148D01*
X131722270Y-96809151D01*
X131895192Y-96886142D01*
X131895197Y-96886144D01*
X132080354Y-96925500D01*
X132080355Y-96925500D01*
X132269644Y-96925500D01*
X132269646Y-96925500D01*
X132454803Y-96886144D01*
X132627730Y-96809151D01*
X132780871Y-96697888D01*
X132907533Y-96557216D01*
X133002179Y-96393284D01*
X133060674Y-96213256D01*
X133080460Y-96025000D01*
X133060674Y-95836744D01*
X133002179Y-95656716D01*
X132907533Y-95492784D01*
X132780871Y-95352112D01*
X132780870Y-95352111D01*
X132627734Y-95240851D01*
X132627729Y-95240848D01*
X132454807Y-95163857D01*
X132454802Y-95163855D01*
X132309001Y-95132865D01*
X132269646Y-95124500D01*
X132080354Y-95124500D01*
X132047897Y-95131398D01*
X131895197Y-95163855D01*
X131895192Y-95163857D01*
X131722270Y-95240848D01*
X131722265Y-95240851D01*
X131569129Y-95352111D01*
X131442466Y-95492785D01*
X131347821Y-95656715D01*
X131347818Y-95656722D01*
X131289327Y-95836740D01*
X131289326Y-95836744D01*
X131269540Y-96025000D01*
X126444010Y-96025000D01*
X126355871Y-95927112D01*
X126333893Y-95911144D01*
X126202734Y-95815851D01*
X126202729Y-95815848D01*
X126029807Y-95738857D01*
X126029802Y-95738855D01*
X125884001Y-95707865D01*
X125844646Y-95699500D01*
X125655354Y-95699500D01*
X125622897Y-95706398D01*
X125470197Y-95738855D01*
X125470192Y-95738857D01*
X125297270Y-95815848D01*
X125297265Y-95815851D01*
X125144129Y-95927111D01*
X125017466Y-96067785D01*
X124922821Y-96231715D01*
X124922818Y-96231722D01*
X124870486Y-96392785D01*
X124864326Y-96411744D01*
X124844540Y-96600000D01*
X122977832Y-96600000D01*
X122960674Y-96436744D01*
X122902179Y-96256716D01*
X122807533Y-96092784D01*
X122680871Y-95952112D01*
X122680870Y-95952111D01*
X122527734Y-95840851D01*
X122527729Y-95840848D01*
X122354807Y-95763857D01*
X122354802Y-95763855D01*
X122209001Y-95732865D01*
X122169646Y-95724500D01*
X121980354Y-95724500D01*
X121947897Y-95731398D01*
X121795197Y-95763855D01*
X121795192Y-95763857D01*
X121622270Y-95840848D01*
X121622265Y-95840851D01*
X121469135Y-95952106D01*
X121469132Y-95952108D01*
X121429092Y-95996577D01*
X121369604Y-96033224D01*
X121311163Y-96034893D01*
X121144647Y-95999500D01*
X121144646Y-95999500D01*
X120955354Y-95999500D01*
X120922897Y-96006398D01*
X120770197Y-96038855D01*
X120770192Y-96038857D01*
X120597270Y-96115848D01*
X120597265Y-96115851D01*
X120444129Y-96227111D01*
X120317466Y-96367785D01*
X120222821Y-96531715D01*
X120222818Y-96531722D01*
X120168828Y-96697888D01*
X120164326Y-96711744D01*
X120144540Y-96900000D01*
X114791520Y-96900000D01*
X114680871Y-96777112D01*
X114680870Y-96777111D01*
X114527734Y-96665851D01*
X114527729Y-96665848D01*
X114354807Y-96588857D01*
X114354802Y-96588855D01*
X114203590Y-96556715D01*
X114169646Y-96549500D01*
X113980354Y-96549500D01*
X113947897Y-96556398D01*
X113795197Y-96588855D01*
X113795192Y-96588857D01*
X113622270Y-96665848D01*
X113622265Y-96665851D01*
X113469129Y-96777111D01*
X113342466Y-96917785D01*
X113247821Y-97081715D01*
X113247818Y-97081722D01*
X113223289Y-97157216D01*
X113189326Y-97261744D01*
X113177645Y-97372888D01*
X113175505Y-97393248D01*
X113148920Y-97457862D01*
X113091623Y-97497847D01*
X113077967Y-97501576D01*
X113020194Y-97513856D01*
X113020192Y-97513857D01*
X112847270Y-97590848D01*
X112847265Y-97590851D01*
X112694129Y-97702111D01*
X112567466Y-97842785D01*
X112472821Y-98006715D01*
X112472818Y-98006722D01*
X112421775Y-98163818D01*
X112382337Y-98221494D01*
X112317979Y-98248692D01*
X112303844Y-98249500D01*
X112155354Y-98249500D01*
X112122897Y-98256398D01*
X111970197Y-98288855D01*
X111970192Y-98288857D01*
X111797270Y-98365848D01*
X111797265Y-98365851D01*
X111644129Y-98477111D01*
X111517466Y-98617785D01*
X111422821Y-98781715D01*
X111422818Y-98781722D01*
X111364327Y-98961740D01*
X111364326Y-98961744D01*
X111344540Y-99150000D01*
X101640567Y-99150000D01*
X101607533Y-99092784D01*
X101480871Y-98952112D01*
X101465369Y-98940849D01*
X101327734Y-98840851D01*
X101327729Y-98840848D01*
X101154807Y-98763857D01*
X101154802Y-98763855D01*
X101009001Y-98732865D01*
X100969646Y-98724500D01*
X100780354Y-98724500D01*
X100747897Y-98731398D01*
X100595197Y-98763855D01*
X100595192Y-98763857D01*
X100422270Y-98840848D01*
X100422266Y-98840851D01*
X100362928Y-98883962D01*
X100297122Y-98907441D01*
X100233991Y-98892760D01*
X100233666Y-98893492D01*
X100229868Y-98891801D01*
X100229068Y-98891615D01*
X100228052Y-98891035D01*
X100227729Y-98890848D01*
X100054807Y-98813857D01*
X100054802Y-98813855D01*
X99903590Y-98781715D01*
X99869646Y-98774500D01*
X99680354Y-98774500D01*
X99647897Y-98781398D01*
X99495197Y-98813855D01*
X99495192Y-98813857D01*
X99322270Y-98890848D01*
X99322265Y-98890851D01*
X99169129Y-99002111D01*
X99042466Y-99142785D01*
X98947821Y-99306715D01*
X98947818Y-99306722D01*
X98905573Y-99436740D01*
X98889326Y-99486744D01*
X98869540Y-99675000D01*
X83400205Y-99675000D01*
X83385674Y-99536744D01*
X83328630Y-99361182D01*
X83327181Y-99356722D01*
X83327180Y-99356721D01*
X83327179Y-99356716D01*
X83232533Y-99192784D01*
X83105871Y-99052112D01*
X83105870Y-99052111D01*
X82952734Y-98940851D01*
X82952729Y-98940848D01*
X82779807Y-98863857D01*
X82779802Y-98863855D01*
X82634001Y-98832865D01*
X82594646Y-98824500D01*
X82405354Y-98824500D01*
X82372897Y-98831398D01*
X82220197Y-98863855D01*
X82220192Y-98863857D01*
X82047270Y-98940848D01*
X82047265Y-98940851D01*
X81894129Y-99052111D01*
X81767466Y-99192785D01*
X81672821Y-99356715D01*
X81672818Y-99356722D01*
X81643197Y-99447888D01*
X81614326Y-99536744D01*
X81594540Y-99725000D01*
X71876428Y-99725000D01*
X71875218Y-96925000D01*
X83169540Y-96925000D01*
X83189326Y-97113256D01*
X83189327Y-97113259D01*
X83247818Y-97293277D01*
X83247821Y-97293284D01*
X83342467Y-97457216D01*
X83446619Y-97572888D01*
X83469129Y-97597888D01*
X83622265Y-97709148D01*
X83622270Y-97709151D01*
X83795192Y-97786142D01*
X83795197Y-97786144D01*
X83980354Y-97825500D01*
X83980355Y-97825500D01*
X84169644Y-97825500D01*
X84169646Y-97825500D01*
X84354803Y-97786144D01*
X84527730Y-97709151D01*
X84680871Y-97597888D01*
X84807533Y-97457216D01*
X84902179Y-97293284D01*
X84960674Y-97113256D01*
X84980460Y-96925000D01*
X84960674Y-96736744D01*
X84948735Y-96700000D01*
X108769540Y-96700000D01*
X108789326Y-96888256D01*
X108789327Y-96888259D01*
X108847818Y-97068277D01*
X108847821Y-97068284D01*
X108942467Y-97232216D01*
X108997447Y-97293277D01*
X109069129Y-97372888D01*
X109222265Y-97484148D01*
X109222270Y-97484151D01*
X109395192Y-97561142D01*
X109395197Y-97561144D01*
X109580354Y-97600500D01*
X109580355Y-97600500D01*
X109769644Y-97600500D01*
X109769646Y-97600500D01*
X109954803Y-97561144D01*
X110127730Y-97484151D01*
X110280871Y-97372888D01*
X110407533Y-97232216D01*
X110502179Y-97068284D01*
X110560674Y-96888256D01*
X110580460Y-96700000D01*
X110573367Y-96632519D01*
X110585936Y-96563792D01*
X110623804Y-96519241D01*
X110634123Y-96511744D01*
X110706149Y-96459415D01*
X110832811Y-96318743D01*
X110927457Y-96154811D01*
X110985952Y-95974783D01*
X111005738Y-95786527D01*
X110985952Y-95598271D01*
X110982760Y-95588447D01*
X110980765Y-95518606D01*
X111008541Y-95467157D01*
X111107533Y-95357216D01*
X111202179Y-95193284D01*
X111260674Y-95013256D01*
X111280460Y-94825000D01*
X111260674Y-94636744D01*
X111202179Y-94456716D01*
X111107533Y-94292784D01*
X110980871Y-94152112D01*
X110930962Y-94115851D01*
X110827734Y-94040851D01*
X110827729Y-94040848D01*
X110654807Y-93963857D01*
X110654802Y-93963855D01*
X110509001Y-93932865D01*
X110469646Y-93924500D01*
X110280354Y-93924500D01*
X110247897Y-93931398D01*
X110095197Y-93963855D01*
X110095192Y-93963857D01*
X109922270Y-94040848D01*
X109922265Y-94040851D01*
X109769129Y-94152111D01*
X109642466Y-94292785D01*
X109547821Y-94456715D01*
X109547818Y-94456722D01*
X109489327Y-94636740D01*
X109489326Y-94636744D01*
X109475502Y-94768277D01*
X109469540Y-94825000D01*
X109489326Y-95013256D01*
X109489327Y-95013259D01*
X109492518Y-95023079D01*
X109494513Y-95092920D01*
X109466737Y-95144369D01*
X109367744Y-95254312D01*
X109273099Y-95418242D01*
X109273096Y-95418249D01*
X109217796Y-95588447D01*
X109214604Y-95598271D01*
X109194818Y-95786527D01*
X109200527Y-95840851D01*
X109201910Y-95854005D01*
X109189340Y-95922735D01*
X109151475Y-95967284D01*
X109069127Y-96027113D01*
X108942466Y-96167785D01*
X108847821Y-96331715D01*
X108847818Y-96331722D01*
X108789327Y-96511740D01*
X108789326Y-96511744D01*
X108769540Y-96700000D01*
X84948735Y-96700000D01*
X84903676Y-96561322D01*
X84902181Y-96556722D01*
X84902180Y-96556721D01*
X84902179Y-96556716D01*
X84807533Y-96392784D01*
X84680871Y-96252112D01*
X84680870Y-96252111D01*
X84527734Y-96140851D01*
X84527729Y-96140848D01*
X84354807Y-96063857D01*
X84354802Y-96063855D01*
X84181939Y-96027113D01*
X84169646Y-96024500D01*
X83980354Y-96024500D01*
X83968061Y-96027113D01*
X83795197Y-96063855D01*
X83795192Y-96063857D01*
X83622270Y-96140848D01*
X83622265Y-96140851D01*
X83469129Y-96252111D01*
X83342466Y-96392785D01*
X83247821Y-96556715D01*
X83247818Y-96556722D01*
X83197450Y-96711740D01*
X83189326Y-96736744D01*
X83169540Y-96925000D01*
X71875218Y-96925000D01*
X71874343Y-94900000D01*
X93294540Y-94900000D01*
X93314326Y-95088256D01*
X93314327Y-95088259D01*
X93372818Y-95268277D01*
X93372821Y-95268284D01*
X93467467Y-95432216D01*
X93522003Y-95492784D01*
X93594129Y-95572888D01*
X93747265Y-95684148D01*
X93747270Y-95684151D01*
X93920192Y-95761142D01*
X93920197Y-95761144D01*
X94105354Y-95800500D01*
X94105355Y-95800500D01*
X94294644Y-95800500D01*
X94294646Y-95800500D01*
X94479803Y-95761144D01*
X94652730Y-95684151D01*
X94805871Y-95572888D01*
X94932533Y-95432216D01*
X95027179Y-95268284D01*
X95085674Y-95088256D01*
X95089695Y-95050000D01*
X96644540Y-95050000D01*
X96664326Y-95238256D01*
X96664327Y-95238259D01*
X96722818Y-95418277D01*
X96722821Y-95418284D01*
X96817467Y-95582216D01*
X96884553Y-95656722D01*
X96944129Y-95722888D01*
X97097265Y-95834148D01*
X97097270Y-95834151D01*
X97270192Y-95911142D01*
X97270197Y-95911144D01*
X97455354Y-95950500D01*
X97455355Y-95950500D01*
X97644644Y-95950500D01*
X97644646Y-95950500D01*
X97829803Y-95911144D01*
X98002730Y-95834151D01*
X98155871Y-95722888D01*
X98282533Y-95582216D01*
X98377179Y-95418284D01*
X98435674Y-95238256D01*
X98455460Y-95050000D01*
X98435674Y-94861744D01*
X98377179Y-94681716D01*
X98282533Y-94517784D01*
X98155871Y-94377112D01*
X98155870Y-94377111D01*
X98002734Y-94265851D01*
X98002729Y-94265848D01*
X97829807Y-94188857D01*
X97829802Y-94188855D01*
X97680938Y-94157214D01*
X97644646Y-94149500D01*
X97455354Y-94149500D01*
X97422897Y-94156398D01*
X97270197Y-94188855D01*
X97270192Y-94188857D01*
X97097270Y-94265848D01*
X97097265Y-94265851D01*
X96944129Y-94377111D01*
X96817466Y-94517785D01*
X96722821Y-94681715D01*
X96722818Y-94681722D01*
X96670714Y-94842084D01*
X96664326Y-94861744D01*
X96644540Y-95050000D01*
X95089695Y-95050000D01*
X95105460Y-94900000D01*
X95085674Y-94711744D01*
X95027179Y-94531716D01*
X94932533Y-94367784D01*
X94805871Y-94227112D01*
X94784719Y-94211744D01*
X94652734Y-94115851D01*
X94652729Y-94115848D01*
X94479807Y-94038857D01*
X94479802Y-94038855D01*
X94334001Y-94007865D01*
X94294646Y-93999500D01*
X94105354Y-93999500D01*
X94072897Y-94006398D01*
X93920197Y-94038855D01*
X93920192Y-94038857D01*
X93747270Y-94115848D01*
X93747265Y-94115851D01*
X93594129Y-94227111D01*
X93467466Y-94367785D01*
X93372821Y-94531715D01*
X93372818Y-94531722D01*
X93314327Y-94711740D01*
X93314326Y-94711744D01*
X93294540Y-94900000D01*
X71874343Y-94900000D01*
X71873792Y-93625000D01*
X111244540Y-93625000D01*
X111264326Y-93813256D01*
X111264327Y-93813259D01*
X111322818Y-93993277D01*
X111322821Y-93993284D01*
X111417467Y-94157216D01*
X111516537Y-94267244D01*
X111544129Y-94297888D01*
X111697265Y-94409148D01*
X111697270Y-94409151D01*
X111870192Y-94486142D01*
X111870197Y-94486144D01*
X112055354Y-94525500D01*
X112055355Y-94525500D01*
X112244644Y-94525500D01*
X112244646Y-94525500D01*
X112429803Y-94486144D01*
X112602730Y-94409151D01*
X112615325Y-94400000D01*
X118869540Y-94400000D01*
X118889326Y-94588256D01*
X118889327Y-94588259D01*
X118947818Y-94768277D01*
X118947821Y-94768284D01*
X119042467Y-94932216D01*
X119169129Y-95072888D01*
X119322265Y-95184148D01*
X119322270Y-95184151D01*
X119495192Y-95261142D01*
X119495197Y-95261144D01*
X119680354Y-95300500D01*
X119680355Y-95300500D01*
X119869644Y-95300500D01*
X119869646Y-95300500D01*
X120054803Y-95261144D01*
X120227730Y-95184151D01*
X120380871Y-95072888D01*
X120507533Y-94932216D01*
X120539092Y-94877554D01*
X120589657Y-94829340D01*
X120658264Y-94816116D01*
X120723129Y-94842084D01*
X120753865Y-94877555D01*
X120817466Y-94987714D01*
X120817465Y-94987714D01*
X120944129Y-95128388D01*
X121097265Y-95239648D01*
X121097270Y-95239651D01*
X121270192Y-95316642D01*
X121270197Y-95316644D01*
X121455354Y-95356000D01*
X121455355Y-95356000D01*
X121644644Y-95356000D01*
X121644646Y-95356000D01*
X121829803Y-95316644D01*
X122002730Y-95239651D01*
X122155871Y-95128388D01*
X122282533Y-94987716D01*
X122377179Y-94823784D01*
X122435674Y-94643756D01*
X122455460Y-94455500D01*
X122449627Y-94400000D01*
X123494540Y-94400000D01*
X123514326Y-94588256D01*
X123514327Y-94588259D01*
X123572818Y-94768277D01*
X123572821Y-94768284D01*
X123667467Y-94932216D01*
X123794129Y-95072888D01*
X123947265Y-95184148D01*
X123947270Y-95184151D01*
X124120192Y-95261142D01*
X124120197Y-95261144D01*
X124305354Y-95300500D01*
X124305355Y-95300500D01*
X124494644Y-95300500D01*
X124494646Y-95300500D01*
X124679803Y-95261144D01*
X124852730Y-95184151D01*
X125005871Y-95072888D01*
X125132533Y-94932216D01*
X125227179Y-94768284D01*
X125285674Y-94588256D01*
X125305460Y-94400000D01*
X125285674Y-94211744D01*
X125227179Y-94031716D01*
X125132533Y-93867784D01*
X125005871Y-93727112D01*
X125005870Y-93727111D01*
X124852734Y-93615851D01*
X124852729Y-93615848D01*
X124679807Y-93538857D01*
X124679802Y-93538855D01*
X124534001Y-93507865D01*
X124494646Y-93499500D01*
X124305354Y-93499500D01*
X124272897Y-93506398D01*
X124120197Y-93538855D01*
X124120192Y-93538857D01*
X123947270Y-93615848D01*
X123947265Y-93615851D01*
X123794129Y-93727111D01*
X123667466Y-93867785D01*
X123572821Y-94031715D01*
X123572818Y-94031722D01*
X123521762Y-94188857D01*
X123514326Y-94211744D01*
X123494540Y-94400000D01*
X122449627Y-94400000D01*
X122435674Y-94267244D01*
X122377179Y-94087216D01*
X122282533Y-93923284D01*
X122155871Y-93782612D01*
X122155870Y-93782611D01*
X122002734Y-93671351D01*
X122002729Y-93671348D01*
X121829807Y-93594357D01*
X121829802Y-93594355D01*
X121684001Y-93563365D01*
X121644646Y-93555000D01*
X121455354Y-93555000D01*
X121422897Y-93561898D01*
X121270197Y-93594355D01*
X121270192Y-93594357D01*
X121097270Y-93671348D01*
X121097265Y-93671351D01*
X120944129Y-93782611D01*
X120817465Y-93923285D01*
X120785908Y-93977945D01*
X120735341Y-94026161D01*
X120666734Y-94039383D01*
X120601869Y-94013415D01*
X120571134Y-93977944D01*
X120507536Y-93867788D01*
X120507534Y-93867785D01*
X120380870Y-93727111D01*
X120227734Y-93615851D01*
X120227729Y-93615848D01*
X120054807Y-93538857D01*
X120054802Y-93538855D01*
X119909001Y-93507865D01*
X119869646Y-93499500D01*
X119680354Y-93499500D01*
X119647897Y-93506398D01*
X119495197Y-93538855D01*
X119495192Y-93538857D01*
X119322270Y-93615848D01*
X119322265Y-93615851D01*
X119169129Y-93727111D01*
X119042466Y-93867785D01*
X118947821Y-94031715D01*
X118947818Y-94031722D01*
X118896762Y-94188857D01*
X118889326Y-94211744D01*
X118869540Y-94400000D01*
X112615325Y-94400000D01*
X112755871Y-94297888D01*
X112882533Y-94157216D01*
X112977179Y-93993284D01*
X113035674Y-93813256D01*
X113055460Y-93625000D01*
X113035674Y-93436744D01*
X112977179Y-93256716D01*
X112882533Y-93092784D01*
X112755871Y-92952112D01*
X112730247Y-92933495D01*
X112602734Y-92840851D01*
X112602729Y-92840848D01*
X112494970Y-92792870D01*
X135379500Y-92792870D01*
X135379501Y-92792876D01*
X135385908Y-92852483D01*
X135436202Y-92987328D01*
X135436206Y-92987335D01*
X135522452Y-93102544D01*
X135522455Y-93102547D01*
X135637664Y-93188793D01*
X135637671Y-93188797D01*
X135772517Y-93239091D01*
X135772516Y-93239091D01*
X135779444Y-93239835D01*
X135832127Y-93245500D01*
X137627872Y-93245499D01*
X137687483Y-93239091D01*
X137822331Y-93188796D01*
X137937546Y-93102546D01*
X138023796Y-92987331D01*
X138072810Y-92855916D01*
X138114681Y-92799984D01*
X138180145Y-92775566D01*
X138248418Y-92790417D01*
X138276673Y-92811569D01*
X138398599Y-92933495D01*
X138490562Y-92997888D01*
X138592165Y-93069032D01*
X138592167Y-93069033D01*
X138592170Y-93069035D01*
X138806337Y-93168903D01*
X139034592Y-93230063D01*
X139211034Y-93245500D01*
X139269999Y-93250659D01*
X139270000Y-93250659D01*
X139270001Y-93250659D01*
X139328966Y-93245500D01*
X139505408Y-93230063D01*
X139733663Y-93168903D01*
X139947830Y-93069035D01*
X140141401Y-92933495D01*
X140308495Y-92766401D01*
X140438425Y-92580842D01*
X140493002Y-92537217D01*
X140562500Y-92530023D01*
X140624855Y-92561546D01*
X140641575Y-92580842D01*
X140771500Y-92766395D01*
X140771505Y-92766401D01*
X140938599Y-92933495D01*
X141030562Y-92997888D01*
X141132165Y-93069032D01*
X141132167Y-93069033D01*
X141132170Y-93069035D01*
X141346337Y-93168903D01*
X141574592Y-93230063D01*
X141751034Y-93245500D01*
X141809999Y-93250659D01*
X141810000Y-93250659D01*
X141810001Y-93250659D01*
X141868966Y-93245500D01*
X142045408Y-93230063D01*
X142273663Y-93168903D01*
X142487830Y-93069035D01*
X142681401Y-92933495D01*
X142848495Y-92766401D01*
X142984035Y-92572830D01*
X143083903Y-92358663D01*
X143145063Y-92130408D01*
X143165659Y-91895000D01*
X143145063Y-91659592D01*
X143098626Y-91486285D01*
X143083905Y-91431344D01*
X143083904Y-91431343D01*
X143083903Y-91431337D01*
X142984035Y-91217171D01*
X142980233Y-91211740D01*
X142848494Y-91023597D01*
X142681402Y-90856506D01*
X142681395Y-90856501D01*
X142487834Y-90720967D01*
X142487830Y-90720965D01*
X142471298Y-90713256D01*
X142273663Y-90621097D01*
X142273659Y-90621096D01*
X142273655Y-90621094D01*
X142045413Y-90559938D01*
X142045403Y-90559936D01*
X141810001Y-90539341D01*
X141809999Y-90539341D01*
X141574596Y-90559936D01*
X141574586Y-90559938D01*
X141346344Y-90621094D01*
X141346335Y-90621098D01*
X141132171Y-90720964D01*
X141132169Y-90720965D01*
X140938597Y-90856505D01*
X140771505Y-91023597D01*
X140641575Y-91209158D01*
X140586998Y-91252783D01*
X140517500Y-91259977D01*
X140455145Y-91228454D01*
X140438425Y-91209158D01*
X140308494Y-91023597D01*
X140141402Y-90856506D01*
X140141395Y-90856501D01*
X139947834Y-90720967D01*
X139947830Y-90720965D01*
X139931298Y-90713256D01*
X139733663Y-90621097D01*
X139733659Y-90621096D01*
X139733655Y-90621094D01*
X139505413Y-90559938D01*
X139505403Y-90559936D01*
X139270001Y-90539341D01*
X139269999Y-90539341D01*
X139034596Y-90559936D01*
X139034586Y-90559938D01*
X138806344Y-90621094D01*
X138806335Y-90621098D01*
X138592171Y-90720964D01*
X138592169Y-90720965D01*
X138398600Y-90856503D01*
X138276673Y-90978430D01*
X138215350Y-91011914D01*
X138145658Y-91006930D01*
X138089725Y-90965058D01*
X138072810Y-90934081D01*
X138023797Y-90802671D01*
X138023793Y-90802664D01*
X137937547Y-90687455D01*
X137937544Y-90687452D01*
X137822335Y-90601206D01*
X137822328Y-90601202D01*
X137687482Y-90550908D01*
X137687483Y-90550908D01*
X137627883Y-90544501D01*
X137627881Y-90544500D01*
X137627873Y-90544500D01*
X137627864Y-90544500D01*
X135832129Y-90544500D01*
X135832123Y-90544501D01*
X135772516Y-90550908D01*
X135637671Y-90601202D01*
X135637664Y-90601206D01*
X135522455Y-90687452D01*
X135522452Y-90687455D01*
X135436206Y-90802664D01*
X135436202Y-90802671D01*
X135385908Y-90937517D01*
X135379501Y-90997116D01*
X135379500Y-90997135D01*
X135379500Y-92792870D01*
X112494970Y-92792870D01*
X112429807Y-92763857D01*
X112429802Y-92763855D01*
X112284001Y-92732865D01*
X112244646Y-92724500D01*
X112055354Y-92724500D01*
X112022897Y-92731398D01*
X111870197Y-92763855D01*
X111870192Y-92763857D01*
X111697270Y-92840848D01*
X111697265Y-92840851D01*
X111544129Y-92952111D01*
X111417466Y-93092785D01*
X111322821Y-93256715D01*
X111322818Y-93256722D01*
X111264327Y-93436740D01*
X111264326Y-93436744D01*
X111244540Y-93625000D01*
X71873792Y-93625000D01*
X71873274Y-92425000D01*
X93369540Y-92425000D01*
X93389326Y-92613256D01*
X93389327Y-92613259D01*
X93447818Y-92793277D01*
X93447821Y-92793284D01*
X93542467Y-92957216D01*
X93643147Y-93069032D01*
X93669129Y-93097888D01*
X93822265Y-93209148D01*
X93822270Y-93209151D01*
X93995192Y-93286142D01*
X93995197Y-93286144D01*
X94180354Y-93325500D01*
X94180355Y-93325500D01*
X94369644Y-93325500D01*
X94369646Y-93325500D01*
X94554803Y-93286144D01*
X94727730Y-93209151D01*
X94880871Y-93097888D01*
X95007533Y-92957216D01*
X95102179Y-92793284D01*
X95160674Y-92613256D01*
X95180460Y-92425000D01*
X95169950Y-92325000D01*
X96919540Y-92325000D01*
X96939326Y-92513256D01*
X96939327Y-92513259D01*
X96997818Y-92693277D01*
X96997821Y-92693284D01*
X97092467Y-92857216D01*
X97161149Y-92933495D01*
X97219129Y-92997888D01*
X97372265Y-93109148D01*
X97372270Y-93109151D01*
X97545192Y-93186142D01*
X97545197Y-93186144D01*
X97730354Y-93225500D01*
X97730355Y-93225500D01*
X97919644Y-93225500D01*
X97919646Y-93225500D01*
X98104803Y-93186144D01*
X98277730Y-93109151D01*
X98430871Y-92997888D01*
X98557533Y-92857216D01*
X98652179Y-92693284D01*
X98710674Y-92513256D01*
X98730460Y-92325000D01*
X98710674Y-92136744D01*
X98652179Y-91956716D01*
X98652176Y-91956710D01*
X98578415Y-91828951D01*
X98561942Y-91761051D01*
X98584795Y-91695024D01*
X98639716Y-91651834D01*
X98660009Y-91645664D01*
X98704803Y-91636144D01*
X98877730Y-91559151D01*
X99030871Y-91447888D01*
X99157533Y-91307216D01*
X99252179Y-91143284D01*
X99306858Y-90975000D01*
X114919540Y-90975000D01*
X114939326Y-91163256D01*
X114939327Y-91163259D01*
X114997818Y-91343277D01*
X114997819Y-91343279D01*
X114997821Y-91343284D01*
X115092467Y-91507216D01*
X115165436Y-91588256D01*
X115219129Y-91647888D01*
X115372265Y-91759148D01*
X115372270Y-91759151D01*
X115545192Y-91836142D01*
X115545197Y-91836144D01*
X115730354Y-91875500D01*
X115730355Y-91875500D01*
X115919644Y-91875500D01*
X115919646Y-91875500D01*
X116104803Y-91836144D01*
X116277730Y-91759151D01*
X116430871Y-91647888D01*
X116557533Y-91507216D01*
X116652179Y-91343284D01*
X116663163Y-91309476D01*
X116702598Y-91251803D01*
X116755307Y-91226506D01*
X116879803Y-91200044D01*
X116879807Y-91200042D01*
X116879808Y-91200042D01*
X117007302Y-91143277D01*
X117052730Y-91123051D01*
X117205871Y-91011788D01*
X117332533Y-90871116D01*
X117427179Y-90707184D01*
X117485674Y-90527156D01*
X117505460Y-90338900D01*
X117485674Y-90150644D01*
X117427179Y-89970616D01*
X117332533Y-89806684D01*
X117205871Y-89666012D01*
X117205870Y-89666011D01*
X117052734Y-89554751D01*
X117052729Y-89554748D01*
X116879807Y-89477757D01*
X116879802Y-89477755D01*
X116734001Y-89446765D01*
X116694646Y-89438400D01*
X116505354Y-89438400D01*
X116472897Y-89445298D01*
X116320197Y-89477755D01*
X116320192Y-89477757D01*
X116147270Y-89554748D01*
X116147265Y-89554751D01*
X115994129Y-89666011D01*
X115867466Y-89806685D01*
X115772821Y-89970615D01*
X115772818Y-89970622D01*
X115761836Y-90004423D01*
X115722398Y-90062099D01*
X115669686Y-90087395D01*
X115545197Y-90113855D01*
X115545192Y-90113857D01*
X115372270Y-90190848D01*
X115372265Y-90190851D01*
X115219129Y-90302111D01*
X115092466Y-90442785D01*
X114997821Y-90606715D01*
X114997818Y-90606722D01*
X114943142Y-90775000D01*
X114939326Y-90786744D01*
X114919540Y-90975000D01*
X99306858Y-90975000D01*
X99310674Y-90963256D01*
X99330460Y-90775000D01*
X99310674Y-90586744D01*
X99252179Y-90406716D01*
X99157533Y-90242784D01*
X99030871Y-90102112D01*
X99030870Y-90102111D01*
X98877734Y-89990851D01*
X98877729Y-89990848D01*
X98704807Y-89913857D01*
X98704802Y-89913855D01*
X98520761Y-89874737D01*
X98459279Y-89841545D01*
X98425503Y-89780382D01*
X98430155Y-89710667D01*
X98471760Y-89654535D01*
X98473605Y-89653166D01*
X98480871Y-89647888D01*
X98607533Y-89507216D01*
X98702179Y-89343284D01*
X98760674Y-89163256D01*
X98780460Y-88975000D01*
X98760674Y-88786744D01*
X98702179Y-88606716D01*
X98611699Y-88450000D01*
X110819540Y-88450000D01*
X110839326Y-88638256D01*
X110839327Y-88638259D01*
X110897818Y-88818277D01*
X110897821Y-88818284D01*
X110992467Y-88982216D01*
X111119129Y-89122888D01*
X111272265Y-89234148D01*
X111272270Y-89234151D01*
X111445192Y-89311142D01*
X111445197Y-89311144D01*
X111630354Y-89350500D01*
X111630355Y-89350500D01*
X111819644Y-89350500D01*
X111819646Y-89350500D01*
X112004803Y-89311144D01*
X112177730Y-89234151D01*
X112234549Y-89192870D01*
X135369500Y-89192870D01*
X135369501Y-89192876D01*
X135375908Y-89252483D01*
X135426202Y-89387328D01*
X135426206Y-89387335D01*
X135512452Y-89502544D01*
X135512455Y-89502547D01*
X135627664Y-89588793D01*
X135627671Y-89588797D01*
X135762517Y-89639091D01*
X135762516Y-89639091D01*
X135769444Y-89639835D01*
X135822127Y-89645500D01*
X137617872Y-89645499D01*
X137677483Y-89639091D01*
X137812331Y-89588796D01*
X137927546Y-89502546D01*
X138013796Y-89387331D01*
X138062810Y-89255916D01*
X138104681Y-89199984D01*
X138170145Y-89175566D01*
X138238418Y-89190417D01*
X138266673Y-89211569D01*
X138388599Y-89333495D01*
X138466806Y-89388256D01*
X138582165Y-89469032D01*
X138582167Y-89469033D01*
X138582170Y-89469035D01*
X138796337Y-89568903D01*
X139024592Y-89630063D01*
X139201034Y-89645500D01*
X139259999Y-89650659D01*
X139260000Y-89650659D01*
X139260001Y-89650659D01*
X139318966Y-89645500D01*
X139495408Y-89630063D01*
X139723663Y-89568903D01*
X139937830Y-89469035D01*
X140131401Y-89333495D01*
X140298495Y-89166401D01*
X140428425Y-88980842D01*
X140483002Y-88937217D01*
X140552500Y-88930023D01*
X140614855Y-88961546D01*
X140631575Y-88980842D01*
X140761500Y-89166395D01*
X140761505Y-89166401D01*
X140928599Y-89333495D01*
X141006806Y-89388256D01*
X141122165Y-89469032D01*
X141122167Y-89469033D01*
X141122170Y-89469035D01*
X141336337Y-89568903D01*
X141564592Y-89630063D01*
X141741034Y-89645500D01*
X141799999Y-89650659D01*
X141800000Y-89650659D01*
X141800001Y-89650659D01*
X141858966Y-89645500D01*
X142035408Y-89630063D01*
X142263663Y-89568903D01*
X142477830Y-89469035D01*
X142671401Y-89333495D01*
X142838495Y-89166401D01*
X142974035Y-88972830D01*
X143073903Y-88758663D01*
X143135063Y-88530408D01*
X143155659Y-88295000D01*
X143135063Y-88059592D01*
X143073903Y-87831337D01*
X142974035Y-87617171D01*
X142968425Y-87609158D01*
X142838494Y-87423597D01*
X142671402Y-87256506D01*
X142671395Y-87256501D01*
X142477834Y-87120967D01*
X142477830Y-87120965D01*
X142477828Y-87120964D01*
X142263663Y-87021097D01*
X142263659Y-87021096D01*
X142263655Y-87021094D01*
X142035413Y-86959938D01*
X142035403Y-86959936D01*
X141800001Y-86939341D01*
X141799999Y-86939341D01*
X141564596Y-86959936D01*
X141564586Y-86959938D01*
X141336344Y-87021094D01*
X141336335Y-87021098D01*
X141122171Y-87120964D01*
X141122169Y-87120965D01*
X140928597Y-87256505D01*
X140761505Y-87423597D01*
X140631575Y-87609158D01*
X140576998Y-87652783D01*
X140507500Y-87659977D01*
X140445145Y-87628454D01*
X140428425Y-87609158D01*
X140298494Y-87423597D01*
X140131402Y-87256506D01*
X140131395Y-87256501D01*
X139937834Y-87120967D01*
X139937830Y-87120965D01*
X139937828Y-87120964D01*
X139723663Y-87021097D01*
X139723659Y-87021096D01*
X139723655Y-87021094D01*
X139495413Y-86959938D01*
X139495403Y-86959936D01*
X139260001Y-86939341D01*
X139259999Y-86939341D01*
X139024596Y-86959936D01*
X139024586Y-86959938D01*
X138796344Y-87021094D01*
X138796335Y-87021098D01*
X138582171Y-87120964D01*
X138582169Y-87120965D01*
X138388600Y-87256503D01*
X138266673Y-87378430D01*
X138205350Y-87411914D01*
X138135658Y-87406930D01*
X138079725Y-87365058D01*
X138062810Y-87334081D01*
X138013797Y-87202671D01*
X138013793Y-87202664D01*
X137927547Y-87087455D01*
X137927544Y-87087452D01*
X137812335Y-87001206D01*
X137812328Y-87001202D01*
X137677482Y-86950908D01*
X137677483Y-86950908D01*
X137617883Y-86944501D01*
X137617881Y-86944500D01*
X137617873Y-86944500D01*
X137617864Y-86944500D01*
X135822129Y-86944500D01*
X135822123Y-86944501D01*
X135762516Y-86950908D01*
X135627671Y-87001202D01*
X135627664Y-87001206D01*
X135512455Y-87087452D01*
X135512452Y-87087455D01*
X135426206Y-87202664D01*
X135426202Y-87202671D01*
X135375908Y-87337517D01*
X135369501Y-87397116D01*
X135369500Y-87397135D01*
X135369500Y-89192870D01*
X112234549Y-89192870D01*
X112330871Y-89122888D01*
X112457533Y-88982216D01*
X112552179Y-88818284D01*
X112610674Y-88638256D01*
X112630460Y-88450000D01*
X112610674Y-88261744D01*
X112552179Y-88081716D01*
X112473667Y-87945729D01*
X116140269Y-87945729D01*
X116160055Y-88133985D01*
X116160056Y-88133988D01*
X116218547Y-88314006D01*
X116218550Y-88314013D01*
X116313196Y-88477945D01*
X116360439Y-88530413D01*
X116439858Y-88618617D01*
X116592994Y-88729877D01*
X116592999Y-88729880D01*
X116765921Y-88806871D01*
X116765926Y-88806873D01*
X116951083Y-88846229D01*
X116951084Y-88846229D01*
X117140373Y-88846229D01*
X117140375Y-88846229D01*
X117325532Y-88806873D01*
X117498459Y-88729880D01*
X117651600Y-88618617D01*
X117778262Y-88477945D01*
X117872908Y-88314013D01*
X117931403Y-88133985D01*
X117951189Y-87945729D01*
X117931403Y-87757473D01*
X117872908Y-87577445D01*
X117778262Y-87413513D01*
X117651600Y-87272841D01*
X117629117Y-87256506D01*
X117498463Y-87161580D01*
X117498458Y-87161577D01*
X117325536Y-87084586D01*
X117325531Y-87084584D01*
X117179730Y-87053594D01*
X117140375Y-87045229D01*
X116951083Y-87045229D01*
X116918626Y-87052127D01*
X116765926Y-87084584D01*
X116765921Y-87084586D01*
X116592999Y-87161577D01*
X116592994Y-87161580D01*
X116439858Y-87272840D01*
X116313195Y-87413514D01*
X116218550Y-87577444D01*
X116218547Y-87577451D01*
X116160056Y-87757469D01*
X116160055Y-87757473D01*
X116140269Y-87945729D01*
X112473667Y-87945729D01*
X112457533Y-87917784D01*
X112330871Y-87777112D01*
X112330870Y-87777111D01*
X112177734Y-87665851D01*
X112177729Y-87665848D01*
X112004807Y-87588857D01*
X112004802Y-87588855D01*
X111859001Y-87557865D01*
X111819646Y-87549500D01*
X111630354Y-87549500D01*
X111597897Y-87556398D01*
X111445197Y-87588855D01*
X111445192Y-87588857D01*
X111272270Y-87665848D01*
X111272265Y-87665851D01*
X111119129Y-87777111D01*
X110992466Y-87917785D01*
X110897821Y-88081715D01*
X110897818Y-88081722D01*
X110839327Y-88261740D01*
X110839326Y-88261744D01*
X110819540Y-88450000D01*
X98611699Y-88450000D01*
X98607533Y-88442784D01*
X98480871Y-88302112D01*
X98477276Y-88299500D01*
X98327734Y-88190851D01*
X98327729Y-88190848D01*
X98154807Y-88113857D01*
X98154802Y-88113855D01*
X98003590Y-88081715D01*
X97969646Y-88074500D01*
X97780354Y-88074500D01*
X97747897Y-88081398D01*
X97595197Y-88113855D01*
X97595192Y-88113857D01*
X97422270Y-88190848D01*
X97422265Y-88190851D01*
X97269129Y-88302111D01*
X97142466Y-88442785D01*
X97047821Y-88606715D01*
X97047818Y-88606722D01*
X96989327Y-88786740D01*
X96989326Y-88786744D01*
X96969540Y-88975000D01*
X96989326Y-89163256D01*
X96989327Y-89163259D01*
X97047818Y-89343277D01*
X97047821Y-89343284D01*
X97142467Y-89507216D01*
X97253079Y-89630063D01*
X97269129Y-89647888D01*
X97422265Y-89759148D01*
X97422270Y-89759151D01*
X97595192Y-89836142D01*
X97595193Y-89836142D01*
X97595197Y-89836144D01*
X97779238Y-89875262D01*
X97840719Y-89908454D01*
X97874496Y-89969617D01*
X97869844Y-90039331D01*
X97828240Y-90095464D01*
X97826349Y-90096865D01*
X97819132Y-90102108D01*
X97819129Y-90102111D01*
X97692466Y-90242785D01*
X97597821Y-90406715D01*
X97597818Y-90406722D01*
X97539327Y-90586740D01*
X97539326Y-90586744D01*
X97519540Y-90775000D01*
X97539326Y-90963256D01*
X97539327Y-90963259D01*
X97597818Y-91143277D01*
X97597820Y-91143281D01*
X97597821Y-91143284D01*
X97635853Y-91209158D01*
X97671585Y-91271048D01*
X97688057Y-91338948D01*
X97665204Y-91404975D01*
X97610282Y-91448165D01*
X97589979Y-91454337D01*
X97545196Y-91463856D01*
X97545192Y-91463857D01*
X97372270Y-91540848D01*
X97372265Y-91540851D01*
X97219129Y-91652111D01*
X97092466Y-91792785D01*
X96997821Y-91956715D01*
X96997818Y-91956722D01*
X96941383Y-92130413D01*
X96939326Y-92136744D01*
X96919540Y-92325000D01*
X95169950Y-92325000D01*
X95160674Y-92236744D01*
X95102179Y-92056716D01*
X95007533Y-91892784D01*
X94880871Y-91752112D01*
X94880870Y-91752111D01*
X94727734Y-91640851D01*
X94727729Y-91640848D01*
X94609658Y-91588279D01*
X94556421Y-91543029D01*
X94536100Y-91476180D01*
X94555146Y-91408956D01*
X94607512Y-91362701D01*
X94609658Y-91361721D01*
X94660806Y-91338948D01*
X94727730Y-91309151D01*
X94880871Y-91197888D01*
X95007533Y-91057216D01*
X95102179Y-90893284D01*
X95160674Y-90713256D01*
X95180460Y-90525000D01*
X95160674Y-90336744D01*
X95102179Y-90156716D01*
X95007533Y-89992784D01*
X95007530Y-89992781D01*
X95006443Y-89991284D01*
X95006079Y-89990266D01*
X95004284Y-89987156D01*
X95004852Y-89986827D01*
X94982959Y-89925479D01*
X94998780Y-89857424D01*
X95014601Y-89835426D01*
X95107533Y-89732216D01*
X95202179Y-89568284D01*
X95260674Y-89388256D01*
X95280460Y-89200000D01*
X95260674Y-89011744D01*
X95202179Y-88831716D01*
X95107533Y-88667784D01*
X94980871Y-88527112D01*
X94980870Y-88527111D01*
X94827734Y-88415851D01*
X94827729Y-88415848D01*
X94654807Y-88338857D01*
X94654802Y-88338855D01*
X94509001Y-88307865D01*
X94469646Y-88299500D01*
X94280354Y-88299500D01*
X94247897Y-88306398D01*
X94095197Y-88338855D01*
X94095192Y-88338857D01*
X93922270Y-88415848D01*
X93922265Y-88415851D01*
X93769129Y-88527111D01*
X93642466Y-88667785D01*
X93547821Y-88831715D01*
X93547818Y-88831722D01*
X93498921Y-88982214D01*
X93489326Y-89011744D01*
X93469540Y-89200000D01*
X93489326Y-89388256D01*
X93489327Y-89388259D01*
X93547818Y-89568277D01*
X93547821Y-89568284D01*
X93642466Y-89732216D01*
X93643558Y-89733718D01*
X93643920Y-89734734D01*
X93645716Y-89737844D01*
X93645147Y-89738172D01*
X93667040Y-89799523D01*
X93651218Y-89867578D01*
X93635393Y-89889579D01*
X93542466Y-89992785D01*
X93447821Y-90156715D01*
X93447818Y-90156722D01*
X93389327Y-90336740D01*
X93389326Y-90336744D01*
X93369540Y-90525000D01*
X93389326Y-90713256D01*
X93389327Y-90713259D01*
X93447818Y-90893277D01*
X93447821Y-90893284D01*
X93542467Y-91057216D01*
X93637946Y-91163256D01*
X93669129Y-91197888D01*
X93822265Y-91309148D01*
X93822267Y-91309149D01*
X93822270Y-91309151D01*
X93898917Y-91343277D01*
X93940342Y-91361721D01*
X93993578Y-91406972D01*
X94013899Y-91473821D01*
X93994853Y-91541044D01*
X93942487Y-91587299D01*
X93940342Y-91588279D01*
X93822267Y-91640850D01*
X93822265Y-91640851D01*
X93669129Y-91752111D01*
X93542466Y-91892785D01*
X93447821Y-92056715D01*
X93447818Y-92056722D01*
X93389327Y-92236740D01*
X93389326Y-92236744D01*
X93369540Y-92425000D01*
X71873274Y-92425000D01*
X71872831Y-91400000D01*
X90394540Y-91400000D01*
X90414326Y-91588256D01*
X90414327Y-91588259D01*
X90472818Y-91768277D01*
X90472821Y-91768284D01*
X90567467Y-91932216D01*
X90679567Y-92056715D01*
X90694129Y-92072888D01*
X90847265Y-92184148D01*
X90847270Y-92184151D01*
X91020192Y-92261142D01*
X91020197Y-92261144D01*
X91205354Y-92300500D01*
X91205355Y-92300500D01*
X91394644Y-92300500D01*
X91394646Y-92300500D01*
X91579803Y-92261144D01*
X91752730Y-92184151D01*
X91905871Y-92072888D01*
X92032533Y-91932216D01*
X92127179Y-91768284D01*
X92185674Y-91588256D01*
X92205460Y-91400000D01*
X92185674Y-91211744D01*
X92127179Y-91031716D01*
X92032533Y-90867784D01*
X91905871Y-90727112D01*
X91905870Y-90727111D01*
X91752734Y-90615851D01*
X91752729Y-90615848D01*
X91579807Y-90538857D01*
X91579802Y-90538855D01*
X91434001Y-90507865D01*
X91394646Y-90499500D01*
X91205354Y-90499500D01*
X91172897Y-90506398D01*
X91020197Y-90538855D01*
X91020192Y-90538857D01*
X90847270Y-90615848D01*
X90847265Y-90615851D01*
X90694129Y-90727111D01*
X90567466Y-90867785D01*
X90472821Y-91031715D01*
X90472818Y-91031722D01*
X90415166Y-91209158D01*
X90414326Y-91211744D01*
X90394540Y-91400000D01*
X71872831Y-91400000D01*
X71870500Y-86002500D01*
X71870500Y-85592870D01*
X135384500Y-85592870D01*
X135384501Y-85592876D01*
X135390908Y-85652483D01*
X135441202Y-85787328D01*
X135441206Y-85787335D01*
X135527452Y-85902544D01*
X135527455Y-85902547D01*
X135642664Y-85988793D01*
X135642671Y-85988797D01*
X135777517Y-86039091D01*
X135777516Y-86039091D01*
X135784444Y-86039835D01*
X135837127Y-86045500D01*
X137632872Y-86045499D01*
X137692483Y-86039091D01*
X137827331Y-85988796D01*
X137942546Y-85902546D01*
X138028796Y-85787331D01*
X138077810Y-85655916D01*
X138119681Y-85599984D01*
X138185145Y-85575566D01*
X138253418Y-85590417D01*
X138281673Y-85611569D01*
X138403599Y-85733495D01*
X138500384Y-85801265D01*
X138597165Y-85869032D01*
X138597167Y-85869033D01*
X138597170Y-85869035D01*
X138811337Y-85968903D01*
X139039592Y-86030063D01*
X139216034Y-86045500D01*
X139274999Y-86050659D01*
X139275000Y-86050659D01*
X139275001Y-86050659D01*
X139333966Y-86045500D01*
X139510408Y-86030063D01*
X139738663Y-85968903D01*
X139952830Y-85869035D01*
X140146401Y-85733495D01*
X140313495Y-85566401D01*
X140443730Y-85380405D01*
X140498307Y-85336781D01*
X140567805Y-85329587D01*
X140630160Y-85361110D01*
X140646879Y-85380405D01*
X140776890Y-85566078D01*
X140943917Y-85733105D01*
X141137421Y-85868600D01*
X141351507Y-85968429D01*
X141351516Y-85968433D01*
X141565000Y-86025634D01*
X141565000Y-85130501D01*
X141672685Y-85179680D01*
X141779237Y-85195000D01*
X141850763Y-85195000D01*
X141957315Y-85179680D01*
X142065000Y-85130501D01*
X142065000Y-86025633D01*
X142278483Y-85968433D01*
X142278492Y-85968429D01*
X142492578Y-85868600D01*
X142686082Y-85733105D01*
X142853105Y-85566082D01*
X142988600Y-85372578D01*
X143088429Y-85158492D01*
X143088432Y-85158486D01*
X143145636Y-84945000D01*
X142248686Y-84945000D01*
X142274493Y-84904844D01*
X142315000Y-84766889D01*
X142315000Y-84623111D01*
X142274493Y-84485156D01*
X142248686Y-84445000D01*
X143145636Y-84445000D01*
X143145635Y-84444999D01*
X143088432Y-84231513D01*
X143088429Y-84231507D01*
X142988600Y-84017422D01*
X142988599Y-84017420D01*
X142853113Y-83823926D01*
X142853108Y-83823920D01*
X142686082Y-83656894D01*
X142492578Y-83521399D01*
X142278492Y-83421570D01*
X142278486Y-83421567D01*
X142065000Y-83364364D01*
X142065000Y-84259498D01*
X141957315Y-84210320D01*
X141850763Y-84195000D01*
X141779237Y-84195000D01*
X141672685Y-84210320D01*
X141565000Y-84259498D01*
X141565000Y-83364364D01*
X141564999Y-83364364D01*
X141351513Y-83421567D01*
X141351507Y-83421570D01*
X141137422Y-83521399D01*
X141137420Y-83521400D01*
X140943926Y-83656886D01*
X140943920Y-83656891D01*
X140776891Y-83823920D01*
X140776890Y-83823922D01*
X140646880Y-84009595D01*
X140592303Y-84053219D01*
X140522804Y-84060412D01*
X140460450Y-84028890D01*
X140443730Y-84009594D01*
X140313494Y-83823597D01*
X140146402Y-83656506D01*
X140146395Y-83656501D01*
X139952834Y-83520967D01*
X139952830Y-83520965D01*
X139952828Y-83520964D01*
X139738663Y-83421097D01*
X139738659Y-83421096D01*
X139738655Y-83421094D01*
X139510413Y-83359938D01*
X139510403Y-83359936D01*
X139275001Y-83339341D01*
X139274999Y-83339341D01*
X139039596Y-83359936D01*
X139039586Y-83359938D01*
X138811344Y-83421094D01*
X138811335Y-83421098D01*
X138597171Y-83520964D01*
X138597169Y-83520965D01*
X138403600Y-83656503D01*
X138281673Y-83778430D01*
X138220350Y-83811914D01*
X138150658Y-83806930D01*
X138094725Y-83765058D01*
X138077810Y-83734081D01*
X138028797Y-83602671D01*
X138028793Y-83602664D01*
X137942547Y-83487455D01*
X137942544Y-83487452D01*
X137827335Y-83401206D01*
X137827328Y-83401202D01*
X137692482Y-83350908D01*
X137692483Y-83350908D01*
X137632883Y-83344501D01*
X137632881Y-83344500D01*
X137632873Y-83344500D01*
X137632864Y-83344500D01*
X135837129Y-83344500D01*
X135837123Y-83344501D01*
X135777516Y-83350908D01*
X135642671Y-83401202D01*
X135642664Y-83401206D01*
X135527455Y-83487452D01*
X135527452Y-83487455D01*
X135441206Y-83602664D01*
X135441202Y-83602671D01*
X135390908Y-83737517D01*
X135384501Y-83797116D01*
X135384500Y-83797135D01*
X135384500Y-85592870D01*
X71870500Y-85592870D01*
X71870500Y-82120000D01*
X78454540Y-82120000D01*
X78474326Y-82308256D01*
X78474327Y-82308259D01*
X78532818Y-82488277D01*
X78532821Y-82488284D01*
X78627467Y-82652216D01*
X78691101Y-82722888D01*
X78754129Y-82792888D01*
X78907265Y-82904148D01*
X78907270Y-82904151D01*
X79080192Y-82981142D01*
X79080197Y-82981144D01*
X79265354Y-83020500D01*
X79265355Y-83020500D01*
X79454644Y-83020500D01*
X79454646Y-83020500D01*
X79639803Y-82981144D01*
X79812730Y-82904151D01*
X79965871Y-82792888D01*
X80092533Y-82652216D01*
X80187179Y-82488284D01*
X80245674Y-82308256D01*
X80251576Y-82252092D01*
X80278159Y-82187479D01*
X80287207Y-82177381D01*
X80969589Y-81495000D01*
X91754540Y-81495000D01*
X91774326Y-81683256D01*
X91774327Y-81683259D01*
X91832818Y-81863277D01*
X91832821Y-81863284D01*
X91927467Y-82027216D01*
X92054129Y-82167888D01*
X92207265Y-82279148D01*
X92207270Y-82279151D01*
X92380192Y-82356142D01*
X92380197Y-82356144D01*
X92565354Y-82395500D01*
X92675601Y-82395500D01*
X92742640Y-82415185D01*
X92763282Y-82431819D01*
X94205299Y-83873837D01*
X94238784Y-83935160D01*
X94240557Y-83945330D01*
X94245600Y-83983629D01*
X94245600Y-83983631D01*
X94260770Y-84098862D01*
X94280132Y-84145606D01*
X94288891Y-84206016D01*
X94280680Y-84284151D01*
X94279540Y-84295000D01*
X94299326Y-84483256D01*
X94299327Y-84483259D01*
X94357818Y-84663277D01*
X94357821Y-84663284D01*
X94452467Y-84827216D01*
X94579129Y-84967888D01*
X94732265Y-85079148D01*
X94732270Y-85079151D01*
X94905192Y-85156142D01*
X94905197Y-85156144D01*
X95090354Y-85195500D01*
X95090355Y-85195500D01*
X95279644Y-85195500D01*
X95279646Y-85195500D01*
X95464803Y-85156144D01*
X95637730Y-85079151D01*
X95790871Y-84967888D01*
X95917533Y-84827216D01*
X96012179Y-84663284D01*
X96070674Y-84483256D01*
X96090460Y-84295000D01*
X96090459Y-84294995D01*
X96090835Y-84291423D01*
X96117419Y-84226808D01*
X96174717Y-84186823D01*
X96244536Y-84184163D01*
X96287041Y-84204066D01*
X96397265Y-84284148D01*
X96397270Y-84284151D01*
X96570192Y-84361142D01*
X96570197Y-84361144D01*
X96755354Y-84400500D01*
X96755355Y-84400500D01*
X96944644Y-84400500D01*
X96944646Y-84400500D01*
X97129803Y-84361144D01*
X97154833Y-84350000D01*
X128119540Y-84350000D01*
X128139326Y-84538256D01*
X128139327Y-84538259D01*
X128197818Y-84718277D01*
X128197821Y-84718284D01*
X128292467Y-84882216D01*
X128369607Y-84967888D01*
X128419129Y-85022888D01*
X128572265Y-85134148D01*
X128572270Y-85134151D01*
X128745192Y-85211142D01*
X128745197Y-85211144D01*
X128930354Y-85250500D01*
X128930355Y-85250500D01*
X129119644Y-85250500D01*
X129119646Y-85250500D01*
X129304803Y-85211144D01*
X129477730Y-85134151D01*
X129630871Y-85022888D01*
X129757533Y-84882216D01*
X129852179Y-84718284D01*
X129910674Y-84538256D01*
X129930460Y-84350000D01*
X129910674Y-84161744D01*
X129852179Y-83981716D01*
X129757533Y-83817784D01*
X129630871Y-83677112D01*
X129630870Y-83677111D01*
X129477734Y-83565851D01*
X129477729Y-83565848D01*
X129304807Y-83488857D01*
X129304802Y-83488855D01*
X129159001Y-83457865D01*
X129119646Y-83449500D01*
X128930354Y-83449500D01*
X128897897Y-83456398D01*
X128745197Y-83488855D01*
X128745192Y-83488857D01*
X128572270Y-83565848D01*
X128572265Y-83565851D01*
X128419129Y-83677111D01*
X128292466Y-83817785D01*
X128197821Y-83981715D01*
X128197818Y-83981722D01*
X128139327Y-84161740D01*
X128139326Y-84161744D01*
X128119540Y-84350000D01*
X97154833Y-84350000D01*
X97302730Y-84284151D01*
X97455871Y-84172888D01*
X97582533Y-84032216D01*
X97677179Y-83868284D01*
X97735674Y-83688256D01*
X97755460Y-83500000D01*
X97735674Y-83311744D01*
X97677179Y-83131716D01*
X97582533Y-82967784D01*
X97455871Y-82827112D01*
X97408766Y-82792888D01*
X97302734Y-82715851D01*
X97302729Y-82715848D01*
X97129807Y-82638857D01*
X97129802Y-82638855D01*
X96984001Y-82607865D01*
X96944646Y-82599500D01*
X96755354Y-82599500D01*
X96722897Y-82606398D01*
X96570197Y-82638855D01*
X96570192Y-82638857D01*
X96397270Y-82715848D01*
X96397265Y-82715851D01*
X96244129Y-82827111D01*
X96117466Y-82967785D01*
X96022821Y-83131715D01*
X96022818Y-83131722D01*
X95964327Y-83311740D01*
X95964326Y-83311744D01*
X95945815Y-83487864D01*
X95944164Y-83503577D01*
X95917579Y-83568191D01*
X95860282Y-83608176D01*
X95790463Y-83610836D01*
X95747958Y-83590933D01*
X95637734Y-83510851D01*
X95637729Y-83510848D01*
X95464807Y-83433857D01*
X95464803Y-83433856D01*
X95427968Y-83426026D01*
X95366486Y-83392833D01*
X95355535Y-83378630D01*
X95354787Y-83379205D01*
X95349840Y-83372759D01*
X95349840Y-83372757D01*
X95255365Y-83249635D01*
X95255364Y-83249634D01*
X95230895Y-83230858D01*
X95218702Y-83220164D01*
X94409680Y-82411142D01*
X93600440Y-81601903D01*
X93566956Y-81540581D01*
X93564802Y-81501257D01*
X93565460Y-81495000D01*
X93550077Y-81348642D01*
X93562646Y-81279915D01*
X93610378Y-81228891D01*
X93622953Y-81222408D01*
X93652730Y-81209151D01*
X93805871Y-81097888D01*
X93848546Y-81050493D01*
X109413057Y-81050493D01*
X109432843Y-81238749D01*
X109432844Y-81238752D01*
X109491335Y-81418770D01*
X109491338Y-81418777D01*
X109535345Y-81495000D01*
X109547187Y-81515510D01*
X109563660Y-81583410D01*
X109547188Y-81639508D01*
X109522821Y-81681713D01*
X109464327Y-81861740D01*
X109464326Y-81861744D01*
X109444540Y-82050000D01*
X109464326Y-82238256D01*
X109464327Y-82238259D01*
X109522818Y-82418277D01*
X109522821Y-82418284D01*
X109617467Y-82582216D01*
X109737790Y-82715848D01*
X109744129Y-82722888D01*
X109897265Y-82834148D01*
X109897270Y-82834151D01*
X110070192Y-82911142D01*
X110070197Y-82911144D01*
X110255354Y-82950500D01*
X110255355Y-82950500D01*
X110444644Y-82950500D01*
X110444646Y-82950500D01*
X110629803Y-82911144D01*
X110802730Y-82834151D01*
X110955871Y-82722888D01*
X111082533Y-82582216D01*
X111177179Y-82418284D01*
X111235674Y-82238256D01*
X111255460Y-82050000D01*
X111235674Y-81861744D01*
X111177179Y-81681716D01*
X111128605Y-81597583D01*
X111121329Y-81584981D01*
X111104856Y-81517081D01*
X111121330Y-81460980D01*
X111145696Y-81418778D01*
X111164227Y-81361744D01*
X111204191Y-81238749D01*
X111223977Y-81050493D01*
X111204191Y-80862237D01*
X111163317Y-80736439D01*
X112733101Y-80736439D01*
X112752887Y-80924695D01*
X112752888Y-80924698D01*
X112811379Y-81104716D01*
X112811382Y-81104723D01*
X112906028Y-81268655D01*
X112989846Y-81361744D01*
X113032690Y-81409327D01*
X113185826Y-81520587D01*
X113185831Y-81520590D01*
X113358753Y-81597581D01*
X113358758Y-81597583D01*
X113543915Y-81636939D01*
X113543916Y-81636939D01*
X113733205Y-81636939D01*
X113733207Y-81636939D01*
X113918364Y-81597583D01*
X114025236Y-81550000D01*
X115344540Y-81550000D01*
X115364326Y-81738256D01*
X115364327Y-81738259D01*
X115422818Y-81918277D01*
X115422821Y-81918284D01*
X115517467Y-82082216D01*
X115594607Y-82167888D01*
X115644129Y-82222888D01*
X115797265Y-82334148D01*
X115797270Y-82334151D01*
X115970192Y-82411142D01*
X115970197Y-82411144D01*
X116155354Y-82450500D01*
X116155355Y-82450500D01*
X116344644Y-82450500D01*
X116344646Y-82450500D01*
X116529803Y-82411144D01*
X116702730Y-82334151D01*
X116855871Y-82222888D01*
X116982533Y-82082216D01*
X117077179Y-81918284D01*
X117135674Y-81738256D01*
X117155460Y-81550000D01*
X117135674Y-81361744D01*
X117077179Y-81181716D01*
X116982533Y-81017784D01*
X116855871Y-80877112D01*
X116855870Y-80877111D01*
X116702734Y-80765851D01*
X116702729Y-80765848D01*
X116529807Y-80688857D01*
X116529802Y-80688855D01*
X116384001Y-80657865D01*
X116344646Y-80649500D01*
X116155354Y-80649500D01*
X116122897Y-80656398D01*
X115970197Y-80688855D01*
X115970192Y-80688857D01*
X115797270Y-80765848D01*
X115797265Y-80765851D01*
X115644129Y-80877111D01*
X115517466Y-81017785D01*
X115422821Y-81181715D01*
X115422818Y-81181722D01*
X115372739Y-81335851D01*
X115364326Y-81361744D01*
X115344540Y-81550000D01*
X114025236Y-81550000D01*
X114091291Y-81520590D01*
X114244432Y-81409327D01*
X114371094Y-81268655D01*
X114465740Y-81104723D01*
X114524235Y-80924695D01*
X114544021Y-80736439D01*
X114524235Y-80548183D01*
X114465740Y-80368155D01*
X114371094Y-80204223D01*
X114244432Y-80063551D01*
X114235033Y-80056722D01*
X114091295Y-79952290D01*
X114091290Y-79952287D01*
X113918368Y-79875296D01*
X113918363Y-79875294D01*
X113772562Y-79844304D01*
X113733207Y-79835939D01*
X113543915Y-79835939D01*
X113511458Y-79842837D01*
X113358758Y-79875294D01*
X113358753Y-79875296D01*
X113185831Y-79952287D01*
X113185826Y-79952290D01*
X113032690Y-80063550D01*
X112906027Y-80204224D01*
X112811382Y-80368154D01*
X112811379Y-80368161D01*
X112752959Y-80547960D01*
X112752887Y-80548183D01*
X112733101Y-80736439D01*
X111163317Y-80736439D01*
X111145696Y-80682209D01*
X111051050Y-80518277D01*
X110924388Y-80377605D01*
X110924387Y-80377604D01*
X110771251Y-80266344D01*
X110771246Y-80266341D01*
X110598324Y-80189350D01*
X110598319Y-80189348D01*
X110452518Y-80158358D01*
X110413163Y-80149993D01*
X110223871Y-80149993D01*
X110191414Y-80156891D01*
X110038714Y-80189348D01*
X110038709Y-80189350D01*
X109865787Y-80266341D01*
X109865782Y-80266344D01*
X109712646Y-80377604D01*
X109585983Y-80518278D01*
X109491338Y-80682208D01*
X109491335Y-80682215D01*
X109432844Y-80862233D01*
X109432843Y-80862237D01*
X109413057Y-81050493D01*
X93848546Y-81050493D01*
X93932533Y-80957216D01*
X94027179Y-80793284D01*
X94085674Y-80613256D01*
X94105460Y-80425000D01*
X94085674Y-80236744D01*
X94027179Y-80056716D01*
X93932533Y-79892784D01*
X93805871Y-79752112D01*
X93805870Y-79752111D01*
X93652734Y-79640851D01*
X93652729Y-79640848D01*
X93479807Y-79563857D01*
X93479802Y-79563855D01*
X93308661Y-79527479D01*
X93294646Y-79524500D01*
X93105354Y-79524500D01*
X93091339Y-79527479D01*
X92920197Y-79563855D01*
X92920192Y-79563857D01*
X92747270Y-79640848D01*
X92747265Y-79640851D01*
X92594129Y-79752111D01*
X92467466Y-79892785D01*
X92372821Y-80056715D01*
X92372818Y-80056722D01*
X92324892Y-80204224D01*
X92314326Y-80236744D01*
X92299521Y-80377605D01*
X92294540Y-80425000D01*
X92309922Y-80571354D01*
X92297352Y-80640084D01*
X92249620Y-80691107D01*
X92237040Y-80697593D01*
X92207268Y-80710849D01*
X92054129Y-80822111D01*
X91927466Y-80962785D01*
X91832821Y-81126715D01*
X91832818Y-81126722D01*
X91783043Y-81279915D01*
X91774326Y-81306744D01*
X91754540Y-81495000D01*
X80969589Y-81495000D01*
X82132772Y-80331819D01*
X82194095Y-80298334D01*
X82220453Y-80295500D01*
X82279644Y-80295500D01*
X82279646Y-80295500D01*
X82464803Y-80256144D01*
X82637730Y-80179151D01*
X82790871Y-80067888D01*
X82917533Y-79927216D01*
X83012179Y-79763284D01*
X83070674Y-79583256D01*
X83090460Y-79395000D01*
X83070674Y-79206744D01*
X83012179Y-79026716D01*
X82917533Y-78862784D01*
X82790871Y-78722112D01*
X82790870Y-78722111D01*
X82637734Y-78610851D01*
X82637729Y-78610848D01*
X82501064Y-78550000D01*
X96094540Y-78550000D01*
X96114326Y-78738256D01*
X96114327Y-78738259D01*
X96172818Y-78918277D01*
X96172821Y-78918284D01*
X96267467Y-79082216D01*
X96346143Y-79169594D01*
X96394129Y-79222888D01*
X96547265Y-79334148D01*
X96547270Y-79334151D01*
X96720192Y-79411142D01*
X96720197Y-79411144D01*
X96905354Y-79450500D01*
X96905355Y-79450500D01*
X97094644Y-79450500D01*
X97094646Y-79450500D01*
X97279803Y-79411144D01*
X97452730Y-79334151D01*
X97605871Y-79222888D01*
X97732533Y-79082216D01*
X97827179Y-78918284D01*
X97885674Y-78738256D01*
X97905460Y-78550000D01*
X97885674Y-78361744D01*
X97857489Y-78275000D01*
X104169540Y-78275000D01*
X104189326Y-78463256D01*
X104189327Y-78463259D01*
X104247818Y-78643277D01*
X104247821Y-78643284D01*
X104342467Y-78807216D01*
X104450421Y-78927111D01*
X104469129Y-78947888D01*
X104622265Y-79059148D01*
X104622270Y-79059151D01*
X104795192Y-79136142D01*
X104795197Y-79136144D01*
X104980354Y-79175500D01*
X104980355Y-79175500D01*
X105169644Y-79175500D01*
X105169646Y-79175500D01*
X105354803Y-79136144D01*
X105527730Y-79059151D01*
X105680871Y-78947888D01*
X105807533Y-78807216D01*
X105902179Y-78643284D01*
X105916243Y-78600000D01*
X122969540Y-78600000D01*
X122989326Y-78788256D01*
X122989327Y-78788259D01*
X123047818Y-78968277D01*
X123047821Y-78968284D01*
X123142467Y-79132216D01*
X123232063Y-79231722D01*
X123269129Y-79272888D01*
X123422265Y-79384148D01*
X123422270Y-79384151D01*
X123595192Y-79461142D01*
X123595197Y-79461144D01*
X123780354Y-79500500D01*
X123780355Y-79500500D01*
X123969644Y-79500500D01*
X123969646Y-79500500D01*
X124154803Y-79461144D01*
X124327730Y-79384151D01*
X124480871Y-79272888D01*
X124607533Y-79132216D01*
X124702179Y-78968284D01*
X124760674Y-78788256D01*
X124767322Y-78725000D01*
X125594540Y-78725000D01*
X125614326Y-78913256D01*
X125614327Y-78913259D01*
X125672818Y-79093277D01*
X125672821Y-79093284D01*
X125767467Y-79257216D01*
X125881757Y-79384148D01*
X125894129Y-79397888D01*
X126047265Y-79509148D01*
X126047270Y-79509151D01*
X126220192Y-79586142D01*
X126220197Y-79586144D01*
X126405354Y-79625500D01*
X126405355Y-79625500D01*
X126594644Y-79625500D01*
X126594646Y-79625500D01*
X126779803Y-79586144D01*
X126952730Y-79509151D01*
X127105871Y-79397888D01*
X127232533Y-79257216D01*
X127327179Y-79093284D01*
X127333120Y-79075001D01*
X138420274Y-79075001D01*
X138439152Y-79338960D01*
X138495400Y-79597528D01*
X138587884Y-79845487D01*
X138714701Y-80077735D01*
X138714706Y-80077743D01*
X138802038Y-80194406D01*
X138802039Y-80194406D01*
X139484409Y-79512036D01*
X139491284Y-79527478D01*
X139602486Y-79680534D01*
X139743080Y-79807126D01*
X139840297Y-79863254D01*
X139155592Y-80547959D01*
X139155593Y-80547960D01*
X139272256Y-80635293D01*
X139272264Y-80635298D01*
X139504513Y-80762115D01*
X139504512Y-80762115D01*
X139752471Y-80854599D01*
X140011039Y-80910847D01*
X140274999Y-80929726D01*
X140275001Y-80929726D01*
X140538960Y-80910847D01*
X140797528Y-80854599D01*
X141045487Y-80762115D01*
X141277735Y-80635298D01*
X141277736Y-80635297D01*
X141394406Y-80547959D01*
X140709702Y-79863254D01*
X140806920Y-79807126D01*
X140947514Y-79680534D01*
X141058716Y-79527479D01*
X141065590Y-79512037D01*
X141747959Y-80194406D01*
X141835297Y-80077736D01*
X141835298Y-80077735D01*
X141962115Y-79845487D01*
X142054599Y-79597528D01*
X142110847Y-79338960D01*
X142129726Y-79075001D01*
X142129726Y-79074998D01*
X142110847Y-78811039D01*
X142054599Y-78552471D01*
X141962115Y-78304512D01*
X141835298Y-78072264D01*
X141835293Y-78072256D01*
X141747960Y-77955593D01*
X141747959Y-77955592D01*
X141065590Y-78637961D01*
X141058716Y-78622522D01*
X140947514Y-78469466D01*
X140806920Y-78342874D01*
X140709701Y-78286745D01*
X141394406Y-77602039D01*
X141394406Y-77602038D01*
X141277743Y-77514706D01*
X141277735Y-77514701D01*
X141045486Y-77387884D01*
X141045487Y-77387884D01*
X140797528Y-77295400D01*
X140538960Y-77239152D01*
X140275001Y-77220274D01*
X140274999Y-77220274D01*
X140011039Y-77239152D01*
X139752471Y-77295400D01*
X139504512Y-77387884D01*
X139272264Y-77514701D01*
X139155593Y-77602039D01*
X139840298Y-78286744D01*
X139743080Y-78342874D01*
X139602486Y-78469466D01*
X139491284Y-78622521D01*
X139484408Y-78637962D01*
X138802039Y-77955593D01*
X138714701Y-78072264D01*
X138587884Y-78304512D01*
X138495400Y-78552471D01*
X138439152Y-78811039D01*
X138420274Y-79074998D01*
X138420274Y-79075001D01*
X127333120Y-79075001D01*
X127385674Y-78913256D01*
X127405460Y-78725000D01*
X127385674Y-78536744D01*
X127327179Y-78356716D01*
X127232533Y-78192784D01*
X127105871Y-78052112D01*
X127058624Y-78017785D01*
X126952734Y-77940851D01*
X126952729Y-77940848D01*
X126779807Y-77863857D01*
X126779802Y-77863855D01*
X126634001Y-77832865D01*
X126594646Y-77824500D01*
X126405354Y-77824500D01*
X126372897Y-77831398D01*
X126220197Y-77863855D01*
X126220192Y-77863857D01*
X126047270Y-77940848D01*
X126047265Y-77940851D01*
X125894129Y-78052111D01*
X125767466Y-78192785D01*
X125672821Y-78356715D01*
X125672818Y-78356722D01*
X125615264Y-78533856D01*
X125614326Y-78536744D01*
X125594540Y-78725000D01*
X124767322Y-78725000D01*
X124780460Y-78600000D01*
X124760674Y-78411744D01*
X124702179Y-78231716D01*
X124607533Y-78067784D01*
X124480871Y-77927112D01*
X124458893Y-77911144D01*
X124327734Y-77815851D01*
X124327729Y-77815848D01*
X124154807Y-77738857D01*
X124154802Y-77738855D01*
X124009001Y-77707865D01*
X123969646Y-77699500D01*
X123780354Y-77699500D01*
X123747897Y-77706398D01*
X123595197Y-77738855D01*
X123595192Y-77738857D01*
X123422270Y-77815848D01*
X123422265Y-77815851D01*
X123269129Y-77927111D01*
X123142466Y-78067785D01*
X123047821Y-78231715D01*
X123047818Y-78231722D01*
X123005573Y-78361740D01*
X122989326Y-78411744D01*
X122969540Y-78600000D01*
X105916243Y-78600000D01*
X105960674Y-78463256D01*
X105980460Y-78275000D01*
X105960674Y-78086744D01*
X105902179Y-77906716D01*
X105807533Y-77742784D01*
X105680871Y-77602112D01*
X105680771Y-77602039D01*
X105527734Y-77490851D01*
X105527729Y-77490848D01*
X105354807Y-77413857D01*
X105354802Y-77413855D01*
X105209001Y-77382865D01*
X105169646Y-77374500D01*
X104980354Y-77374500D01*
X104947897Y-77381398D01*
X104795197Y-77413855D01*
X104795192Y-77413857D01*
X104622270Y-77490848D01*
X104622265Y-77490851D01*
X104469129Y-77602111D01*
X104342466Y-77742785D01*
X104247821Y-77906715D01*
X104247818Y-77906722D01*
X104195486Y-78067785D01*
X104189326Y-78086744D01*
X104169540Y-78275000D01*
X97857489Y-78275000D01*
X97827179Y-78181716D01*
X97732533Y-78017784D01*
X97605871Y-77877112D01*
X97587626Y-77863856D01*
X97452734Y-77765851D01*
X97452729Y-77765848D01*
X97279807Y-77688857D01*
X97279802Y-77688855D01*
X97134001Y-77657865D01*
X97094646Y-77649500D01*
X96905354Y-77649500D01*
X96872897Y-77656398D01*
X96720197Y-77688855D01*
X96720192Y-77688857D01*
X96547270Y-77765848D01*
X96547265Y-77765851D01*
X96394129Y-77877111D01*
X96267466Y-78017785D01*
X96172821Y-78181715D01*
X96172818Y-78181722D01*
X96114327Y-78361740D01*
X96114326Y-78361744D01*
X96094540Y-78550000D01*
X82501064Y-78550000D01*
X82464807Y-78533857D01*
X82464802Y-78533855D01*
X82319001Y-78502865D01*
X82279646Y-78494500D01*
X82090354Y-78494500D01*
X82057897Y-78501398D01*
X81905197Y-78533855D01*
X81905192Y-78533857D01*
X81732270Y-78610848D01*
X81732265Y-78610851D01*
X81579129Y-78722111D01*
X81452466Y-78862785D01*
X81357821Y-79026715D01*
X81357818Y-79026722D01*
X81299335Y-79206715D01*
X81299326Y-79206744D01*
X81285430Y-79338960D01*
X81281679Y-79374649D01*
X81255094Y-79439263D01*
X81246039Y-79449368D01*
X79512227Y-81183181D01*
X79450904Y-81216666D01*
X79424546Y-81219500D01*
X79265354Y-81219500D01*
X79247820Y-81223227D01*
X79080197Y-81258855D01*
X79080192Y-81258857D01*
X78907270Y-81335848D01*
X78907265Y-81335851D01*
X78754129Y-81447111D01*
X78627466Y-81587785D01*
X78532821Y-81751715D01*
X78532818Y-81751722D01*
X78478699Y-81918284D01*
X78474326Y-81931744D01*
X78454540Y-82120000D01*
X71870500Y-82120000D01*
X71870500Y-79575000D01*
X72344540Y-79575000D01*
X72364326Y-79763256D01*
X72364327Y-79763259D01*
X72422818Y-79943277D01*
X72422821Y-79943284D01*
X72517467Y-80107216D01*
X72604813Y-80204223D01*
X72644129Y-80247888D01*
X72797265Y-80359148D01*
X72797270Y-80359151D01*
X72970192Y-80436142D01*
X72970197Y-80436144D01*
X73155354Y-80475500D01*
X73155355Y-80475500D01*
X73344644Y-80475500D01*
X73344646Y-80475500D01*
X73529803Y-80436144D01*
X73702730Y-80359151D01*
X73855871Y-80247888D01*
X73982533Y-80107216D01*
X74077179Y-79943284D01*
X74135674Y-79763256D01*
X74152832Y-79600000D01*
X78194540Y-79600000D01*
X78214326Y-79788256D01*
X78214327Y-79788259D01*
X78272818Y-79968277D01*
X78272821Y-79968284D01*
X78367467Y-80132216D01*
X78461581Y-80236740D01*
X78494129Y-80272888D01*
X78647265Y-80384148D01*
X78647270Y-80384151D01*
X78820192Y-80461142D01*
X78820197Y-80461144D01*
X79005354Y-80500500D01*
X79005355Y-80500500D01*
X79194644Y-80500500D01*
X79194646Y-80500500D01*
X79379803Y-80461144D01*
X79552730Y-80384151D01*
X79705871Y-80272888D01*
X79832533Y-80132216D01*
X79927179Y-79968284D01*
X79985674Y-79788256D01*
X80005460Y-79600000D01*
X79985674Y-79411744D01*
X79927179Y-79231716D01*
X79832533Y-79067784D01*
X79705871Y-78927112D01*
X79705870Y-78927111D01*
X79552734Y-78815851D01*
X79552729Y-78815848D01*
X79379807Y-78738857D01*
X79379802Y-78738855D01*
X79234001Y-78707865D01*
X79194646Y-78699500D01*
X79005354Y-78699500D01*
X78972897Y-78706398D01*
X78820197Y-78738855D01*
X78820192Y-78738857D01*
X78647270Y-78815848D01*
X78647265Y-78815851D01*
X78494129Y-78927111D01*
X78367466Y-79067785D01*
X78272821Y-79231715D01*
X78272818Y-79231722D01*
X78214521Y-79411144D01*
X78214326Y-79411744D01*
X78194540Y-79600000D01*
X74152832Y-79600000D01*
X74155460Y-79575000D01*
X74135674Y-79386744D01*
X74077179Y-79206716D01*
X73982533Y-79042784D01*
X73855871Y-78902112D01*
X73801742Y-78862785D01*
X73702734Y-78790851D01*
X73702729Y-78790848D01*
X73529807Y-78713857D01*
X73529802Y-78713855D01*
X73384001Y-78682865D01*
X73344646Y-78674500D01*
X73155354Y-78674500D01*
X73122897Y-78681398D01*
X72970197Y-78713855D01*
X72970192Y-78713857D01*
X72797270Y-78790848D01*
X72797265Y-78790851D01*
X72644129Y-78902111D01*
X72517466Y-79042785D01*
X72422821Y-79206715D01*
X72422818Y-79206722D01*
X72364327Y-79386740D01*
X72364326Y-79386744D01*
X72344540Y-79575000D01*
X71870500Y-79575000D01*
X71870500Y-77050000D01*
X77944540Y-77050000D01*
X77964326Y-77238256D01*
X77964327Y-77238259D01*
X78022818Y-77418277D01*
X78022821Y-77418284D01*
X78117467Y-77582216D01*
X78213487Y-77688857D01*
X78244129Y-77722888D01*
X78397265Y-77834148D01*
X78397270Y-77834151D01*
X78570192Y-77911142D01*
X78570197Y-77911144D01*
X78755354Y-77950500D01*
X78755355Y-77950500D01*
X78944644Y-77950500D01*
X78944646Y-77950500D01*
X79129803Y-77911144D01*
X79302730Y-77834151D01*
X79455871Y-77722888D01*
X79582533Y-77582216D01*
X79677179Y-77418284D01*
X79735674Y-77238256D01*
X79755460Y-77050000D01*
X99169540Y-77050000D01*
X99189326Y-77238256D01*
X99189327Y-77238259D01*
X99247818Y-77418277D01*
X99247821Y-77418284D01*
X99342467Y-77582216D01*
X99438487Y-77688857D01*
X99469129Y-77722888D01*
X99622265Y-77834148D01*
X99622270Y-77834151D01*
X99795192Y-77911142D01*
X99795197Y-77911144D01*
X99980354Y-77950500D01*
X99980355Y-77950500D01*
X100169644Y-77950500D01*
X100169646Y-77950500D01*
X100354803Y-77911144D01*
X100527730Y-77834151D01*
X100680871Y-77722888D01*
X100807533Y-77582216D01*
X100902179Y-77418284D01*
X100960674Y-77238256D01*
X100971012Y-77139897D01*
X106952959Y-77139897D01*
X106972745Y-77328153D01*
X106972746Y-77328156D01*
X107031237Y-77508174D01*
X107031240Y-77508181D01*
X107125886Y-77672113D01*
X107252548Y-77812785D01*
X107405684Y-77924045D01*
X107405689Y-77924048D01*
X107578611Y-78001039D01*
X107578616Y-78001041D01*
X107763773Y-78040397D01*
X107763774Y-78040397D01*
X107953063Y-78040397D01*
X107953065Y-78040397D01*
X108138222Y-78001041D01*
X108311149Y-77924048D01*
X108464290Y-77812785D01*
X108590952Y-77672113D01*
X108685598Y-77508181D01*
X108744093Y-77328153D01*
X108763879Y-77139897D01*
X108744093Y-76951641D01*
X108685598Y-76771613D01*
X108590952Y-76607681D01*
X108464290Y-76467009D01*
X108464289Y-76467008D01*
X108311153Y-76355748D01*
X108311148Y-76355745D01*
X108138226Y-76278754D01*
X108138221Y-76278752D01*
X107992420Y-76247762D01*
X107953065Y-76239397D01*
X107763773Y-76239397D01*
X107731316Y-76246295D01*
X107578616Y-76278752D01*
X107578611Y-76278754D01*
X107405689Y-76355745D01*
X107405684Y-76355748D01*
X107252548Y-76467008D01*
X107125885Y-76607682D01*
X107031240Y-76771612D01*
X107031237Y-76771619D01*
X107001954Y-76861744D01*
X106972745Y-76951641D01*
X106952959Y-77139897D01*
X100971012Y-77139897D01*
X100980460Y-77050000D01*
X100960674Y-76861744D01*
X100902179Y-76681716D01*
X100807533Y-76517784D01*
X100680871Y-76377112D01*
X100651466Y-76355748D01*
X100527734Y-76265851D01*
X100527729Y-76265848D01*
X100354807Y-76188857D01*
X100354802Y-76188855D01*
X100209001Y-76157865D01*
X100169646Y-76149500D01*
X99980354Y-76149500D01*
X99947897Y-76156398D01*
X99795197Y-76188855D01*
X99795192Y-76188857D01*
X99622270Y-76265848D01*
X99622265Y-76265851D01*
X99469129Y-76377111D01*
X99342466Y-76517785D01*
X99247821Y-76681715D01*
X99247818Y-76681722D01*
X99189327Y-76861740D01*
X99189326Y-76861744D01*
X99169540Y-77050000D01*
X79755460Y-77050000D01*
X79735674Y-76861744D01*
X79677179Y-76681716D01*
X79582533Y-76517784D01*
X79455871Y-76377112D01*
X79426466Y-76355748D01*
X79302734Y-76265851D01*
X79302729Y-76265848D01*
X79129807Y-76188857D01*
X79129802Y-76188855D01*
X78984001Y-76157865D01*
X78944646Y-76149500D01*
X78755354Y-76149500D01*
X78722897Y-76156398D01*
X78570197Y-76188855D01*
X78570192Y-76188857D01*
X78397270Y-76265848D01*
X78397265Y-76265851D01*
X78244129Y-76377111D01*
X78117466Y-76517785D01*
X78022821Y-76681715D01*
X78022818Y-76681722D01*
X77964327Y-76861740D01*
X77964326Y-76861744D01*
X77944540Y-77050000D01*
X71870500Y-77050000D01*
X71870500Y-75850000D01*
X72469540Y-75850000D01*
X72489326Y-76038256D01*
X72489327Y-76038259D01*
X72547818Y-76218277D01*
X72547821Y-76218284D01*
X72642467Y-76382216D01*
X72718815Y-76467009D01*
X72769129Y-76522888D01*
X72922265Y-76634148D01*
X72922270Y-76634151D01*
X73095192Y-76711142D01*
X73095197Y-76711144D01*
X73280354Y-76750500D01*
X73280355Y-76750500D01*
X73469644Y-76750500D01*
X73469646Y-76750500D01*
X73654803Y-76711144D01*
X73827730Y-76634151D01*
X73980871Y-76522888D01*
X74107533Y-76382216D01*
X74202179Y-76218284D01*
X74260674Y-76038256D01*
X74280460Y-75850000D01*
X74260674Y-75661744D01*
X74202179Y-75481716D01*
X74107533Y-75317784D01*
X73980871Y-75177112D01*
X73980870Y-75177111D01*
X73867854Y-75095000D01*
X92279540Y-75095000D01*
X92299326Y-75283256D01*
X92299327Y-75283259D01*
X92357818Y-75463277D01*
X92357821Y-75463284D01*
X92452467Y-75627216D01*
X92540898Y-75725428D01*
X92579129Y-75767888D01*
X92732265Y-75879148D01*
X92732270Y-75879151D01*
X92905192Y-75956142D01*
X92905197Y-75956144D01*
X93090354Y-75995500D01*
X93090355Y-75995500D01*
X93279644Y-75995500D01*
X93279646Y-75995500D01*
X93464803Y-75956144D01*
X93637730Y-75879151D01*
X93790871Y-75767888D01*
X93795657Y-75762573D01*
X93829103Y-75725428D01*
X93888590Y-75688779D01*
X93921253Y-75684400D01*
X99163242Y-75684400D01*
X99179428Y-75685461D01*
X99209999Y-75689486D01*
X99210000Y-75689486D01*
X99210001Y-75689486D01*
X99226035Y-75687374D01*
X99363864Y-75669229D01*
X99507243Y-75609840D01*
X99630365Y-75515365D01*
X99649137Y-75490899D01*
X99659832Y-75478705D01*
X99681718Y-75456819D01*
X99743041Y-75423334D01*
X99769399Y-75420500D01*
X99879644Y-75420500D01*
X99879646Y-75420500D01*
X100064803Y-75381144D01*
X100237730Y-75304151D01*
X100390871Y-75192888D01*
X100517533Y-75052216D01*
X100612179Y-74888284D01*
X100670674Y-74708256D01*
X100679424Y-74625000D01*
X119194540Y-74625000D01*
X119214326Y-74813256D01*
X119214327Y-74813259D01*
X119272818Y-74993277D01*
X119272821Y-74993284D01*
X119367467Y-75157216D01*
X119480954Y-75283256D01*
X119494129Y-75297888D01*
X119647265Y-75409148D01*
X119647270Y-75409151D01*
X119820192Y-75486142D01*
X119820197Y-75486144D01*
X120005354Y-75525500D01*
X120005355Y-75525500D01*
X120194644Y-75525500D01*
X120194646Y-75525500D01*
X120379803Y-75486144D01*
X120552730Y-75409151D01*
X120705871Y-75297888D01*
X120832533Y-75157216D01*
X120927179Y-74993284D01*
X120985674Y-74813256D01*
X121005460Y-74625000D01*
X120985674Y-74436744D01*
X120927179Y-74256716D01*
X120832533Y-74092784D01*
X120816521Y-74075001D01*
X138419773Y-74075001D01*
X138438657Y-74339027D01*
X138438658Y-74339034D01*
X138494921Y-74597673D01*
X138587426Y-74845690D01*
X138587428Y-74845694D01*
X138714280Y-75078005D01*
X138714285Y-75078013D01*
X138872906Y-75289907D01*
X138872922Y-75289925D01*
X139060074Y-75477077D01*
X139060092Y-75477093D01*
X139271986Y-75635714D01*
X139271994Y-75635719D01*
X139504305Y-75762571D01*
X139504309Y-75762573D01*
X139504311Y-75762574D01*
X139752322Y-75855077D01*
X139752325Y-75855077D01*
X139752326Y-75855078D01*
X139862975Y-75879148D01*
X140010974Y-75911343D01*
X140254660Y-75928772D01*
X140274999Y-75930227D01*
X140275000Y-75930227D01*
X140275001Y-75930227D01*
X140293885Y-75928876D01*
X140539026Y-75911343D01*
X140797678Y-75855077D01*
X141045689Y-75762574D01*
X141278011Y-75635716D01*
X141489915Y-75477087D01*
X141677087Y-75289915D01*
X141835716Y-75078011D01*
X141962574Y-74845689D01*
X142055077Y-74597678D01*
X142111343Y-74339026D01*
X142130227Y-74075000D01*
X142111343Y-73810974D01*
X142055077Y-73552322D01*
X141962574Y-73304311D01*
X141835716Y-73071989D01*
X141835714Y-73071986D01*
X141677093Y-72860092D01*
X141677077Y-72860074D01*
X141489925Y-72672922D01*
X141489907Y-72672906D01*
X141278013Y-72514285D01*
X141278005Y-72514280D01*
X141045694Y-72387428D01*
X141045690Y-72387426D01*
X140797673Y-72294921D01*
X140539034Y-72238658D01*
X140539027Y-72238657D01*
X140275001Y-72219773D01*
X140274999Y-72219773D01*
X140010972Y-72238657D01*
X140010965Y-72238658D01*
X139752326Y-72294921D01*
X139504309Y-72387426D01*
X139504305Y-72387428D01*
X139271994Y-72514280D01*
X139271986Y-72514285D01*
X139060092Y-72672906D01*
X139060074Y-72672922D01*
X138872922Y-72860074D01*
X138872906Y-72860092D01*
X138714285Y-73071986D01*
X138714280Y-73071994D01*
X138587428Y-73304305D01*
X138587426Y-73304309D01*
X138494921Y-73552326D01*
X138438658Y-73810965D01*
X138438657Y-73810972D01*
X138419773Y-74074998D01*
X138419773Y-74075001D01*
X120816521Y-74075001D01*
X120705871Y-73952112D01*
X120705870Y-73952111D01*
X120552734Y-73840851D01*
X120552729Y-73840848D01*
X120379807Y-73763857D01*
X120379802Y-73763855D01*
X120234001Y-73732865D01*
X120194646Y-73724500D01*
X120005354Y-73724500D01*
X119972897Y-73731398D01*
X119820197Y-73763855D01*
X119820192Y-73763857D01*
X119647270Y-73840848D01*
X119647265Y-73840851D01*
X119494129Y-73952111D01*
X119367466Y-74092785D01*
X119272821Y-74256715D01*
X119272818Y-74256722D01*
X119219080Y-74422112D01*
X119214326Y-74436744D01*
X119194540Y-74625000D01*
X100679424Y-74625000D01*
X100690460Y-74520000D01*
X100670674Y-74331744D01*
X100612179Y-74151716D01*
X100517533Y-73987784D01*
X100390871Y-73847112D01*
X100390870Y-73847111D01*
X100237734Y-73735851D01*
X100237729Y-73735848D01*
X100064807Y-73658857D01*
X100064802Y-73658855D01*
X99919001Y-73627865D01*
X99879646Y-73619500D01*
X99690354Y-73619500D01*
X99657897Y-73626398D01*
X99505197Y-73658855D01*
X99505192Y-73658857D01*
X99332270Y-73735848D01*
X99332265Y-73735851D01*
X99179129Y-73847111D01*
X99052466Y-73987785D01*
X98957821Y-74151715D01*
X98957818Y-74151722D01*
X98899327Y-74331739D01*
X98899326Y-74331741D01*
X98892724Y-74394562D01*
X98866139Y-74459177D01*
X98808842Y-74499161D01*
X98769403Y-74505600D01*
X93921253Y-74505600D01*
X93854214Y-74485915D01*
X93829103Y-74464572D01*
X93790876Y-74422116D01*
X93790869Y-74422110D01*
X93637734Y-74310851D01*
X93637729Y-74310848D01*
X93464807Y-74233857D01*
X93464802Y-74233855D01*
X93319001Y-74202865D01*
X93279646Y-74194500D01*
X93090354Y-74194500D01*
X93057897Y-74201398D01*
X92905197Y-74233855D01*
X92905192Y-74233857D01*
X92732270Y-74310848D01*
X92732265Y-74310851D01*
X92579129Y-74422111D01*
X92452466Y-74562785D01*
X92357821Y-74726715D01*
X92357818Y-74726722D01*
X92319162Y-74845694D01*
X92299326Y-74906744D01*
X92279540Y-75095000D01*
X73867854Y-75095000D01*
X73827734Y-75065851D01*
X73827729Y-75065848D01*
X73654807Y-74988857D01*
X73654802Y-74988855D01*
X73509001Y-74957865D01*
X73469646Y-74949500D01*
X73280354Y-74949500D01*
X73247897Y-74956398D01*
X73095197Y-74988855D01*
X73095192Y-74988857D01*
X72922270Y-75065848D01*
X72922265Y-75065851D01*
X72769129Y-75177111D01*
X72642466Y-75317785D01*
X72547821Y-75481715D01*
X72547818Y-75481722D01*
X72497783Y-75635716D01*
X72489326Y-75661744D01*
X72469540Y-75850000D01*
X71870500Y-75850000D01*
X71870500Y-65592763D01*
X73895787Y-65592763D01*
X73925413Y-65862013D01*
X73925415Y-65862024D01*
X73982152Y-66079045D01*
X73993928Y-66124088D01*
X74099870Y-66373390D01*
X74215955Y-66563602D01*
X74240979Y-66604605D01*
X74240986Y-66604615D01*
X74414253Y-66812819D01*
X74414259Y-66812824D01*
X74519240Y-66906887D01*
X74615998Y-66993582D01*
X74841910Y-67143044D01*
X75087176Y-67258020D01*
X75087183Y-67258022D01*
X75087185Y-67258023D01*
X75346557Y-67336057D01*
X75346564Y-67336058D01*
X75346569Y-67336060D01*
X75614561Y-67375500D01*
X75614566Y-67375500D01*
X75817629Y-67375500D01*
X75817631Y-67375500D01*
X75817636Y-67375499D01*
X75817648Y-67375499D01*
X75855191Y-67372750D01*
X76020156Y-67360677D01*
X76132758Y-67335593D01*
X76284546Y-67301782D01*
X76284548Y-67301781D01*
X76284553Y-67301780D01*
X76537558Y-67205014D01*
X76773777Y-67072441D01*
X76988177Y-66906888D01*
X77176186Y-66711881D01*
X77277693Y-66570001D01*
X82955274Y-66570001D01*
X82974152Y-66833960D01*
X83030400Y-67092528D01*
X83122884Y-67340487D01*
X83249701Y-67572735D01*
X83249706Y-67572743D01*
X83337038Y-67689406D01*
X83337039Y-67689406D01*
X84019409Y-67007036D01*
X84026284Y-67022478D01*
X84137486Y-67175534D01*
X84278080Y-67302126D01*
X84375297Y-67358254D01*
X83690592Y-68042959D01*
X83690593Y-68042960D01*
X83807256Y-68130293D01*
X83807264Y-68130298D01*
X84039513Y-68257115D01*
X84039512Y-68257115D01*
X84287471Y-68349599D01*
X84546039Y-68405847D01*
X84809999Y-68424726D01*
X84810001Y-68424726D01*
X85073960Y-68405847D01*
X85332528Y-68349599D01*
X85580487Y-68257115D01*
X85812735Y-68130298D01*
X85812736Y-68130297D01*
X85929406Y-68042959D01*
X85244702Y-67358254D01*
X85341920Y-67302126D01*
X85482514Y-67175534D01*
X85593716Y-67022479D01*
X85600590Y-67007037D01*
X86282959Y-67689406D01*
X86370297Y-67572736D01*
X86370298Y-67572735D01*
X86497115Y-67340487D01*
X86589599Y-67092528D01*
X86645847Y-66833960D01*
X86664726Y-66570001D01*
X87954773Y-66570001D01*
X87973657Y-66834027D01*
X87973658Y-66834034D01*
X88029921Y-67092673D01*
X88122426Y-67340690D01*
X88122428Y-67340694D01*
X88249280Y-67573005D01*
X88249285Y-67573013D01*
X88407906Y-67784907D01*
X88407922Y-67784925D01*
X88595074Y-67972077D01*
X88595092Y-67972093D01*
X88806986Y-68130714D01*
X88806994Y-68130719D01*
X89039305Y-68257571D01*
X89039309Y-68257573D01*
X89039311Y-68257574D01*
X89287322Y-68350077D01*
X89287325Y-68350077D01*
X89287326Y-68350078D01*
X89482552Y-68392546D01*
X89545974Y-68406343D01*
X89789660Y-68423772D01*
X89809999Y-68425227D01*
X89810000Y-68425227D01*
X89810001Y-68425227D01*
X89828885Y-68423876D01*
X90074026Y-68406343D01*
X90332678Y-68350077D01*
X90533968Y-68275000D01*
X117794540Y-68275000D01*
X117814326Y-68463256D01*
X117814327Y-68463259D01*
X117872818Y-68643277D01*
X117872821Y-68643284D01*
X117967467Y-68807216D01*
X118094129Y-68947888D01*
X118247265Y-69059148D01*
X118247270Y-69059151D01*
X118420192Y-69136142D01*
X118420197Y-69136144D01*
X118605354Y-69175500D01*
X118605355Y-69175500D01*
X118794644Y-69175500D01*
X118794646Y-69175500D01*
X118979803Y-69136144D01*
X119152730Y-69059151D01*
X119305871Y-68947888D01*
X119432533Y-68807216D01*
X119451132Y-68775002D01*
X129769579Y-68775002D01*
X129789248Y-69137782D01*
X129789250Y-69137799D01*
X129848024Y-69496303D01*
X129848030Y-69496329D01*
X129945221Y-69846381D01*
X129945226Y-69846396D01*
X130079700Y-70183901D01*
X130079706Y-70183913D01*
X130249878Y-70504892D01*
X130249881Y-70504897D01*
X130249883Y-70504900D01*
X130453773Y-70805614D01*
X130688979Y-71082521D01*
X130952746Y-71332375D01*
X131241981Y-71552245D01*
X131553292Y-71739555D01*
X131553294Y-71739556D01*
X131553296Y-71739557D01*
X131553300Y-71739559D01*
X131883020Y-71892103D01*
X131883031Y-71892108D01*
X132227330Y-72008116D01*
X132582153Y-72086218D01*
X132943341Y-72125500D01*
X132943347Y-72125500D01*
X133306653Y-72125500D01*
X133306659Y-72125500D01*
X133667847Y-72086218D01*
X134022670Y-72008116D01*
X134366969Y-71892108D01*
X134696708Y-71739555D01*
X135008019Y-71552245D01*
X135297254Y-71332375D01*
X135561021Y-71082521D01*
X135796227Y-70805614D01*
X136000117Y-70504900D01*
X136170298Y-70183905D01*
X136304775Y-69846391D01*
X136401973Y-69496316D01*
X136460751Y-69137785D01*
X136480421Y-68775000D01*
X136460751Y-68412215D01*
X136459788Y-68406343D01*
X136401975Y-68053696D01*
X136401974Y-68053695D01*
X136401973Y-68053684D01*
X136361169Y-67906722D01*
X136304778Y-67703618D01*
X136304773Y-67703603D01*
X136189328Y-67413857D01*
X136170298Y-67366095D01*
X136052043Y-67143042D01*
X136000121Y-67045107D01*
X136000119Y-67045104D01*
X136000117Y-67045100D01*
X135796227Y-66744386D01*
X135561021Y-66467479D01*
X135297254Y-66217625D01*
X135297244Y-66217617D01*
X135221936Y-66160370D01*
X135008019Y-65997755D01*
X134696708Y-65810445D01*
X134696707Y-65810444D01*
X134696703Y-65810442D01*
X134696699Y-65810440D01*
X134366979Y-65657896D01*
X134366974Y-65657894D01*
X134366969Y-65657892D01*
X134199143Y-65601344D01*
X134173675Y-65592763D01*
X137895787Y-65592763D01*
X137925413Y-65862013D01*
X137925415Y-65862024D01*
X137982152Y-66079045D01*
X137993928Y-66124088D01*
X138099870Y-66373390D01*
X138215955Y-66563602D01*
X138240979Y-66604605D01*
X138240986Y-66604615D01*
X138414253Y-66812819D01*
X138414259Y-66812824D01*
X138519240Y-66906887D01*
X138615998Y-66993582D01*
X138841910Y-67143044D01*
X139087176Y-67258020D01*
X139087183Y-67258022D01*
X139087185Y-67258023D01*
X139346557Y-67336057D01*
X139346564Y-67336058D01*
X139346569Y-67336060D01*
X139614561Y-67375500D01*
X139614566Y-67375500D01*
X139817629Y-67375500D01*
X139817631Y-67375500D01*
X139817636Y-67375499D01*
X139817648Y-67375499D01*
X139855191Y-67372750D01*
X140020156Y-67360677D01*
X140132758Y-67335593D01*
X140284546Y-67301782D01*
X140284548Y-67301781D01*
X140284553Y-67301780D01*
X140537558Y-67205014D01*
X140773777Y-67072441D01*
X140988177Y-66906888D01*
X141176186Y-66711881D01*
X141333799Y-66491579D01*
X141412555Y-66338398D01*
X141457649Y-66250690D01*
X141457651Y-66250684D01*
X141457656Y-66250675D01*
X141545118Y-65994305D01*
X141594319Y-65727933D01*
X141604212Y-65457235D01*
X141574586Y-65187982D01*
X141506072Y-64925912D01*
X141400130Y-64676610D01*
X141259018Y-64445390D01*
X141229300Y-64409680D01*
X141085746Y-64237180D01*
X141085740Y-64237175D01*
X140884002Y-64056418D01*
X140658092Y-63906957D01*
X140658090Y-63906956D01*
X140412824Y-63791980D01*
X140412819Y-63791978D01*
X140412814Y-63791976D01*
X140153442Y-63713942D01*
X140153428Y-63713939D01*
X140037791Y-63696921D01*
X139885439Y-63674500D01*
X139682369Y-63674500D01*
X139682351Y-63674500D01*
X139479844Y-63689323D01*
X139479831Y-63689325D01*
X139215453Y-63748217D01*
X139215446Y-63748220D01*
X138962439Y-63844987D01*
X138726226Y-63977557D01*
X138726224Y-63977558D01*
X138726223Y-63977559D01*
X138706700Y-63992634D01*
X138511822Y-64143112D01*
X138323822Y-64338109D01*
X138323816Y-64338116D01*
X138166202Y-64558419D01*
X138166199Y-64558424D01*
X138042350Y-64799309D01*
X138042343Y-64799327D01*
X137954884Y-65055685D01*
X137954881Y-65055699D01*
X137905681Y-65322068D01*
X137905680Y-65322075D01*
X137895787Y-65592763D01*
X134173675Y-65592763D01*
X134022669Y-65541883D01*
X133667845Y-65463781D01*
X133306660Y-65424500D01*
X133306659Y-65424500D01*
X132943341Y-65424500D01*
X132943339Y-65424500D01*
X132582154Y-65463781D01*
X132227330Y-65541883D01*
X131990338Y-65621736D01*
X131883031Y-65657892D01*
X131883028Y-65657893D01*
X131883020Y-65657896D01*
X131553300Y-65810440D01*
X131553296Y-65810442D01*
X131467585Y-65862013D01*
X131241981Y-65997755D01*
X131215002Y-66018264D01*
X130952755Y-66217617D01*
X130952745Y-66217625D01*
X130688978Y-66467479D01*
X130453772Y-66744386D01*
X130249884Y-67045098D01*
X130249878Y-67045107D01*
X130079706Y-67366086D01*
X130079700Y-67366098D01*
X129945226Y-67703603D01*
X129945221Y-67703618D01*
X129848030Y-68053670D01*
X129848024Y-68053696D01*
X129789250Y-68412200D01*
X129789248Y-68412217D01*
X129769579Y-68774997D01*
X129769579Y-68775002D01*
X119451132Y-68775002D01*
X119527179Y-68643284D01*
X119585674Y-68463256D01*
X119605460Y-68275000D01*
X119585674Y-68086744D01*
X119527179Y-67906716D01*
X119432533Y-67742784D01*
X119305871Y-67602112D01*
X119265817Y-67573011D01*
X119152734Y-67490851D01*
X119152729Y-67490848D01*
X118979807Y-67413857D01*
X118979802Y-67413855D01*
X118834001Y-67382865D01*
X118794646Y-67374500D01*
X118605354Y-67374500D01*
X118572897Y-67381398D01*
X118420197Y-67413855D01*
X118420192Y-67413857D01*
X118247270Y-67490848D01*
X118247265Y-67490851D01*
X118094129Y-67602111D01*
X117967466Y-67742785D01*
X117872821Y-67906715D01*
X117872818Y-67906722D01*
X117825064Y-68053696D01*
X117814326Y-68086744D01*
X117794540Y-68275000D01*
X90533968Y-68275000D01*
X90580689Y-68257574D01*
X90813011Y-68130716D01*
X91024915Y-67972087D01*
X91212087Y-67784915D01*
X91370716Y-67573011D01*
X91497574Y-67340689D01*
X91590077Y-67092678D01*
X91646343Y-66834026D01*
X91665227Y-66570000D01*
X91664769Y-66563602D01*
X91662525Y-66532230D01*
X91646343Y-66305974D01*
X91595011Y-66070000D01*
X101542869Y-66070000D01*
X101610122Y-66251591D01*
X101610126Y-66251598D01*
X101715019Y-66419883D01*
X101851633Y-66563601D01*
X101851635Y-66563602D01*
X102014390Y-66676884D01*
X102196615Y-66755082D01*
X102390000Y-66794823D01*
X102390000Y-66080497D01*
X102462912Y-66095000D01*
X102817088Y-66095000D01*
X102890000Y-66080497D01*
X102890000Y-66789858D01*
X102987279Y-66779967D01*
X103176471Y-66720607D01*
X103176486Y-66720600D01*
X103349856Y-66624372D01*
X103349861Y-66624369D01*
X103500315Y-66495208D01*
X103500317Y-66495207D01*
X103621693Y-66338402D01*
X103621695Y-66338398D01*
X103709022Y-66160370D01*
X103732420Y-66070000D01*
X106542869Y-66070000D01*
X106610122Y-66251591D01*
X106610126Y-66251598D01*
X106715019Y-66419883D01*
X106851633Y-66563601D01*
X106851635Y-66563602D01*
X107014390Y-66676884D01*
X107196615Y-66755082D01*
X107390000Y-66794823D01*
X107390000Y-66080497D01*
X107462912Y-66095000D01*
X107817088Y-66095000D01*
X107890000Y-66080497D01*
X107890000Y-66789858D01*
X107987279Y-66779967D01*
X108176471Y-66720607D01*
X108176486Y-66720600D01*
X108349856Y-66624372D01*
X108349861Y-66624369D01*
X108500315Y-66495208D01*
X108500317Y-66495207D01*
X108621693Y-66338402D01*
X108621695Y-66338398D01*
X108709022Y-66160370D01*
X108732420Y-66070000D01*
X107910837Y-66070000D01*
X107940769Y-66050000D01*
X127744540Y-66050000D01*
X127764326Y-66238256D01*
X127764327Y-66238259D01*
X127822818Y-66418277D01*
X127822821Y-66418284D01*
X127917467Y-66582216D01*
X127955422Y-66624369D01*
X128044129Y-66722888D01*
X128197265Y-66834148D01*
X128197270Y-66834151D01*
X128370192Y-66911142D01*
X128370197Y-66911144D01*
X128555354Y-66950500D01*
X128555355Y-66950500D01*
X128744644Y-66950500D01*
X128744646Y-66950500D01*
X128929803Y-66911144D01*
X129102730Y-66834151D01*
X129255871Y-66722888D01*
X129382533Y-66582216D01*
X129477179Y-66418284D01*
X129535674Y-66238256D01*
X129555460Y-66050000D01*
X129535674Y-65861744D01*
X129477179Y-65681716D01*
X129382533Y-65517784D01*
X129255871Y-65377112D01*
X129225563Y-65355092D01*
X129102734Y-65265851D01*
X129102729Y-65265848D01*
X128929807Y-65188857D01*
X128929802Y-65188855D01*
X128784001Y-65157865D01*
X128744646Y-65149500D01*
X128555354Y-65149500D01*
X128522897Y-65156398D01*
X128370197Y-65188855D01*
X128370192Y-65188857D01*
X128197270Y-65265848D01*
X128197265Y-65265851D01*
X128044129Y-65377111D01*
X127917466Y-65517785D01*
X127822821Y-65681715D01*
X127822818Y-65681722D01*
X127764327Y-65861740D01*
X127764326Y-65861744D01*
X127744540Y-66050000D01*
X107940769Y-66050000D01*
X107988264Y-66018264D01*
X108049045Y-65927300D01*
X108070388Y-65820000D01*
X108049045Y-65712700D01*
X107988264Y-65621736D01*
X107910837Y-65570000D01*
X108737130Y-65570000D01*
X108737130Y-65569999D01*
X108669877Y-65388408D01*
X108669873Y-65388401D01*
X108564980Y-65220116D01*
X108428366Y-65076398D01*
X108428364Y-65076397D01*
X108265609Y-64963115D01*
X108083384Y-64884917D01*
X107890000Y-64845175D01*
X107890000Y-65559502D01*
X107817088Y-65545000D01*
X107462912Y-65545000D01*
X107390000Y-65559502D01*
X107390000Y-64850140D01*
X107389999Y-64850140D01*
X107292716Y-64860034D01*
X107103528Y-64919392D01*
X107103513Y-64919399D01*
X106930143Y-65015627D01*
X106930138Y-65015630D01*
X106779684Y-65144791D01*
X106779682Y-65144792D01*
X106658306Y-65301597D01*
X106658304Y-65301601D01*
X106570977Y-65479629D01*
X106547579Y-65569999D01*
X106547580Y-65570000D01*
X107369163Y-65570000D01*
X107291736Y-65621736D01*
X107230955Y-65712700D01*
X107209612Y-65820000D01*
X107230955Y-65927300D01*
X107291736Y-66018264D01*
X107369163Y-66070000D01*
X106542869Y-66070000D01*
X103732420Y-66070000D01*
X102910837Y-66070000D01*
X102988264Y-66018264D01*
X103049045Y-65927300D01*
X103070388Y-65820000D01*
X103049045Y-65712700D01*
X102988264Y-65621736D01*
X102910837Y-65570000D01*
X103737130Y-65570000D01*
X103737130Y-65569999D01*
X103669877Y-65388408D01*
X103669873Y-65388401D01*
X103564980Y-65220116D01*
X103428366Y-65076398D01*
X103428364Y-65076397D01*
X103265609Y-64963115D01*
X103083384Y-64884917D01*
X102890000Y-64845175D01*
X102890000Y-65559502D01*
X102817088Y-65545000D01*
X102462912Y-65545000D01*
X102390000Y-65559502D01*
X102390000Y-64850140D01*
X102389999Y-64850140D01*
X102292716Y-64860034D01*
X102103528Y-64919392D01*
X102103513Y-64919399D01*
X101930143Y-65015627D01*
X101930138Y-65015630D01*
X101779684Y-65144791D01*
X101779682Y-65144792D01*
X101658306Y-65301597D01*
X101658304Y-65301601D01*
X101570977Y-65479629D01*
X101547579Y-65569999D01*
X101547580Y-65570000D01*
X102369163Y-65570000D01*
X102291736Y-65621736D01*
X102230955Y-65712700D01*
X102209612Y-65820000D01*
X102230955Y-65927300D01*
X102291736Y-66018264D01*
X102369163Y-66070000D01*
X101542869Y-66070000D01*
X91595011Y-66070000D01*
X91590660Y-66050000D01*
X91590078Y-66047326D01*
X91579238Y-66018264D01*
X91497574Y-65799311D01*
X91458598Y-65727933D01*
X91370719Y-65566994D01*
X91370714Y-65566986D01*
X91212093Y-65355092D01*
X91212077Y-65355074D01*
X91024925Y-65167922D01*
X91024907Y-65167906D01*
X90813013Y-65009285D01*
X90813005Y-65009280D01*
X90580694Y-64882428D01*
X90580690Y-64882426D01*
X90332673Y-64789921D01*
X90074034Y-64733658D01*
X90074027Y-64733657D01*
X89810001Y-64714773D01*
X89809999Y-64714773D01*
X89545972Y-64733657D01*
X89545965Y-64733658D01*
X89287326Y-64789921D01*
X89039309Y-64882426D01*
X89039305Y-64882428D01*
X88806994Y-65009280D01*
X88806986Y-65009285D01*
X88595092Y-65167906D01*
X88595074Y-65167922D01*
X88407922Y-65355074D01*
X88407906Y-65355092D01*
X88249285Y-65566986D01*
X88249280Y-65566994D01*
X88122428Y-65799305D01*
X88122426Y-65799309D01*
X88029921Y-66047326D01*
X87973658Y-66305965D01*
X87973657Y-66305972D01*
X87954773Y-66569998D01*
X87954773Y-66570001D01*
X86664726Y-66570001D01*
X86664726Y-66569998D01*
X86645847Y-66306039D01*
X86589599Y-66047471D01*
X86497115Y-65799512D01*
X86370298Y-65567264D01*
X86370293Y-65567256D01*
X86282960Y-65450593D01*
X86282959Y-65450592D01*
X85600590Y-66132961D01*
X85593716Y-66117522D01*
X85482514Y-65964466D01*
X85341920Y-65837874D01*
X85244701Y-65781745D01*
X85929406Y-65097039D01*
X85929406Y-65097038D01*
X85812743Y-65009706D01*
X85812735Y-65009701D01*
X85580486Y-64882884D01*
X85580487Y-64882884D01*
X85332528Y-64790400D01*
X85073960Y-64734152D01*
X84810001Y-64715274D01*
X84809999Y-64715274D01*
X84546039Y-64734152D01*
X84287471Y-64790400D01*
X84039512Y-64882884D01*
X83807264Y-65009701D01*
X83690593Y-65097039D01*
X84375298Y-65781744D01*
X84278080Y-65837874D01*
X84137486Y-65964466D01*
X84026284Y-66117521D01*
X84019408Y-66132962D01*
X83337039Y-65450593D01*
X83249701Y-65567264D01*
X83122884Y-65799512D01*
X83030400Y-66047471D01*
X82974152Y-66306039D01*
X82955274Y-66569998D01*
X82955274Y-66570001D01*
X77277693Y-66570001D01*
X77333799Y-66491579D01*
X77412555Y-66338398D01*
X77457649Y-66250690D01*
X77457651Y-66250684D01*
X77457656Y-66250675D01*
X77545118Y-65994305D01*
X77594319Y-65727933D01*
X77604212Y-65457235D01*
X77574586Y-65187982D01*
X77506072Y-64925912D01*
X77400130Y-64676610D01*
X77259018Y-64445390D01*
X77229300Y-64409680D01*
X77085746Y-64237180D01*
X77085740Y-64237175D01*
X76884002Y-64056418D01*
X76685364Y-63925000D01*
X94394341Y-63925000D01*
X94414936Y-64160403D01*
X94414938Y-64160413D01*
X94476094Y-64388655D01*
X94476096Y-64388659D01*
X94476097Y-64388663D01*
X94555256Y-64558419D01*
X94575965Y-64602830D01*
X94575967Y-64602834D01*
X94627626Y-64676610D01*
X94711505Y-64796401D01*
X94878599Y-64963495D01*
X94955135Y-65017086D01*
X95072165Y-65099032D01*
X95072167Y-65099033D01*
X95072170Y-65099035D01*
X95286337Y-65198903D01*
X95514592Y-65260063D01*
X95685319Y-65275000D01*
X95749999Y-65280659D01*
X95750000Y-65280659D01*
X95750001Y-65280659D01*
X95814681Y-65275000D01*
X95985408Y-65260063D01*
X96213663Y-65198903D01*
X96427830Y-65099035D01*
X96621401Y-64963495D01*
X96743717Y-64841178D01*
X96805036Y-64807696D01*
X96874728Y-64812680D01*
X96930662Y-64854551D01*
X96947577Y-64885528D01*
X96996646Y-65017088D01*
X96996649Y-65017093D01*
X97082809Y-65132187D01*
X97082812Y-65132190D01*
X97197906Y-65218350D01*
X97197913Y-65218354D01*
X97332620Y-65268596D01*
X97332627Y-65268598D01*
X97392155Y-65274999D01*
X97392172Y-65275000D01*
X98040000Y-65275000D01*
X98040000Y-64360501D01*
X98147685Y-64409680D01*
X98254237Y-64425000D01*
X98325763Y-64425000D01*
X98432315Y-64409680D01*
X98540000Y-64360501D01*
X98540000Y-65275000D01*
X99187828Y-65275000D01*
X99187844Y-65274999D01*
X99247372Y-65268598D01*
X99247379Y-65268596D01*
X99382086Y-65218354D01*
X99382093Y-65218350D01*
X99497187Y-65132190D01*
X99497190Y-65132187D01*
X99583350Y-65017093D01*
X99583354Y-65017086D01*
X99633596Y-64882379D01*
X99633598Y-64882372D01*
X99639999Y-64822844D01*
X99640000Y-64822827D01*
X99640000Y-64175000D01*
X98723686Y-64175000D01*
X98749493Y-64134844D01*
X98790000Y-63996889D01*
X98790000Y-63853111D01*
X98749493Y-63715156D01*
X98723686Y-63675000D01*
X99640000Y-63675000D01*
X99640000Y-63027172D01*
X99639999Y-63027155D01*
X99633598Y-62967627D01*
X99633596Y-62967620D01*
X99583354Y-62832913D01*
X99583350Y-62832906D01*
X99497190Y-62717812D01*
X99497187Y-62717809D01*
X99382093Y-62631649D01*
X99382086Y-62631645D01*
X99247379Y-62581403D01*
X99247372Y-62581401D01*
X99187844Y-62575000D01*
X98540000Y-62575000D01*
X98540000Y-63489498D01*
X98432315Y-63440320D01*
X98325763Y-63425000D01*
X98254237Y-63425000D01*
X98147685Y-63440320D01*
X98040000Y-63489498D01*
X98040000Y-62575000D01*
X97392155Y-62575000D01*
X97332627Y-62581401D01*
X97332620Y-62581403D01*
X97197913Y-62631645D01*
X97197906Y-62631649D01*
X97082812Y-62717809D01*
X97082809Y-62717812D01*
X96996649Y-62832906D01*
X96996645Y-62832913D01*
X96947578Y-62964470D01*
X96905707Y-63020404D01*
X96840242Y-63044821D01*
X96771969Y-63029969D01*
X96743715Y-63008819D01*
X96682784Y-62947888D01*
X96621401Y-62886505D01*
X96621397Y-62886502D01*
X96621396Y-62886501D01*
X96427834Y-62750967D01*
X96427830Y-62750965D01*
X96356673Y-62717784D01*
X96213663Y-62651097D01*
X96213659Y-62651096D01*
X96213655Y-62651094D01*
X95985413Y-62589938D01*
X95985403Y-62589936D01*
X95750001Y-62569341D01*
X95749999Y-62569341D01*
X95514596Y-62589936D01*
X95514586Y-62589938D01*
X95286344Y-62651094D01*
X95286335Y-62651098D01*
X95072171Y-62750964D01*
X95072169Y-62750965D01*
X94878597Y-62886505D01*
X94711505Y-63053597D01*
X94575965Y-63247169D01*
X94575964Y-63247171D01*
X94476098Y-63461335D01*
X94476094Y-63461344D01*
X94414938Y-63689586D01*
X94414936Y-63689596D01*
X94394341Y-63924999D01*
X94394341Y-63925000D01*
X76685364Y-63925000D01*
X76658092Y-63906957D01*
X76658090Y-63906956D01*
X76412824Y-63791980D01*
X76412819Y-63791978D01*
X76412814Y-63791976D01*
X76153442Y-63713942D01*
X76153428Y-63713939D01*
X76037791Y-63696921D01*
X75885439Y-63674500D01*
X75682369Y-63674500D01*
X75682351Y-63674500D01*
X75479844Y-63689323D01*
X75479831Y-63689325D01*
X75215453Y-63748217D01*
X75215446Y-63748220D01*
X74962439Y-63844987D01*
X74726226Y-63977557D01*
X74726224Y-63977558D01*
X74726223Y-63977559D01*
X74706700Y-63992634D01*
X74511822Y-64143112D01*
X74323822Y-64338109D01*
X74323816Y-64338116D01*
X74166202Y-64558419D01*
X74166199Y-64558424D01*
X74042350Y-64799309D01*
X74042343Y-64799327D01*
X73954884Y-65055685D01*
X73954881Y-65055699D01*
X73905681Y-65322068D01*
X73905680Y-65322075D01*
X73895787Y-65592763D01*
X71870500Y-65592763D01*
X71870500Y-61844500D01*
X71890185Y-61777461D01*
X71942989Y-61731706D01*
X71994500Y-61720500D01*
X101135984Y-61720500D01*
X101203023Y-61740185D01*
G37*
%TD.AperFunction*%
%TD*%
M02*
