M48
; DRILL file {KiCad 7.0.10-7.0.10~ubuntu22.04.1} date Tue 26 Nov 2024 12:39:40 AM EST
; FORMAT={-:-/ absolute / inch / decimal}
; #@! TF.CreationDate,2024-11-26T00:39:40-05:00
; #@! TF.GenerationSoftware,Kicad,Pcbnew,7.0.10-7.0.10~ubuntu22.04.1
; #@! TF.FileFunction,Plated,1,4,PTH
FMAT,2
INCH
; #@! TA.AperFunction,Plated,PTH,ViaDrill
T1C0.0157
; #@! TA.AperFunction,Plated,PTH,ComponentDrill
T2C0.0197
; #@! TA.AperFunction,Plated,PTH,ComponentDrill
T3C0.0217
; #@! TA.AperFunction,Plated,PTH,ComponentDrill
T4C0.0394
; #@! TA.AperFunction,Plated,PTH,ComponentDrill
T5C0.0472
; #@! TA.AperFunction,Plated,PTH,ComponentDrill
T6C0.0709
; #@! TA.AperFunction,Plated,PTH,ComponentDrill
T7C0.1260
%
G90
G05
T1
X2.876Y-3.9783
X2.8799Y-4.0994
X2.8839Y-3.1329
X2.8868Y-2.7687
X2.8888Y-2.9862
X2.8907Y-4.251
X2.8927Y-2.9045
X2.9331Y-2.8327
X2.935Y-4.0374
X2.9498Y-4.2008
X2.9508Y-4.3051
X3.0463Y-3.2343
X3.0679Y-2.8986
X3.0689Y-2.7795
X3.0915Y-3.9793
X3.1043Y-3.0335
X3.1142Y-3.1339
X3.1213Y-4.2666
X3.122Y-4.376
X3.1244Y-3.2331
X3.1447Y-4.0335
X3.2037Y-4.4439
X3.2096Y-4.3248
X3.2136Y-2.501
X3.2185Y-4.6329
X3.2356Y-3.1258
X3.248Y-3.9262
X3.31Y-3.8159
X3.3307Y-2.748
X3.3622Y-4.4459
X3.3947Y-4.6358
X3.4065Y-3.2461
X3.436Y-3.9764
X3.4587Y-2.499
X3.4734Y-3.3327
X3.4754Y-3.0071
X3.5925Y-3.686
X3.5945Y-3.5984
X3.6063Y-4.0413
X3.6073Y-3.9862
X3.6388Y-3.8711
X3.648Y-3.2085
X3.6506Y-4.0413
X3.6516Y-3.9852
X3.6516Y-4.1762
X3.6687Y-2.9565
X3.6693Y-3.1663
X3.6703Y-3.5984
X3.6939Y-3.9852
X3.6939Y-4.0443
X3.7087Y-3.7362
X3.7116Y-3.564
X3.7116Y-3.6388
X3.7156Y-3.5118
X3.7474Y-3.3187
X3.7539Y-4.0581
X3.812Y-3.3681
X3.813Y-3.2874
X3.8189Y-3.0925
X3.8396Y-4.3858
X3.8406Y-3.7421
X3.8514Y-3.6348
X3.8533Y-3.503
X3.875Y-3.5738
X3.9281Y-3.9242
X3.9285Y-2.9339
X3.94Y-3.0335
X3.9498Y-4.1132
X3.9715Y-3.9222
X3.9833Y-3.6043
X3.9882Y-2.5541
X3.9941Y-4.4823
X4.0492Y-4.1929
X4.062Y-3.6053
X4.076Y-3.1272
X4.078Y-3.1626
X4.0807Y-3.202
X4.115Y-3.128
X4.1165Y-3.1634
X4.1181Y-3.2035
X4.124Y-3.5197
X4.1368Y-3.0817
X4.1531Y-3.1291
X4.1547Y-3.1661
X4.1567Y-3.2035
X4.2464Y-3.037
X4.2697Y-3.5177
X4.2825Y-4.628
X4.2844Y-3.5935
X4.2884Y-4.5463
X4.3179Y-3.8071
X4.3347Y-3.7711
X4.3432Y-3.191
X4.3445Y-3.2303
X4.3455Y-3.7333
X4.3504Y-2.7283
X4.3514Y-3.5197
X4.3986Y-3.4823
X4.4154Y-3.686
X4.4193Y-3.9035
X4.4262Y-3.2884
X4.4606Y-3.873
X4.474Y-3.1786
X4.4911Y-3.8366
X4.4921Y-3.0167
X4.5522Y-3.9232
X4.56Y-3.5817
X4.5635Y-3.8844
X4.5768Y-3.2106
X4.5906Y-3.5566
X4.6081Y-3.4624
X4.6093Y-3.8888
X4.6191Y-3.4193
X4.622Y-2.8346
X4.623Y-2.875
X4.623Y-2.9213
X4.623Y-2.9646
X4.623Y-3.0118
X4.623Y-3.0512
X4.623Y-3.0925
X4.623Y-3.9892
X4.6348Y-3.1299
X4.6624Y-3.1565
X4.6732Y-2.688
X4.6791Y-3.9616
X4.6909Y-3.185
X4.6998Y-2.999
X4.7156Y-3.7165
X4.7283Y-2.938
X4.7461Y-4.3652
X4.7657Y-3.815
X4.7854Y-3.7187
X4.7884Y-3.8907
X4.8061Y-3.8041
X4.813Y-2.6841
X4.8258Y-2.5364
X4.8474Y-3.94
X4.8504Y-4.4902
X4.877Y-3.0945
X4.8976Y-3.7165
X4.9232Y-2.4902
X4.9409Y-3.8898
X4.9508Y-3.8031
X4.9518Y-2.56
X4.9606Y-2.5305
X4.9636Y-2.5039
X4.9803Y-3.0994
X5.0108Y-3.3701
X5.0148Y-2.4518
X5.0148Y-4.3898
X5.0502Y-2.4596
X5.065Y-2.6004
X5.0797Y-3.3209
X5.128Y-3.7815
X5.148Y-3.9594
X5.166Y-4.1079
X5.2037Y-3.7805
X5.2041Y-4.6002
X5.2185Y-4.1398
X5.2274Y-3.8671
X5.25Y-2.501
X5.3085Y-4.6012
X5.3346Y-3.7264
X5.3602Y-4.0059
X5.4587Y-3.9547
X5.5512Y-3.7687
X5.6142Y-3.8199
T4
X3.7661Y-4.5957
X3.7697Y-2.5167
X3.8661Y-4.5957
X3.8697Y-2.5167
X4.0081Y-4.5953
X4.1081Y-4.5953
X4.4498Y-4.6142
X4.5498Y-4.6142
X4.7461Y-4.6161
X4.8461Y-4.6161
X5.3827Y-3.4762
X5.3831Y-3.6179
X5.3833Y-3.3344
X5.4827Y-3.4762
X5.4831Y-3.6179
X5.4833Y-3.3344
X5.5827Y-3.4762
X5.5831Y-3.6179
X5.5833Y-3.3344
T5
X4.2392Y-4.0205
X4.2392Y-4.2205
X4.2392Y-4.4205
X4.4911Y-4.0197
X4.4911Y-4.2197
X4.4911Y-4.4197
T6
X3.3222Y-4.5343
X3.339Y-2.6209
X3.5191Y-4.5343
X3.5358Y-2.6209
X5.5226Y-2.9163
X5.5226Y-3.1132
T7
X5.2411Y-2.7077
T2
G00X4.0016Y-2.4978
M15
G01X4.0016Y-2.4722
M16
G05
G00X4.2772Y-2.4978
M15
G01X4.2772Y-2.4722
M16
G05
T3
G00X4.0469Y-2.5913
M15
G01X4.035Y-2.5913
M16
G05
G00X4.2437Y-2.5913
M15
G01X4.2319Y-2.5913
M16
G05
M30
