%TF.GenerationSoftware,KiCad,Pcbnew,7.0.10-7.0.10~ubuntu22.04.1*%
%TF.CreationDate,2024-11-26T00:39:38-05:00*%
%TF.ProjectId,Chimera,4368696d-6572-4612-9e6b-696361645f70,rev?*%
%TF.SameCoordinates,Original*%
%TF.FileFunction,Legend,Bot*%
%TF.FilePolarity,Positive*%
%FSLAX46Y46*%
G04 Gerber Fmt 4.6, Leading zero omitted, Abs format (unit mm)*
G04 Created by KiCad (PCBNEW 7.0.10-7.0.10~ubuntu22.04.1) date 2024-11-26 00:39:38*
%MOMM*%
%LPD*%
G01*
G04 APERTURE LIST*
%ADD10C,0.150000*%
%ADD11C,0.508000*%
%ADD12C,0.120000*%
G04 APERTURE END LIST*
D10*
X122966666Y-65204819D02*
X123299999Y-64728628D01*
X123538094Y-65204819D02*
X123538094Y-64204819D01*
X123538094Y-64204819D02*
X123157142Y-64204819D01*
X123157142Y-64204819D02*
X123061904Y-64252438D01*
X123061904Y-64252438D02*
X123014285Y-64300057D01*
X123014285Y-64300057D02*
X122966666Y-64395295D01*
X122966666Y-64395295D02*
X122966666Y-64538152D01*
X122966666Y-64538152D02*
X123014285Y-64633390D01*
X123014285Y-64633390D02*
X123061904Y-64681009D01*
X123061904Y-64681009D02*
X123157142Y-64728628D01*
X123157142Y-64728628D02*
X123538094Y-64728628D01*
X122633332Y-64204819D02*
X122014285Y-64204819D01*
X122014285Y-64204819D02*
X122347618Y-64585771D01*
X122347618Y-64585771D02*
X122204761Y-64585771D01*
X122204761Y-64585771D02*
X122109523Y-64633390D01*
X122109523Y-64633390D02*
X122061904Y-64681009D01*
X122061904Y-64681009D02*
X122014285Y-64776247D01*
X122014285Y-64776247D02*
X122014285Y-65014342D01*
X122014285Y-65014342D02*
X122061904Y-65109580D01*
X122061904Y-65109580D02*
X122109523Y-65157200D01*
X122109523Y-65157200D02*
X122204761Y-65204819D01*
X122204761Y-65204819D02*
X122490475Y-65204819D01*
X122490475Y-65204819D02*
X122585713Y-65157200D01*
X122585713Y-65157200D02*
X122633332Y-65109580D01*
D11*
%TO.C,SW1*%
X134481000Y-72769700D02*
G75*
G03*
X133719000Y-72769700I-381000J0D01*
G01*
X133719000Y-72769700D02*
G75*
G03*
X134481000Y-72769700I381000J0D01*
G01*
D12*
%TO.C,R3*%
X123014564Y-63685000D02*
X122560436Y-63685000D01*
X123014564Y-62215000D02*
X122560436Y-62215000D01*
%TD*%
M02*
