%TF.GenerationSoftware,KiCad,Pcbnew,7.0.10-7.0.10~ubuntu22.04.1*%
%TF.CreationDate,2024-11-26T00:39:38-05:00*%
%TF.ProjectId,Chimera,4368696d-6572-4612-9e6b-696361645f70,rev?*%
%TF.SameCoordinates,Original*%
%TF.FileFunction,Paste,Top*%
%TF.FilePolarity,Positive*%
%FSLAX46Y46*%
G04 Gerber Fmt 4.6, Leading zero omitted, Abs format (unit mm)*
G04 Created by KiCad (PCBNEW 7.0.10-7.0.10~ubuntu22.04.1) date 2024-11-26 00:39:38*
%MOMM*%
%LPD*%
G01*
G04 APERTURE LIST*
G04 Aperture macros list*
%AMRoundRect*
0 Rectangle with rounded corners*
0 $1 Rounding radius*
0 $2 $3 $4 $5 $6 $7 $8 $9 X,Y pos of 4 corners*
0 Add a 4 corners polygon primitive as box body*
4,1,4,$2,$3,$4,$5,$6,$7,$8,$9,$2,$3,0*
0 Add four circle primitives for the rounded corners*
1,1,$1+$1,$2,$3*
1,1,$1+$1,$4,$5*
1,1,$1+$1,$6,$7*
1,1,$1+$1,$8,$9*
0 Add four rect primitives between the rounded corners*
20,1,$1+$1,$2,$3,$4,$5,0*
20,1,$1+$1,$4,$5,$6,$7,0*
20,1,$1+$1,$6,$7,$8,$9,0*
20,1,$1+$1,$8,$9,$2,$3,0*%
G04 Aperture macros list end*
%ADD10C,0.010000*%
%ADD11RoundRect,0.250000X0.450000X-0.262500X0.450000X0.262500X-0.450000X0.262500X-0.450000X-0.262500X0*%
%ADD12RoundRect,0.250000X-0.450000X0.262500X-0.450000X-0.262500X0.450000X-0.262500X0.450000X0.262500X0*%
%ADD13R,0.660400X1.041400*%
%ADD14RoundRect,0.250000X0.475000X-0.250000X0.475000X0.250000X-0.475000X0.250000X-0.475000X-0.250000X0*%
%ADD15RoundRect,0.250000X0.262500X0.450000X-0.262500X0.450000X-0.262500X-0.450000X0.262500X-0.450000X0*%
%ADD16RoundRect,0.218750X0.218750X0.256250X-0.218750X0.256250X-0.218750X-0.256250X0.218750X-0.256250X0*%
%ADD17R,1.500000X0.900000*%
%ADD18RoundRect,0.250000X-0.262500X-0.450000X0.262500X-0.450000X0.262500X0.450000X-0.262500X0.450000X0*%
%ADD19RoundRect,0.250000X-0.475000X0.250000X-0.475000X-0.250000X0.475000X-0.250000X0.475000X0.250000X0*%
%ADD20R,1.130000X0.890000*%
%ADD21O,0.890000X1.550000*%
%ADD22O,1.250000X0.950000*%
%ADD23R,0.400000X1.350000*%
%ADD24R,1.200000X1.550000*%
%ADD25R,1.500000X1.550000*%
%ADD26RoundRect,0.250000X-0.250000X-0.475000X0.250000X-0.475000X0.250000X0.475000X-0.250000X0.475000X0*%
%ADD27R,0.600000X1.150000*%
%ADD28RoundRect,0.250000X0.250000X0.475000X-0.250000X0.475000X-0.250000X-0.475000X0.250000X-0.475000X0*%
%ADD29R,0.750000X0.800000*%
%ADD30R,1.100000X1.400000*%
%ADD31RoundRect,0.218750X-0.256250X0.218750X-0.256250X-0.218750X0.256250X-0.218750X0.256250X0.218750X0*%
%ADD32RoundRect,0.249999X-0.395001X-0.395001X0.395001X-0.395001X0.395001X0.395001X-0.395001X0.395001X0*%
%ADD33RoundRect,0.050000X-0.387500X-0.050000X0.387500X-0.050000X0.387500X0.050000X-0.387500X0.050000X0*%
%ADD34RoundRect,0.050000X-0.050000X-0.387500X0.050000X-0.387500X0.050000X0.387500X-0.050000X0.387500X0*%
%ADD35R,1.295400X3.302000*%
%ADD36R,5.105400X2.032000*%
%ADD37R,0.890000X1.130000*%
%ADD38R,2.000000X0.700000*%
%ADD39R,1.400000X2.700000*%
%ADD40R,2.600000X1.000000*%
%ADD41R,2.600000X1.500000*%
%ADD42R,1.200000X1.200000*%
%ADD43R,0.914400X1.854200*%
%ADD44R,3.200400X1.854200*%
%ADD45RoundRect,0.218750X-0.218750X-0.256250X0.218750X-0.256250X0.218750X0.256250X-0.218750X0.256250X0*%
%ADD46RoundRect,0.250000X0.350000X0.450000X-0.350000X0.450000X-0.350000X-0.450000X0.350000X-0.450000X0*%
%ADD47RoundRect,0.150000X0.625000X-0.150000X0.625000X0.150000X-0.625000X0.150000X-0.625000X-0.150000X0*%
%ADD48RoundRect,0.250000X0.650000X-0.350000X0.650000X0.350000X-0.650000X0.350000X-0.650000X-0.350000X0*%
%ADD49R,0.599999X0.249999*%
%ADD50R,0.249999X0.599999*%
%ADD51RoundRect,0.072500X-0.732500X-0.217500X0.732500X-0.217500X0.732500X0.217500X-0.732500X0.217500X0*%
%ADD52R,0.990600X0.406400*%
G04 APERTURE END LIST*
%TO.C,U6*%
D10*
X122050000Y-88425000D02*
X120800000Y-88425000D01*
X120800000Y-87925000D01*
X122050000Y-87925000D01*
X122050000Y-88425000D01*
G36*
X122050000Y-88425000D02*
G01*
X120800000Y-88425000D01*
X120800000Y-87925000D01*
X122050000Y-87925000D01*
X122050000Y-88425000D01*
G37*
X122050000Y-87575000D02*
X120800000Y-87575000D01*
X120800000Y-87275000D01*
X122050000Y-87275000D01*
X122050000Y-87575000D01*
G36*
X122050000Y-87575000D02*
G01*
X120800000Y-87575000D01*
X120800000Y-87275000D01*
X122050000Y-87275000D01*
X122050000Y-87575000D01*
G37*
X122050000Y-86925000D02*
X120800000Y-86925000D01*
X120800000Y-86625000D01*
X122050000Y-86625000D01*
X122050000Y-86925000D01*
G36*
X122050000Y-86925000D02*
G01*
X120800000Y-86925000D01*
X120800000Y-86625000D01*
X122050000Y-86625000D01*
X122050000Y-86925000D01*
G37*
X122050000Y-86275000D02*
X120800000Y-86275000D01*
X120800000Y-85975000D01*
X122050000Y-85975000D01*
X122050000Y-86275000D01*
G36*
X122050000Y-86275000D02*
G01*
X120800000Y-86275000D01*
X120800000Y-85975000D01*
X122050000Y-85975000D01*
X122050000Y-86275000D01*
G37*
X122050000Y-85625000D02*
X120800000Y-85625000D01*
X120800000Y-85325000D01*
X122050000Y-85325000D01*
X122050000Y-85625000D01*
G36*
X122050000Y-85625000D02*
G01*
X120800000Y-85625000D01*
X120800000Y-85325000D01*
X122050000Y-85325000D01*
X122050000Y-85625000D01*
G37*
X122050000Y-84975000D02*
X120800000Y-84975000D01*
X120800000Y-84675000D01*
X122050000Y-84675000D01*
X122050000Y-84975000D01*
G36*
X122050000Y-84975000D02*
G01*
X120800000Y-84975000D01*
X120800000Y-84675000D01*
X122050000Y-84675000D01*
X122050000Y-84975000D01*
G37*
X122050000Y-84325000D02*
X120800000Y-84325000D01*
X120800000Y-84025000D01*
X122050000Y-84025000D01*
X122050000Y-84325000D01*
G36*
X122050000Y-84325000D02*
G01*
X120800000Y-84325000D01*
X120800000Y-84025000D01*
X122050000Y-84025000D01*
X122050000Y-84325000D01*
G37*
X122050000Y-83675000D02*
X120800000Y-83675000D01*
X120800000Y-83175000D01*
X122050000Y-83175000D01*
X122050000Y-83675000D01*
G36*
X122050000Y-83675000D02*
G01*
X120800000Y-83675000D01*
X120800000Y-83175000D01*
X122050000Y-83175000D01*
X122050000Y-83675000D01*
G37*
X116200000Y-88425000D02*
X114950000Y-88425000D01*
X114950000Y-87925000D01*
X116200000Y-87925000D01*
X116200000Y-88425000D01*
G36*
X116200000Y-88425000D02*
G01*
X114950000Y-88425000D01*
X114950000Y-87925000D01*
X116200000Y-87925000D01*
X116200000Y-88425000D01*
G37*
X116200000Y-87575000D02*
X114950000Y-87575000D01*
X114950000Y-87275000D01*
X116200000Y-87275000D01*
X116200000Y-87575000D01*
G36*
X116200000Y-87575000D02*
G01*
X114950000Y-87575000D01*
X114950000Y-87275000D01*
X116200000Y-87275000D01*
X116200000Y-87575000D01*
G37*
X116200000Y-86925000D02*
X114950000Y-86925000D01*
X114950000Y-86625000D01*
X116200000Y-86625000D01*
X116200000Y-86925000D01*
G36*
X116200000Y-86925000D02*
G01*
X114950000Y-86925000D01*
X114950000Y-86625000D01*
X116200000Y-86625000D01*
X116200000Y-86925000D01*
G37*
X116200000Y-86275000D02*
X114950000Y-86275000D01*
X114950000Y-85975000D01*
X116200000Y-85975000D01*
X116200000Y-86275000D01*
G36*
X116200000Y-86275000D02*
G01*
X114950000Y-86275000D01*
X114950000Y-85975000D01*
X116200000Y-85975000D01*
X116200000Y-86275000D01*
G37*
X116200000Y-85625000D02*
X114950000Y-85625000D01*
X114950000Y-85325000D01*
X116200000Y-85325000D01*
X116200000Y-85625000D01*
G36*
X116200000Y-85625000D02*
G01*
X114950000Y-85625000D01*
X114950000Y-85325000D01*
X116200000Y-85325000D01*
X116200000Y-85625000D01*
G37*
X116200000Y-84975000D02*
X114950000Y-84975000D01*
X114950000Y-84675000D01*
X116200000Y-84675000D01*
X116200000Y-84975000D01*
G36*
X116200000Y-84975000D02*
G01*
X114950000Y-84975000D01*
X114950000Y-84675000D01*
X116200000Y-84675000D01*
X116200000Y-84975000D01*
G37*
X116200000Y-84325000D02*
X114950000Y-84325000D01*
X114950000Y-84025000D01*
X116200000Y-84025000D01*
X116200000Y-84325000D01*
G36*
X116200000Y-84325000D02*
G01*
X114950000Y-84325000D01*
X114950000Y-84025000D01*
X116200000Y-84025000D01*
X116200000Y-84325000D01*
G37*
X116200000Y-83675000D02*
X114950000Y-83675000D01*
X114950000Y-83175000D01*
X116200000Y-83175000D01*
X116200000Y-83675000D01*
G36*
X116200000Y-83675000D02*
G01*
X114950000Y-83675000D01*
X114950000Y-83175000D01*
X116200000Y-83175000D01*
X116200000Y-83675000D01*
G37*
%TO.C,Motor 2*%
G36*
X84035000Y-71045000D02*
G01*
X84035000Y-71844999D01*
X83985000Y-71894999D01*
X83835000Y-71894999D01*
X83785000Y-71844999D01*
X83785000Y-71045000D01*
X83835000Y-70994998D01*
X83985000Y-70994998D01*
X84035000Y-71045000D01*
G37*
G36*
X83535001Y-71045000D02*
G01*
X83535001Y-71844999D01*
X83485001Y-71894999D01*
X83335001Y-71894999D01*
X83285001Y-71844999D01*
X83285001Y-71045000D01*
X83335001Y-70994998D01*
X83485001Y-70994998D01*
X83535001Y-71045000D01*
G37*
G36*
X83034999Y-71045000D02*
G01*
X83034999Y-71844999D01*
X82984999Y-71894999D01*
X82834999Y-71894999D01*
X82784999Y-71844999D01*
X82784999Y-71045000D01*
X82834999Y-70994998D01*
X82984999Y-70994998D01*
X83034999Y-71045000D01*
G37*
G36*
X82535000Y-71045000D02*
G01*
X82535000Y-71844999D01*
X82485000Y-71894999D01*
X82335000Y-71894999D01*
X82285000Y-71844999D01*
X82285000Y-71045000D01*
X82335000Y-70994998D01*
X82485000Y-70994998D01*
X82535000Y-71045000D01*
G37*
G36*
X84510500Y-74769999D02*
G01*
X84810500Y-74769999D01*
X84860500Y-74819999D01*
X84860500Y-74969999D01*
X84810500Y-75020001D01*
X84510500Y-75019999D01*
X84510500Y-75095000D01*
X83335501Y-75095000D01*
X83285499Y-75045010D01*
X83285499Y-74744998D01*
X83335499Y-74694998D01*
X84510500Y-74694998D01*
X84510500Y-74769999D01*
G37*
G36*
X84510500Y-73869998D02*
G01*
X84810500Y-73869998D01*
X84860500Y-73919998D01*
X84860500Y-74069998D01*
X84810500Y-74120000D01*
X84510500Y-74119998D01*
X84510500Y-74194999D01*
X83335501Y-74194999D01*
X83285499Y-74145014D01*
X83285499Y-73845000D01*
X83335499Y-73795000D01*
X84510500Y-73795000D01*
X84510500Y-73869998D01*
G37*
G36*
X84510500Y-73070000D02*
G01*
X84810500Y-73070000D01*
X84860500Y-73120000D01*
X84860500Y-73270000D01*
X84810500Y-73320002D01*
X84510500Y-73319999D01*
X84510500Y-73394998D01*
X83335499Y-73395001D01*
X83285499Y-73345016D01*
X83285499Y-73044999D01*
X83335499Y-72994999D01*
X84510500Y-72994999D01*
X84510500Y-73070000D01*
G37*
G36*
X84510500Y-72169999D02*
G01*
X84810500Y-72169999D01*
X84860500Y-72219999D01*
X84860500Y-72369999D01*
X84810500Y-72420001D01*
X84510500Y-72419999D01*
X84510500Y-72495000D01*
X83335499Y-72495000D01*
X83285496Y-72445020D01*
X83285499Y-72144998D01*
X83335499Y-72094998D01*
X84510500Y-72094998D01*
X84510500Y-72169999D01*
G37*
G36*
X83034501Y-74744998D02*
G01*
X83034506Y-75045025D01*
X82984499Y-75095000D01*
X81809500Y-75095000D01*
X81809500Y-75019999D01*
X81509500Y-75020001D01*
X81459500Y-74969999D01*
X81459500Y-74820004D01*
X81509500Y-74769999D01*
X81809500Y-74769999D01*
X81809500Y-74694998D01*
X82984504Y-74694998D01*
X83034501Y-74744998D01*
G37*
G36*
X83034501Y-73845000D02*
G01*
X83034504Y-74145017D01*
X82984499Y-74194999D01*
X81809500Y-74194999D01*
X81809500Y-74119998D01*
X81509500Y-74120003D01*
X81459500Y-74069998D01*
X81459500Y-73920001D01*
X81509500Y-73869998D01*
X81809500Y-73869998D01*
X81809500Y-73795000D01*
X82984504Y-73795000D01*
X83034501Y-73845000D01*
G37*
G36*
X83034501Y-73044999D02*
G01*
X83034504Y-73345018D01*
X82984501Y-73394998D01*
X81809500Y-73394998D01*
X81809500Y-73319999D01*
X81509500Y-73320002D01*
X81459500Y-73270000D01*
X81459500Y-73120002D01*
X81509500Y-73070000D01*
X81809500Y-73070000D01*
X81809500Y-72994999D01*
X82984504Y-72994999D01*
X83034501Y-73044999D01*
G37*
G36*
X83034501Y-72144998D02*
G01*
X83034506Y-72445023D01*
X82984499Y-72495000D01*
X81809500Y-72495000D01*
X81809500Y-72419999D01*
X81509500Y-72420001D01*
X81459500Y-72369999D01*
X81459500Y-72220004D01*
X81509500Y-72169999D01*
X81809500Y-72169999D01*
X81809500Y-72094998D01*
X82984504Y-72094998D01*
X83034501Y-72144998D01*
G37*
%TO.C,U1*%
G36*
X84485000Y-109845000D02*
G01*
X84485000Y-110644999D01*
X84435000Y-110695001D01*
X84285000Y-110695001D01*
X84235000Y-110644999D01*
X84235000Y-109845000D01*
X84285000Y-109795000D01*
X84435000Y-109795000D01*
X84485000Y-109845000D01*
G37*
G36*
X84984999Y-109845000D02*
G01*
X84984999Y-110644999D01*
X84934999Y-110695001D01*
X84784999Y-110695001D01*
X84734999Y-110644999D01*
X84734999Y-109845000D01*
X84784999Y-109795000D01*
X84934999Y-109795000D01*
X84984999Y-109845000D01*
G37*
G36*
X85485001Y-109845000D02*
G01*
X85485001Y-110644999D01*
X85435001Y-110695001D01*
X85285001Y-110695001D01*
X85235001Y-110644999D01*
X85235001Y-109845000D01*
X85285001Y-109795000D01*
X85435001Y-109795000D01*
X85485001Y-109845000D01*
G37*
G36*
X85985000Y-109845000D02*
G01*
X85985000Y-110644999D01*
X85935000Y-110695001D01*
X85785000Y-110695001D01*
X85735000Y-110644999D01*
X85735000Y-109845000D01*
X85785000Y-109795000D01*
X85935000Y-109795000D01*
X85985000Y-109845000D01*
G37*
G36*
X84984501Y-106644989D02*
G01*
X84984501Y-106945001D01*
X84934501Y-106995001D01*
X83759500Y-106995001D01*
X83759500Y-106920000D01*
X83459500Y-106920000D01*
X83409500Y-106870000D01*
X83409500Y-106720000D01*
X83459500Y-106669998D01*
X83759500Y-106670000D01*
X83759500Y-106594999D01*
X84934499Y-106594999D01*
X84984501Y-106644989D01*
G37*
G36*
X84984501Y-107544985D02*
G01*
X84984501Y-107844999D01*
X84934501Y-107894999D01*
X83759500Y-107894999D01*
X83759500Y-107820001D01*
X83459500Y-107820001D01*
X83409500Y-107770001D01*
X83409500Y-107620001D01*
X83459500Y-107569999D01*
X83759500Y-107570001D01*
X83759500Y-107495000D01*
X84934499Y-107495000D01*
X84984501Y-107544985D01*
G37*
G36*
X84984501Y-108344983D02*
G01*
X84984501Y-108645000D01*
X84934501Y-108695000D01*
X83759500Y-108695000D01*
X83759500Y-108619999D01*
X83459500Y-108619999D01*
X83409500Y-108569999D01*
X83409500Y-108419999D01*
X83459500Y-108369997D01*
X83759500Y-108370000D01*
X83759500Y-108295001D01*
X84934501Y-108294998D01*
X84984501Y-108344983D01*
G37*
G36*
X84984504Y-109244979D02*
G01*
X84984501Y-109545001D01*
X84934501Y-109595001D01*
X83759500Y-109595001D01*
X83759500Y-109520000D01*
X83459500Y-109520000D01*
X83409500Y-109470000D01*
X83409500Y-109320000D01*
X83459500Y-109269998D01*
X83759500Y-109270000D01*
X83759500Y-109194999D01*
X84934501Y-109194999D01*
X84984504Y-109244979D01*
G37*
G36*
X86460500Y-106670000D02*
G01*
X86760500Y-106669998D01*
X86810500Y-106720000D01*
X86810500Y-106869995D01*
X86760500Y-106920000D01*
X86460500Y-106920000D01*
X86460500Y-106995001D01*
X85285496Y-106995001D01*
X85235499Y-106945001D01*
X85235494Y-106644974D01*
X85285501Y-106594999D01*
X86460500Y-106594999D01*
X86460500Y-106670000D01*
G37*
G36*
X86460500Y-107570001D02*
G01*
X86760500Y-107569996D01*
X86810500Y-107620001D01*
X86810500Y-107769998D01*
X86760500Y-107820001D01*
X86460500Y-107820001D01*
X86460500Y-107894999D01*
X85285496Y-107894999D01*
X85235499Y-107844999D01*
X85235496Y-107544982D01*
X85285501Y-107495000D01*
X86460500Y-107495000D01*
X86460500Y-107570001D01*
G37*
G36*
X86460500Y-108370000D02*
G01*
X86760500Y-108369997D01*
X86810500Y-108419999D01*
X86810500Y-108569997D01*
X86760500Y-108619999D01*
X86460500Y-108619999D01*
X86460500Y-108695000D01*
X85285496Y-108695000D01*
X85235499Y-108645000D01*
X85235496Y-108344981D01*
X85285499Y-108295001D01*
X86460500Y-108295001D01*
X86460500Y-108370000D01*
G37*
G36*
X86460500Y-109270000D02*
G01*
X86760500Y-109269998D01*
X86810500Y-109320000D01*
X86810500Y-109469995D01*
X86760500Y-109520000D01*
X86460500Y-109520000D01*
X86460500Y-109595001D01*
X85285496Y-109595001D01*
X85235499Y-109545001D01*
X85235494Y-109244976D01*
X85285501Y-109194999D01*
X86460500Y-109194999D01*
X86460500Y-109270000D01*
G37*
%TD*%
D11*
%TO.C,R11*%
X90160000Y-102820000D03*
X90160000Y-100995000D03*
%TD*%
D12*
%TO.C,R32*%
X104290000Y-69807500D03*
X104290000Y-71632500D03*
%TD*%
D13*
%TO.C,SW1*%
X134099999Y-75000000D03*
X134099999Y-79150000D03*
X131950001Y-75000000D03*
X131950001Y-79150000D03*
%TD*%
D14*
%TO.C,C11*%
X87160000Y-76145000D03*
X87160000Y-74245000D03*
%TD*%
D15*
%TO.C,R16*%
X79247500Y-82145000D03*
X77422500Y-82145000D03*
%TD*%
D16*
%TO.C,D7*%
X101425000Y-113850000D03*
X99850000Y-113850000D03*
%TD*%
D14*
%TO.C,C25*%
X110525000Y-89275000D03*
X110525000Y-87375000D03*
%TD*%
D17*
%TO.C,D12*%
X134760000Y-106895000D03*
X134760000Y-103595000D03*
X129860000Y-103595000D03*
X129860000Y-106895000D03*
%TD*%
D11*
%TO.C,R2*%
X119375000Y-78000000D03*
X119375000Y-76175000D03*
%TD*%
D16*
%TO.C,D8*%
X108787500Y-117550000D03*
X107212500Y-117550000D03*
%TD*%
D18*
%TO.C,R22*%
X95687500Y-111400000D03*
X97512500Y-111400000D03*
%TD*%
D19*
%TO.C,C26*%
X98210000Y-68810000D03*
X98210000Y-70710000D03*
%TD*%
D20*
%TO.C,C6*%
X126225000Y-81765000D03*
X126225000Y-80025000D03*
%TD*%
D21*
%TO.C,J9*%
X108640000Y-63120000D03*
D22*
X107640000Y-65820000D03*
X102640000Y-65820000D03*
D21*
X101640000Y-63120000D03*
D23*
X106440000Y-65820000D03*
X105790000Y-65820000D03*
X105140000Y-65820000D03*
X104490000Y-65820000D03*
X103840000Y-65820000D03*
D24*
X108040000Y-63120000D03*
D25*
X106140000Y-63120000D03*
X104140000Y-63120000D03*
D24*
X102240000Y-63120000D03*
%TD*%
D26*
%TO.C,C17*%
X95160000Y-78495000D03*
X97060000Y-78495000D03*
%TD*%
D27*
%TO.C,IC1*%
X130760000Y-97970000D03*
X129810000Y-97970000D03*
X128860000Y-97970000D03*
X128860000Y-100570000D03*
X130760000Y-100570000D03*
%TD*%
D28*
%TO.C,C20*%
X112375000Y-83550000D03*
X110475000Y-83550000D03*
%TD*%
D18*
%TO.C,R44*%
X137687500Y-94800000D03*
X139512500Y-94800000D03*
%TD*%
D20*
%TO.C,C7*%
X124525000Y-81770000D03*
X124525000Y-80030000D03*
%TD*%
D29*
%TO.C,D2*%
X132135000Y-111445000D03*
X132135000Y-113045000D03*
%TD*%
D17*
%TO.C,D11*%
X127335000Y-106920000D03*
X127335000Y-103620000D03*
X122435000Y-103620000D03*
X122435000Y-106920000D03*
%TD*%
D12*
%TO.C,R19*%
X129225000Y-85600000D03*
X129225000Y-87425000D03*
%TD*%
D11*
%TO.C,R7*%
X95325000Y-100825000D03*
X95325000Y-99000000D03*
%TD*%
D30*
%TO.C,X1*%
X103149999Y-89330000D03*
X103149999Y-91530000D03*
X104750001Y-91530000D03*
X104750001Y-89330000D03*
%TD*%
D12*
%TO.C,R8*%
X142625000Y-95137500D03*
X142625000Y-96962500D03*
%TD*%
D31*
%TO.C,D9*%
X118225000Y-112762500D03*
X118225000Y-114337500D03*
%TD*%
D12*
%TO.C,R13*%
X85535000Y-80595000D03*
X85535000Y-82420000D03*
%TD*%
D28*
%TO.C,C28*%
X114090000Y-76610000D03*
X112190000Y-76610000D03*
%TD*%
D11*
%TO.C,R33*%
X106260000Y-71632500D03*
X106260000Y-69807500D03*
%TD*%
%TO.C,R36*%
X129900000Y-83100000D03*
X129900000Y-81275000D03*
%TD*%
D19*
%TO.C,C21*%
X100250000Y-68820000D03*
X100250000Y-70720000D03*
%TD*%
D18*
%TO.C,R43*%
X138562500Y-100500000D03*
X140387500Y-100500000D03*
%TD*%
D12*
%TO.C,R15*%
X89510000Y-80595000D03*
X89510000Y-82420000D03*
%TD*%
D32*
%TO.C,U3*%
X103842500Y-79750000D03*
X103842500Y-81350000D03*
X105442500Y-79750000D03*
X105442500Y-81350000D03*
D33*
X101205000Y-77950000D03*
X101205000Y-78350000D03*
X101205000Y-78750000D03*
X101205000Y-79150000D03*
X101205000Y-79550000D03*
X101205000Y-79950000D03*
X101205000Y-80350000D03*
X101205000Y-80750000D03*
X101205000Y-81150000D03*
X101205000Y-81550000D03*
X101205000Y-81950000D03*
X101205000Y-82350000D03*
X101205000Y-82750000D03*
X101205000Y-83150000D03*
D34*
X102042500Y-83987500D03*
X102442500Y-83987500D03*
X102842500Y-83987500D03*
X103242500Y-83987500D03*
X103642500Y-83987500D03*
X104042500Y-83987500D03*
X104442500Y-83987500D03*
X104842500Y-83987500D03*
X105242500Y-83987500D03*
X105642500Y-83987500D03*
X106042500Y-83987500D03*
X106442500Y-83987500D03*
X106842500Y-83987500D03*
X107242500Y-83987500D03*
D33*
X108080000Y-83150000D03*
X108080000Y-82750000D03*
X108080000Y-82350000D03*
X108080000Y-81950000D03*
X108080000Y-81550000D03*
X108080000Y-81150000D03*
X108080000Y-80750000D03*
X108080000Y-80350000D03*
X108080000Y-79950000D03*
X108080000Y-79550000D03*
X108080000Y-79150000D03*
X108080000Y-78750000D03*
X108080000Y-78350000D03*
X108080000Y-77950000D03*
D34*
X107242500Y-77112500D03*
X106842500Y-77112500D03*
X106442500Y-77112500D03*
X106042500Y-77112500D03*
X105642500Y-77112500D03*
X105242500Y-77112500D03*
X104842500Y-77112500D03*
X104442500Y-77112500D03*
X104042500Y-77112500D03*
X103642500Y-77112500D03*
X103242500Y-77112500D03*
X102842500Y-77112500D03*
X102442500Y-77112500D03*
X102042500Y-77112500D03*
%TD*%
D14*
%TO.C,C32*%
X87535000Y-82457500D03*
X87535000Y-80557500D03*
%TD*%
D35*
%TO.C,C9*%
X76885000Y-102914100D03*
X76885000Y-108425900D03*
%TD*%
D28*
%TO.C,C10*%
X92660000Y-106020000D03*
X90760000Y-106020000D03*
%TD*%
D19*
%TO.C,C2*%
X122600000Y-62500000D03*
X122600000Y-64400000D03*
%TD*%
D36*
%TO.C,L1*%
X125250000Y-70769800D03*
X125250000Y-77780200D03*
%TD*%
D16*
%TO.C,D6*%
X107662500Y-67950000D03*
X106087500Y-67950000D03*
%TD*%
D18*
%TO.C,R21*%
X107062500Y-115475000D03*
X108887500Y-115475000D03*
%TD*%
D11*
%TO.C,R9*%
X86260000Y-102820000D03*
X86260000Y-100995000D03*
%TD*%
D14*
%TO.C,C8*%
X136150000Y-101750000D03*
X136150000Y-99850000D03*
%TD*%
D12*
%TO.C,R5*%
X82360000Y-100995000D03*
X82360000Y-102820000D03*
%TD*%
D11*
%TO.C,R23*%
X120050000Y-114437500D03*
X120050000Y-112612500D03*
%TD*%
D19*
%TO.C,C16*%
X132800000Y-98200000D03*
X132800000Y-100100000D03*
%TD*%
D37*
%TO.C,C14*%
X131345000Y-64750000D03*
X129605000Y-64750000D03*
%TD*%
D12*
%TO.C,R30*%
X94900000Y-67787500D03*
X94900000Y-69612500D03*
%TD*%
%TO.C,R12*%
X83560000Y-80595000D03*
X83560000Y-82420000D03*
%TD*%
D14*
%TO.C,C30*%
X101170000Y-91450000D03*
X101170000Y-89550000D03*
%TD*%
D38*
%TO.C,J10*%
X88827500Y-88120000D03*
X88827500Y-89220000D03*
X88827500Y-90320000D03*
X88827500Y-91420000D03*
X88827500Y-92520000D03*
X88827500Y-93620000D03*
X88827500Y-94720000D03*
X88827500Y-95820000D03*
D39*
X76127500Y-89520000D03*
D40*
X88327500Y-97920000D03*
D41*
X88327500Y-84570000D03*
D39*
X76127500Y-94420000D03*
D42*
X76027500Y-86470000D03*
%TD*%
D19*
%TO.C,C22*%
X102285000Y-69757500D03*
X102285000Y-71657500D03*
%TD*%
D11*
%TO.C,R39*%
X132160000Y-116845000D03*
X132160000Y-115020000D03*
%TD*%
D15*
%TO.C,R4*%
X114250000Y-78550000D03*
X112425000Y-78550000D03*
%TD*%
D11*
%TO.C,R10*%
X84310000Y-102820000D03*
X84310000Y-100995000D03*
%TD*%
D35*
%TO.C,C13*%
X76210000Y-77775900D03*
X76210000Y-72264100D03*
%TD*%
D18*
%TO.C,R31*%
X103585000Y-86890000D03*
X105410000Y-86890000D03*
%TD*%
D43*
%TO.C,U5*%
X120000000Y-63423400D03*
X117700000Y-63423400D03*
X115400000Y-63423400D03*
D44*
X117700000Y-69976600D03*
%TD*%
D15*
%TO.C,R18*%
X87547500Y-78295000D03*
X85722500Y-78295000D03*
%TD*%
D45*
%TO.C,D5*%
X103050000Y-67950000D03*
X104625000Y-67950000D03*
%TD*%
D19*
%TO.C,C31*%
X108290000Y-72890000D03*
X108290000Y-74790000D03*
%TD*%
%TO.C,C23*%
X112390000Y-72870000D03*
X112390000Y-74770000D03*
%TD*%
D46*
%TO.C,R37*%
X120085000Y-106945000D03*
X118085000Y-106945000D03*
%TD*%
D26*
%TO.C,C29*%
X106890000Y-91200000D03*
X108790000Y-91200000D03*
%TD*%
D28*
%TO.C,C4*%
X127875000Y-68150000D03*
X125975000Y-68150000D03*
%TD*%
D47*
%TO.C,J11*%
X138550000Y-108950000D03*
X138550000Y-107950000D03*
X138550000Y-106950000D03*
X138550000Y-105950000D03*
X138550000Y-104950000D03*
X138550000Y-103950000D03*
D48*
X142425000Y-110250000D03*
X142425000Y-102650000D03*
%TD*%
D11*
%TO.C,R20*%
X127275000Y-87425000D03*
X127275000Y-85600000D03*
%TD*%
%TO.C,R42*%
X142600000Y-100437500D03*
X142600000Y-98612500D03*
%TD*%
D12*
%TO.C,R40*%
X129785000Y-115082500D03*
X129785000Y-116907500D03*
%TD*%
D20*
%TO.C,C5*%
X127925000Y-81765000D03*
X127925000Y-80025000D03*
%TD*%
D26*
%TO.C,C12*%
X130275000Y-96025000D03*
X132175000Y-96025000D03*
%TD*%
D12*
%TO.C,R38*%
X134835000Y-115020000D03*
X134835000Y-116845000D03*
%TD*%
D19*
%TO.C,C24*%
X110340000Y-72880000D03*
X110340000Y-74780000D03*
%TD*%
D15*
%TO.C,R1*%
X122712500Y-80100000D03*
X120887500Y-80100000D03*
%TD*%
D49*
%TO.C,Motor 2*%
X84560000Y-76569998D03*
X84560000Y-76069999D03*
X84560000Y-75570000D03*
X81760000Y-75570000D03*
X81760000Y-76069999D03*
X81760000Y-76569998D03*
D50*
X82409999Y-77094998D03*
X82910000Y-77094998D03*
X83410000Y-77094998D03*
X83910001Y-77094998D03*
%TD*%
D29*
%TO.C,D3*%
X129810000Y-111470000D03*
X129810000Y-113070000D03*
%TD*%
D31*
%TO.C,D10*%
X121925000Y-112812500D03*
X121925000Y-114387500D03*
%TD*%
D51*
%TO.C,U8*%
X89455000Y-72615000D03*
X89455000Y-73885000D03*
X89455000Y-75155000D03*
X89455000Y-76425000D03*
X96665000Y-76425000D03*
X96665000Y-75155000D03*
X96665000Y-73885000D03*
X96665000Y-72615000D03*
%TD*%
D14*
%TO.C,C19*%
X108500000Y-89265000D03*
X108500000Y-87365000D03*
%TD*%
D29*
%TO.C,D4*%
X127335000Y-111495000D03*
X127335000Y-113095000D03*
%TD*%
D14*
%TO.C,C3*%
X112600000Y-64975000D03*
X112600000Y-63075000D03*
%TD*%
D28*
%TO.C,C27*%
X93200000Y-91375000D03*
X91300000Y-91375000D03*
%TD*%
D52*
%TO.C,U9*%
X139767600Y-98249999D03*
X139767600Y-97600000D03*
X139767600Y-96950001D03*
X137532400Y-96950001D03*
X137532400Y-98249999D03*
%TD*%
D49*
%TO.C,U1*%
X83710000Y-105120001D03*
X83710000Y-105620000D03*
X83710000Y-106119999D03*
X86510000Y-106119999D03*
X86510000Y-105620000D03*
X86510000Y-105120001D03*
D50*
X85860001Y-104595001D03*
X85360000Y-104595001D03*
X84860000Y-104595001D03*
X84359999Y-104595001D03*
%TD*%
D11*
%TO.C,R35*%
X133800000Y-83087500D03*
X133800000Y-81262500D03*
%TD*%
%TO.C,R24*%
X95325000Y-104887500D03*
X95325000Y-103062500D03*
%TD*%
D28*
%TO.C,C15*%
X131600000Y-62925000D03*
X129700000Y-62925000D03*
%TD*%
D12*
%TO.C,R34*%
X131825000Y-81275000D03*
X131825000Y-83100000D03*
%TD*%
D11*
%TO.C,R6*%
X88210000Y-102820000D03*
X88210000Y-100995000D03*
%TD*%
D14*
%TO.C,C18*%
X96810000Y-85445000D03*
X96810000Y-83545000D03*
%TD*%
D11*
%TO.C,R14*%
X135500000Y-96487500D03*
X135500000Y-94662500D03*
%TD*%
D28*
%TO.C,C1*%
X124100000Y-68200000D03*
X122200000Y-68200000D03*
%TD*%
D29*
%TO.C,D1*%
X134785000Y-111445000D03*
X134785000Y-113045000D03*
%TD*%
D12*
%TO.C,R41*%
X127310000Y-114995000D03*
X127310000Y-116820000D03*
%TD*%
D15*
%TO.C,R17*%
X93287500Y-96625000D03*
X91462500Y-96625000D03*
%TD*%
M02*
